<svg width="28" height="28" viewBox="0 0 28 28" fill="none" xmlns="http://www.w3.org/2000/svg">
<path fill-rule="evenodd" clip-rule="evenodd" d="M4.15933 23.2312C3.27285 23.2312 1.37577 22.3367 1.83674 20.0648C2.27998 17.775 3.99976 14.0898 8.64494 14.0898C13.2901 14.0898 15.0099 17.775 15.4531 20.0648C15.9141 22.3367 14.0348 23.2312 13.1305 23.2312H4.15933Z" stroke="#A4A4B2" stroke-width="1.5" stroke-miterlimit="22.9256" stroke-linecap="round" stroke-linejoin="round"/>
<path d="M17.1016 14.4118C17.7576 14.1972 18.5022 14.0898 19.3532 14.0898C23.9984 14.0898 25.7182 17.775 26.1614 20.0648C26.6224 22.3367 24.7431 23.2312 23.8388 23.2312H18.7682" stroke="#A4A4B2" stroke-width="1.5" stroke-miterlimit="22.9256" stroke-linecap="round" stroke-linejoin="round"/>
<path d="M8.64568 11.4958C10.4865 11.4958 11.9789 9.9901 11.9789 8.13268C11.9789 6.27526 10.4865 4.76953 8.64568 4.76953C6.80481 4.76953 5.3125 6.27526 5.3125 8.13268C5.3125 9.9901 6.80481 11.4958 8.64568 11.4958Z" stroke="#A4A4B2" stroke-width="1.5" stroke-miterlimit="22.9256" stroke-linecap="round" stroke-linejoin="round"/>
<path d="M19.2629 11.4958C21.1037 11.4958 22.596 9.9901 22.596 8.13268C22.596 6.27526 21.1037 4.76953 19.2629 4.76953C17.422 4.76953 15.9297 6.27526 15.9297 8.13268C15.9297 9.9901 17.422 11.4958 19.2629 11.4958Z" stroke="#A4A4B2" stroke-width="1.5" stroke-miterlimit="22.9256" stroke-linecap="round" stroke-linejoin="round"/>
</svg>
