<svg width="22" height="22" viewBox="0 0 22 22" fill="none" xmlns="http://www.w3.org/2000/svg">
<path d="M14.125 6H2.875C2.53125 6 2.25 5.71875 2.25 5.375C2.25 5.03125 2.53125 4.75 2.875 4.75H14.125C14.4688 4.75 14.75 5.03125 14.75 5.375C14.75 5.71875 14.4688 6 14.125 6Z" fill="#5EB1D9"/>
<path d="M8.5 6C8.15625 6 7.875 5.71875 7.875 5.375V3.5C7.875 3.15625 8.15625 2.875 8.5 2.875C8.84375 2.875 9.125 3.15625 9.125 3.5V5.375C9.125 5.71875 8.84375 6 8.5 6Z" fill="#5EB1D9"/>
<path d="M19.1251 19.125C18.8829 19.125 18.6525 18.9844 18.5509 18.7461L15.3751 11.3359L12.1993 18.7461C12.0626 19.0625 11.6954 19.2109 11.379 19.0742C11.0626 18.9375 10.9142 18.5703 11.0509 18.2539L14.8009 9.50391C14.8986 9.27344 15.1251 9.125 15.3751 9.125C15.6251 9.125 15.8517 9.27344 15.9493 9.50391L19.6993 18.2539C19.8361 18.5703 19.6876 18.9375 19.3712 19.0742C19.2892 19.1094 19.2072 19.125 19.1251 19.125Z" fill="#5EB1D9"/>
<path d="M17.9766 16.625H12.7812C12.4375 16.625 12.1562 16.3438 12.1562 16C12.1562 15.6562 12.4375 15.375 12.7812 15.375H17.9766C18.3203 15.375 18.6016 15.6562 18.6016 16C18.6016 16.3438 18.3203 16.625 17.9766 16.625Z" fill="#5EB1D9"/>
<path d="M4.12646 16.6252C3.91161 16.6252 3.70458 16.5158 3.58739 16.3166C3.41161 16.0197 3.50927 15.6369 3.80614 15.4611C3.82958 15.4494 6.12646 14.0705 8.28661 11.426C10.435 8.79707 11.3726 5.2541 11.3804 5.21894C11.4663 4.88691 11.8061 4.68379 12.1421 4.76972C12.478 4.85566 12.6772 5.1955 12.5913 5.53144C12.5522 5.68769 11.5796 9.36738 9.25536 12.215C6.95068 15.0432 4.54442 16.4768 4.44286 16.5393C4.34521 16.5978 4.23583 16.6252 4.12646 16.6252Z" fill="#5EB1D9"/>
<path d="M11.0019 14.7499C10.8691 14.7499 10.7363 14.707 10.6191 14.621C10.5605 14.5741 9.16985 13.496 7.69328 11.578C6.22844 9.67961 5.47453 8.22258 5.44328 8.16008C5.28703 7.85149 5.40813 7.47649 5.71281 7.32024C6.02141 7.16399 6.39641 7.28508 6.55266 7.58977C6.56047 7.60539 7.29094 9.01164 8.67766 10.8124C10.0488 12.5937 11.3652 13.6171 11.3769 13.6288C11.6503 13.8398 11.7011 14.2343 11.4902 14.5038C11.373 14.6679 11.1894 14.7499 11.0019 14.7499Z" fill="#5EB1D9"/>
</svg>
