<svg width="151" height="152" viewBox="0 0 151 152" fill="none" xmlns="http://www.w3.org/2000/svg">
<path fill-rule="evenodd" clip-rule="evenodd" d="M15.7305 27.5C15.7305 26.3954 16.6259 25.5 17.7305 25.5L133.272 25.5C134.377 25.5 135.272 26.3954 135.272 27.5V124.167C135.272 125.271 134.377 126.167 133.272 126.167H17.7305C16.6259 126.167 15.7305 125.271 15.7305 124.167V27.5Z" stroke="#8E8E93" stroke-width="5" stroke-linecap="round" stroke-linejoin="round"/>
<path fill-rule="evenodd" clip-rule="evenodd" d="M45.6172 56.958C48.2233 56.958 50.3359 54.8454 50.3359 52.2393C50.3359 49.6332 48.2233 47.5205 45.6172 47.5205C43.0111 47.5205 40.8984 49.6332 40.8984 52.2393C40.8984 54.8454 43.0111 56.958 45.6172 56.958Z" stroke="#8E8E93" stroke-width="5" stroke-linecap="round" stroke-linejoin="round"/>
<path d="M47.1888 75.833L62.918 88.4163L81.793 66.3955L135.272 107.291V124.166C135.272 125.271 134.377 126.166 133.272 126.166H17.7305C16.6259 126.166 15.7305 125.271 15.7305 124.166V107.291L47.1888 75.833Z" stroke="#8E8E93" stroke-width="5" stroke-linejoin="round"/>
</svg>
