<svg width="15" height="17" viewBox="0 0 15 17" fill="none" xmlns="http://www.w3.org/2000/svg">
<path fill-rule="evenodd" clip-rule="evenodd" d="M6.7075 0.17289C6.91171 0.0594999 7.14143 0 7.375 0C7.6086 0 7.8383 0.0594999 8.0425 0.17289L14.0425 3.50623C14.4792 3.74873 14.75 4.20873 14.75 4.70873V11.3254C14.75 11.8254 14.4792 12.2854 14.0425 12.5279L8.0425 15.8612C7.8383 15.9746 7.6086 16.0341 7.375 16.0341C7.14143 16.0341 6.91171 15.9746 6.7075 15.8612L0.7075 12.5279C0.49302 12.4088 0.31431 12.2345 0.1899 12.0231C0.0655 11.8116 -6.9944e-05 11.5707 5.59883e-08 11.3254V4.70873C5.59883e-08 4.20873 0.27083 3.74873 0.7075 3.50623L6.7075 0.17289ZM7.4358 1.26623C7.4172 1.25586 7.3963 1.25042 7.375 1.25042C7.35371 1.25042 7.33277 1.25586 7.31417 1.26623L1.31417 4.59956C1.29484 4.61032 1.27872 4.62602 1.26745 4.64506C1.25617 4.66409 1.25015 4.68577 1.25 4.70789V11.3262C1.25 11.3712 1.275 11.4129 1.31417 11.4346L7.31417 14.7679C7.33277 14.7783 7.35371 14.7837 7.375 14.7837C7.3963 14.7837 7.4172 14.7783 7.4358 14.7679L13.4358 11.4346C13.4552 11.4238 13.4713 11.4081 13.4826 11.3891C13.4938 11.37 13.4998 11.3484 13.5 11.3262V4.70873C13.5 4.68646 13.494 4.66461 13.4828 4.64542C13.4715 4.62622 13.4553 4.61039 13.4358 4.59956L7.4358 1.26623Z" fill="#A4A4B2"/>
<path fill-rule="evenodd" clip-rule="evenodd" d="M3.41797 8.01692C3.41797 6.9671 3.83501 5.96029 4.57734 5.21795C5.31967 4.47562 6.32649 4.05859 7.3763 4.05859C8.4261 4.05859 9.4329 4.47562 10.1753 5.21795C10.9176 5.96029 11.3346 6.9671 11.3346 8.01692C11.3346 9.06677 10.9176 10.0736 10.1753 10.8159C9.4329 11.5582 8.4261 11.9753 7.3763 11.9753C6.32649 11.9753 5.31967 11.5582 4.57734 10.8159C3.83501 10.0736 3.41797 9.06677 3.41797 8.01692ZM7.3763 5.30859C6.65801 5.30859 5.96913 5.59393 5.46122 6.10184C4.95331 6.60975 4.66797 7.29862 4.66797 8.01692C4.66797 8.73517 4.95331 9.42407 5.46122 9.93197C5.96913 10.4399 6.65801 10.7253 7.3763 10.7253C8.0946 10.7253 8.7835 10.4399 9.2914 9.93197C9.7993 9.42407 10.0846 8.73517 10.0846 8.01692C10.0846 7.29862 9.7993 6.60975 9.2914 6.10184C8.7835 5.59393 8.0946 5.30859 7.3763 5.30859Z" fill="#A4A4B2"/>
</svg>
