<svg width="24" height="24" viewBox="0 0 24 24" fill="none" xmlns="http://www.w3.org/2000/svg">
<g clip-path="url(#clip0_1281_119)">
<mask id="mask0_1281_119" style="mask-type:luminance" maskUnits="userSpaceOnUse" x="0" y="0" width="24" height="24">
<path d="M24 0H0V24H24V0Z" fill="white"/>
</mask>
<g mask="url(#mask0_1281_119)">
<path d="M1.96094 4.20703H4.81659H22.0353" stroke="white" stroke-width="1.5" stroke-miterlimit="22.9256" stroke-linecap="round" stroke-linejoin="round"/>
<path d="M16.0074 7.80664L15.6328 19.4217" stroke="white" stroke-width="1.5" stroke-miterlimit="22.9256" stroke-linecap="round" stroke-linejoin="round"/>
<path d="M8.21094 7.80664L8.5785 19.4217" stroke="white" stroke-width="1.5" stroke-miterlimit="22.9256" stroke-linecap="round" stroke-linejoin="round"/>
<path d="M12.2031 7.80664V19.3088" stroke="white" stroke-width="1.5" stroke-miterlimit="22.9256" stroke-linecap="round" stroke-linejoin="round"/>
<path d="M19.4271 4.20703C19.4271 4.20703 19.1373 19.2445 18.904 21.3967C18.6708 23.5419 17.2147 23.3161 17.2147 23.3161H12H6.85714C6.85714 23.3161 5.40104 23.549 5.16778 21.3967C4.93452 19.2515 4.1875 4.20703 4.1875 4.20703" stroke="white" stroke-width="1.5" stroke-miterlimit="22.9256" stroke-linecap="round" stroke-linejoin="round"/>
<path d="M15.8215 4.20791C15.8215 4.20791 15.8144 3.2694 15.8215 2.32382C15.8286 1.38531 15.2207 0.961914 13.8847 0.961914H12.3014H10.7181C9.38213 0.961914 8.77424 1.37825 8.78131 2.32382C8.78838 3.26234 8.78131 4.20791 8.78131 4.20791" stroke="white" stroke-width="1.5" stroke-miterlimit="22.9256" stroke-linecap="round" stroke-linejoin="round"/>
</g>
</g>
<defs>
<clipPath id="clip0_1281_119">
<rect width="24" height="24" fill="white"/>
</clipPath>
</defs>
</svg>
