<svg width="26" height="26" viewBox="0 0 26 26" fill="none" xmlns="http://www.w3.org/2000/svg">
<path fill-rule="evenodd" clip-rule="evenodd" d="M1.625 6.5C1.625 4.70507 3.08007 3.25 4.875 3.25H21.125C22.9199 3.25 24.375 4.70507 24.375 6.5V21.125C24.375 22.9199 22.9199 24.375 21.125 24.375H4.875C3.08007 24.375 1.625 22.9199 1.625 21.125V6.5Z" fill="white"/>
<path fill-rule="evenodd" clip-rule="evenodd" d="M6.5 1.625C6.94873 1.625 7.3125 1.98877 7.3125 2.4375V4.0625C7.3125 4.51123 6.94873 4.875 6.5 4.875C6.05127 4.875 5.6875 4.51123 5.6875 4.0625V2.4375C5.6875 1.98877 6.05127 1.625 6.5 1.625Z" fill="white"/>
<path fill-rule="evenodd" clip-rule="evenodd" d="M19.4961 1.625C19.9448 1.625 20.3086 1.98877 20.3086 2.4375V4.0625C20.3086 4.51123 19.9448 4.875 19.4961 4.875C19.0474 4.875 18.6836 4.51123 18.6836 4.0625V2.4375C18.6836 1.98877 19.0474 1.625 19.4961 1.625Z" fill="white"/>
<path d="M12.4922 16.5718V18H6.16992V16.7812L9.15967 13.5757C9.46012 13.2414 9.6971 12.9473 9.87061 12.6934C10.0441 12.4352 10.1689 12.2046 10.2451 12.0015C10.3255 11.7941 10.3657 11.5973 10.3657 11.4111C10.3657 11.1318 10.3192 10.8927 10.2261 10.6938C10.133 10.4907 9.99544 10.3341 9.81348 10.2241C9.63574 10.1141 9.41569 10.0591 9.15332 10.0591C8.87402 10.0591 8.63281 10.1268 8.42969 10.2622C8.23079 10.3976 8.07845 10.5859 7.97266 10.8271C7.87109 11.0684 7.82031 11.3413 7.82031 11.646H5.98584C5.98584 11.0959 6.11702 10.5923 6.37939 10.1353C6.64176 9.67399 7.01204 9.30794 7.49023 9.03711C7.96842 8.76204 8.53548 8.62451 9.19141 8.62451C9.83887 8.62451 10.3848 8.73031 10.8291 8.94189C11.2777 9.14925 11.6162 9.44971 11.8447 9.84326C12.0775 10.2326 12.1938 10.6981 12.1938 11.2397C12.1938 11.5444 12.1452 11.8428 12.0479 12.1348C11.9505 12.4225 11.8109 12.7103 11.6289 12.998C11.4512 13.2816 11.2354 13.5693 10.9814 13.8613C10.7275 14.1533 10.4461 14.4559 10.1372 14.769L8.53125 16.5718H12.4922ZM19.8618 15.4673C19.8618 16.047 19.7264 16.5358 19.4556 16.9336C19.1847 17.3271 18.8123 17.6255 18.3384 17.8286C17.8687 18.0275 17.3354 18.127 16.7388 18.127C16.1421 18.127 15.6068 18.0275 15.1328 17.8286C14.6589 17.6255 14.2843 17.3271 14.0093 16.9336C13.7342 16.5358 13.5967 16.047 13.5967 15.4673C13.5967 15.078 13.675 14.7267 13.8315 14.4136C13.9881 14.0962 14.2061 13.8254 14.4854 13.6011C14.7689 13.3726 15.1011 13.1991 15.4819 13.0806C15.8628 12.9578 16.2775 12.8965 16.7261 12.8965C17.327 12.8965 17.8644 13.0023 18.3384 13.2139C18.8123 13.4255 19.1847 13.7238 19.4556 14.1089C19.7264 14.494 19.8618 14.9468 19.8618 15.4673ZM18.021 15.3467C18.021 15.0632 17.966 14.8198 17.856 14.6167C17.7502 14.4093 17.5999 14.2507 17.4053 14.1406C17.2106 14.0306 16.9842 13.9756 16.7261 13.9756C16.4679 13.9756 16.2415 14.0306 16.0469 14.1406C15.8522 14.2507 15.6999 14.4093 15.5898 14.6167C15.484 14.8198 15.4312 15.0632 15.4312 15.3467C15.4312 15.626 15.484 15.8672 15.5898 16.0703C15.6999 16.2734 15.8522 16.43 16.0469 16.54C16.2458 16.6458 16.4764 16.6987 16.7388 16.6987C17.0011 16.6987 17.2275 16.6458 17.418 16.54C17.6126 16.43 17.7607 16.2734 17.8623 16.0703C17.9681 15.8672 18.021 15.626 18.021 15.3467ZM19.665 11.208C19.665 11.6777 19.5402 12.0946 19.2905 12.4585C19.0409 12.8182 18.6938 13.0996 18.2495 13.3027C17.8094 13.5059 17.3058 13.6074 16.7388 13.6074C16.1675 13.6074 15.6597 13.5059 15.2153 13.3027C14.771 13.0996 14.424 12.8182 14.1743 12.4585C13.9246 12.0946 13.7998 11.6777 13.7998 11.208C13.7998 10.6494 13.9246 10.1797 14.1743 9.79883C14.4282 9.41374 14.7752 9.12174 15.2153 8.92285C15.6597 8.72396 16.1632 8.62451 16.7261 8.62451C17.2974 8.62451 17.8031 8.72396 18.2432 8.92285C18.6875 9.12174 19.0345 9.41374 19.2842 9.79883C19.5381 10.1797 19.665 10.6494 19.665 11.208ZM17.8369 11.2905C17.8369 11.0409 17.7925 10.825 17.7036 10.6431C17.6147 10.4569 17.4878 10.313 17.3228 10.2114C17.1619 10.1099 16.9631 10.0591 16.7261 10.0591C16.4976 10.0591 16.3008 10.1077 16.1357 10.2051C15.9749 10.3024 15.8501 10.4442 15.7612 10.6304C15.6766 10.8123 15.6343 11.0324 15.6343 11.2905C15.6343 11.5402 15.6766 11.7603 15.7612 11.9507C15.8501 12.1369 15.9771 12.2829 16.1421 12.3887C16.3071 12.4945 16.506 12.5474 16.7388 12.5474C16.9715 12.5474 17.1683 12.4945 17.3291 12.3887C17.4941 12.2829 17.619 12.1369 17.7036 11.9507C17.7925 11.7603 17.8369 11.5402 17.8369 11.2905Z" fill="#1C1C1E"/>
</svg>
