<svg width="22" height="22" viewBox="0 0 22 22" fill="none" xmlns="http://www.w3.org/2000/svg">
<path d="M9.12969 7.91992C7.89769 9.94392 5.31636 10.9632 4.17969 11.2199V11.3299L5.71969 13.6399L7.80969 12.2099C8.10301 12.0632 8.62369 11.8799 8.35969 12.3199C8.09569 12.7599 6.92969 13.8966 6.37969 14.4099C8.31569 16.1699 10.9264 17.5632 11.9897 18.0399C11.9017 16.3679 13.6397 13.7499 14.5197 12.6499L9.12969 7.91992Z" stroke="#985AE8"/>
<path d="M14.8497 12.1008L9.67969 7.48078L10.9997 6.05078L16.2797 10.6708L14.8497 12.1008Z" stroke="#985AE8"/>
<path d="M16.3886 3.74023L13.3086 7.15023L14.8486 8.47023L17.8186 4.95023L16.3886 3.74023Z" stroke="#985AE8"/>
</svg>
