<svg width="22" height="22" viewBox="0 0 22 22" fill="none" xmlns="http://www.w3.org/2000/svg">
<path fill-rule="evenodd" clip-rule="evenodd" d="M11 3.5C6.85786 3.5 3.5 6.85786 3.5 11C3.5 15.1421 6.85786 18.5 11 18.5C15.1421 18.5 18.5 15.1421 18.5 11C18.5 6.85786 15.1421 3.5 11 3.5ZM2.25 11C2.25 6.16751 6.16751 2.25 11 2.25C15.8325 2.25 19.75 6.16751 19.75 11C19.75 15.8325 15.8325 19.75 11 19.75C6.16751 19.75 2.25 15.8325 2.25 11Z" fill="#8767E4"/>
<path d="M11 19.125C6.5125 19.125 2.875 15.4875 2.875 11C2.875 6.5125 6.5125 2.875 11 2.875V19.125Z" fill="#8767E4"/>
</svg>
