<svg width="299" height="299" viewBox="0 0 299 299" fill="none" xmlns="http://www.w3.org/2000/svg">
<path fill-rule="evenodd" clip-rule="evenodd" d="M31.1445 51.834C31.1445 50.7294 32.04 49.834 33.1445 49.834L265.853 49.834C266.957 49.834 267.853 50.7294 267.853 51.834V247.167C267.853 248.272 266.957 249.167 265.853 249.167H33.1445C32.04 249.167 31.1445 248.272 31.1445 247.167V51.834Z" stroke="#8E8E93" stroke-width="8" stroke-linecap="round" stroke-linejoin="round"/>
<path fill-rule="evenodd" clip-rule="evenodd" d="M90.3203 112.125C95.4807 112.125 99.6641 107.942 99.6641 102.781C99.6641 97.6208 95.4807 93.4375 90.3203 93.4375C85.1599 93.4375 80.9766 97.6208 80.9766 102.781C80.9766 107.942 85.1599 112.125 90.3203 112.125Z" stroke="#8E8E93" stroke-width="8" stroke-linecap="round" stroke-linejoin="round"/>
<path d="M93.4362 149.5L124.582 174.417L161.957 130.812L267.853 211.792V247.167C267.853 248.271 266.957 249.167 265.853 249.167H33.1445C32.04 249.167 31.1445 248.271 31.1445 247.167V211.792L93.4362 149.5Z" stroke="#8E8E93" stroke-width="8" stroke-linejoin="round"/>
</svg>
