<svg width="26" height="26" viewBox="0 0 26 26" fill="none" xmlns="http://www.w3.org/2000/svg">
<path d="M15.5678 24.3588H11.2236C11.2153 24.3588 11.2153 24.3588 11.207 24.3588C10.5533 24.3505 10.0155 23.8954 9.88306 23.2583C9.87478 23.2417 9.87478 23.2252 9.87478 23.2086L9.53552 20.7841H9.52724C9.1135 20.5772 8.70804 20.3455 8.32739 20.0808L6.04355 20.9993C6.03528 20.9993 6.03528 21.0075 6.027 21.0075C5.40639 21.2392 4.71131 20.9993 4.37204 20.4283C4.37204 20.42 4.36377 20.42 4.36377 20.42L2.1875 16.6633C1.84823 16.0923 1.98063 15.3558 2.49366 14.9338C2.50194 14.9256 2.50194 14.9256 2.51021 14.9173L4.44652 13.3947L4.43824 13.3864C4.42169 13.1299 4.40514 12.9065 4.40514 12.6831C4.40514 12.4514 4.41342 12.228 4.43824 11.9797L2.51021 10.4654C2.50194 10.4572 2.49366 10.4572 2.49366 10.4489C1.9889 10.0186 1.86478 9.29869 2.19577 8.72773L4.37204 4.97098C4.37204 4.9627 4.38032 4.9627 4.38032 4.9627C4.71958 4.39174 5.41467 4.15177 6.03528 4.38347C6.04355 4.38347 6.04355 4.39174 6.05183 4.39174L8.33567 5.31024C8.72459 5.04545 9.12178 4.81376 9.53552 4.60689L9.87478 2.1741C9.87478 2.16582 9.88306 2.15755 9.88306 2.14927C9.99063 1.50384 10.545 1.0239 11.207 1.01562C11.2153 1.01562 11.2153 1.01562 11.2236 1.01562H15.5678C15.5761 1.01562 15.5761 1.01562 15.5844 1.01562C16.2381 1.0239 16.776 1.47901 16.9084 2.11617C16.9166 2.13272 16.9166 2.14927 16.9166 2.16582L17.2559 4.59034H17.2642C17.6779 4.79721 18.0834 5.0289 18.464 5.29369L20.7479 4.37519C20.7561 4.37519 20.7561 4.36692 20.7644 4.36692C21.385 4.12695 22.0801 4.37519 22.4194 4.94615C22.4194 4.95443 22.4276 4.95443 22.4276 4.95443L24.6039 8.71118C24.9432 9.28214 24.8108 10.0186 24.2978 10.4406C24.2895 10.4489 24.2895 10.4489 24.2812 10.4572L22.3449 11.9797C22.3449 11.988 22.3449 11.988 22.3449 11.988C22.3614 12.2445 22.378 12.4762 22.378 12.6831V12.6914C22.378 12.9231 22.3697 13.1547 22.3449 13.3782L24.2812 14.8925C24.2895 14.9007 24.2895 14.9007 24.2978 14.909C24.8108 15.3393 24.9432 16.0592 24.6039 16.6384L22.4276 20.3952C22.4276 20.4035 22.4194 20.4035 22.4194 20.4035C22.0801 20.9744 21.385 21.2144 20.7644 20.9827C20.7561 20.9827 20.7561 20.9744 20.7479 20.9744L18.464 20.0559C18.0751 20.3207 17.6779 20.5524 17.2642 20.7593L16.9249 23.1921C16.9249 23.2004 16.9166 23.2086 16.9166 23.2169C16.8008 23.8623 16.2464 24.3423 15.5927 24.3505C15.5844 24.3505 15.5761 24.3505 15.5761 24.3505L15.5678 24.3588ZM11.447 22.737H15.3361L15.6423 20.5359C15.7168 20.0063 16.0561 19.5429 16.5443 19.3029C16.8918 19.1374 17.2228 18.9388 17.5372 18.732C17.9841 18.4258 18.555 18.3596 19.0681 18.5582L21.1285 19.3857L23.0648 16.0261L20.9547 14.3794C20.723 14.1974 20.6072 13.916 20.6486 13.6264C20.6982 13.3202 20.7148 12.9975 20.723 12.6831C20.723 12.5176 20.7148 12.3355 20.6982 12.1204C20.6486 11.5743 20.8803 11.0364 21.3105 10.6971L23.0648 9.32352L21.1285 5.96395L19.0681 6.79143C18.5633 6.9983 17.9841 6.9321 17.5372 6.61766C17.2311 6.40252 16.9001 6.20392 16.5608 6.0467C16.0726 5.81501 15.7333 5.35162 15.6506 4.81376L15.3444 2.62921H11.4553L11.1491 4.83031C11.0746 5.35989 10.7354 5.82328 10.2471 6.06325C9.89961 6.22875 9.56861 6.42734 9.25417 6.63421C8.80733 6.94038 8.23637 7.00658 7.72333 6.80798L5.67119 5.9805L3.73488 9.34007L5.47259 10.7137C5.90288 11.053 6.13457 11.5825 6.08493 12.1287C6.06838 12.3273 6.0601 12.5093 6.0601 12.6914C6.0601 12.8651 6.06838 13.0472 6.08493 13.254C6.13457 13.8002 5.91115 14.338 5.47259 14.6773L3.71833 16.0509L5.65464 19.4105L7.71506 18.583C8.21982 18.3761 8.79906 18.4423 9.2459 18.7568C9.55206 18.9719 9.88306 19.1705 10.2223 19.3277C10.7105 19.5594 11.0498 20.0228 11.1326 20.5607L11.4387 22.7452L11.447 22.737ZM13.3998 16.746C13.2674 16.746 13.1268 16.7377 13.0027 16.7295C11.9187 16.6219 10.9505 16.1006 10.2637 15.2648C9.57689 14.4291 9.25417 13.3699 9.36174 12.2859C9.57689 10.06 11.5794 8.42157 13.8053 8.63671C15.7251 8.82703 17.2559 10.3661 17.4462 12.2776C17.471 12.5424 17.471 12.8072 17.4462 13.0803C17.2393 15.1738 15.4685 16.746 13.4081 16.746H13.3998ZM13.3916 10.2503C12.8289 10.2503 12.291 10.4406 11.8442 10.8047C11.3394 11.2184 11.025 11.7977 10.9671 12.4514C10.9009 13.1051 11.0912 13.734 11.5132 14.2387C11.9269 14.7435 12.5062 15.058 13.1599 15.1159C14.4921 15.2483 15.692 14.2718 15.8244 12.9313C15.8409 12.7741 15.8409 12.6086 15.8244 12.4514C15.7085 11.3012 14.79 10.3827 13.6398 10.2668C13.5571 10.2586 13.4743 10.2586 13.3916 10.2586V10.2503Z" fill="#A4A4B2"/>
</svg>
