<svg width="20" height="20" viewBox="0 0 20 20" fill="none" xmlns="http://www.w3.org/2000/svg">
<path d="M4.61979 13.255L5.33479 12.545C4.5519 11.8421 3.93677 10.9723 3.53479 10C4.54979 7.465 7.34979 5.5 9.99979 5.5C10.6817 5.50918 11.3575 5.63082 11.9998 5.86L12.7748 5.08C11.8962 4.70842 10.9537 4.51142 9.99979 4.5C8.37005 4.56129 6.79398 5.09878 5.46639 6.04604C4.1388 6.99331 3.11787 8.30882 2.52979 9.83C2.49007 9.93985 2.49007 10.0601 2.52979 10.17C2.97391 11.3485 3.69 12.4055 4.61979 13.255Z" fill="#A4A4B2"/>
<path d="M8 9.865C8.03477 9.38586 8.24084 8.93524 8.58054 8.59554C8.92024 8.25584 9.37086 8.04977 9.85 8.015L10.755 7.105C10.2479 6.97147 9.71462 6.97321 9.20838 7.11003C8.70214 7.24685 8.24061 7.51399 7.8698 7.8848C7.49899 8.25561 7.23185 8.71714 7.09503 9.22338C6.95821 9.72962 6.95647 10.2629 7.09 10.77L8 9.865ZM17.47 9.83C16.8967 8.3366 15.899 7.04351 14.6 6.11L17 3.705L16.295 3L3 16.295L3.705 17L6.255 14.45C7.39203 15.1168 8.68205 15.4785 10 15.5C11.6297 15.4387 13.2058 14.9012 14.5334 13.954C15.861 13.0067 16.8819 11.6912 17.47 10.17C17.5097 10.0601 17.5097 9.93985 17.47 9.83ZM12 10C11.9979 10.3501 11.9039 10.6934 11.7276 10.9958C11.5512 11.2981 11.2985 11.5489 10.9948 11.723C10.6911 11.8971 10.3471 11.9885 9.997 11.988C9.64694 11.9874 9.30315 11.895 9 11.72L11.72 9C11.8998 9.30287 11.9963 9.64783 12 10ZM10 14.5C8.95103 14.4817 7.92195 14.2107 7 13.71L8.27 12.44C8.84767 12.8408 9.54777 13.026 10.2481 12.9632C10.9484 12.9005 11.6044 12.5937 12.1015 12.0965C12.5987 11.5994 12.9055 10.9434 12.9682 10.2431C13.031 9.54277 12.8458 8.84267 12.445 8.265L13.88 6.83C15.0273 7.61749 15.9245 8.71771 16.465 10C15.45 12.535 12.65 14.5 10 14.5Z" fill="#A4A4B2"/>
</svg>
