<svg width="23" height="25" viewBox="0 0 23 25" fill="none" xmlns="http://www.w3.org/2000/svg">
<path d="M5.7334 24.2046C4.66536 24.2046 3.86019 23.9362 3.31787 23.3994C2.77555 22.8626 2.50439 22.063 2.50439 21.0005V10.1514C2.50439 9.08887 2.77555 8.29199 3.31787 7.76074C3.86019 7.22396 4.66536 6.95557 5.7334 6.95557H9.18652V8.4248H5.7666C5.18555 8.4248 4.74007 8.57699 4.43018 8.88135C4.12581 9.18571 3.97363 9.63395 3.97363 10.2261V20.9258C3.97363 21.5234 4.12581 21.9717 4.43018 22.2705C4.74007 22.5749 5.18555 22.7271 5.7666 22.7271H18.0186C18.5885 22.7271 19.0285 22.5749 19.3384 22.2705C19.6538 21.9717 19.8115 21.5234 19.8115 20.9258V10.2261C19.8115 9.63395 19.6538 9.18571 19.3384 8.88135C19.0285 8.57699 18.5885 8.4248 18.0186 8.4248H14.5986V6.95557H18.0518C19.1253 6.95557 19.9305 7.22396 20.4673 7.76074C21.0096 8.29753 21.2808 9.0944 21.2808 10.1514V21.0005C21.2808 22.0575 21.0096 22.8543 20.4673 23.3911C19.9305 23.9334 19.1253 24.2046 18.0518 24.2046H5.7334ZM11.8926 15.9038C11.6934 15.9038 11.5218 15.8346 11.3779 15.6963C11.234 15.5524 11.1621 15.3836 11.1621 15.1899V3.85938L11.2202 2.28223L10.3486 3.18701L8.59717 5.01318C8.46436 5.1626 8.29558 5.2373 8.09083 5.2373C7.90268 5.2373 7.74495 5.17643 7.61768 5.05469C7.49593 4.93294 7.43506 4.77799 7.43506 4.58984C7.43506 4.49577 7.45166 4.40999 7.48486 4.33252C7.5236 4.25505 7.57894 4.18034 7.65088 4.1084L11.3613 0.497559C11.4554 0.409017 11.5439 0.348145 11.627 0.314941C11.71 0.276204 11.7985 0.256836 11.8926 0.256836C11.9867 0.256836 12.0752 0.276204 12.1582 0.314941C12.2412 0.348145 12.3298 0.409017 12.4238 0.497559L16.1343 4.1084C16.2007 4.18034 16.2533 4.25505 16.292 4.33252C16.3307 4.40999 16.3501 4.49577 16.3501 4.58984C16.3501 4.77799 16.2837 4.93294 16.1509 5.05469C16.0236 5.17643 15.8659 5.2373 15.6777 5.2373C15.4785 5.2373 15.3125 5.1626 15.1797 5.01318L13.4365 3.18701L12.5649 2.28223L12.623 3.85938V15.1899C12.623 15.3836 12.5511 15.5524 12.4072 15.6963C12.2633 15.8346 12.0918 15.9038 11.8926 15.9038Z" fill="white"/>
</svg>
