<svg width="25" height="25" viewBox="0 0 25 25" fill="none" xmlns="http://www.w3.org/2000/svg">
<g clip-path="url(#clip0_1_184)">
<path d="M22.1266 18.9611C21.7788 19.7646 21.3671 20.5043 20.89 21.1843C20.2398 22.1114 19.7074 22.7531 19.2971 23.1095C18.6611 23.6944 17.9796 23.9939 17.2499 24.011C16.726 24.011 16.0942 23.8619 15.3588 23.5595C14.621 23.2585 13.943 23.1095 13.323 23.1095C12.6727 23.1095 11.9754 23.2585 11.2295 23.5595C10.4824 23.8619 9.8806 24.0195 9.42048 24.0351C8.7207 24.0649 8.0232 23.7569 7.32697 23.1095C6.8826 22.7219 6.32679 22.0575 5.66094 21.1162C4.94654 20.111 4.35921 18.9455 3.89908 17.6166C3.4063 16.1813 3.15927 14.7914 3.15927 13.4458C3.15927 11.9044 3.49234 10.575 4.15946 9.46096C4.68376 8.56611 5.38126 7.86023 6.25424 7.34204C7.12722 6.82385 8.07047 6.55978 9.08628 6.54289C9.64209 6.54289 10.371 6.71481 11.2767 7.0527C12.18 7.39173 12.7599 7.56366 13.0142 7.56366C13.2043 7.56366 13.8486 7.36263 14.9407 6.96184C15.9736 6.59016 16.8453 6.43627 17.5594 6.49689C19.4945 6.65306 20.9482 7.41586 21.9151 8.79014C20.1844 9.83874 19.3283 11.3074 19.3454 13.1915C19.361 14.6591 19.8934 15.8803 20.9397 16.85C21.4139 17.3 21.9435 17.6478 22.5326 17.8949C22.4049 18.2654 22.27 18.6203 22.1266 18.9611ZM17.6886 1.49724C17.6886 2.6475 17.2683 3.7215 16.4307 4.71558C15.4199 5.89734 14.1972 6.58022 12.8714 6.47247C12.8545 6.33447 12.8447 6.18924 12.8447 6.03662C12.8447 4.93237 13.3254 3.7506 14.1791 2.78435C14.6053 2.29512 15.1473 1.88833 15.8046 1.56382C16.4605 1.24416 17.0809 1.06738 17.6644 1.03711C17.6815 1.19088 17.6886 1.34466 17.6886 1.49723V1.49724Z" fill="white"/>
</g>
<defs>
<clipPath id="clip0_1_184">
<rect width="24" height="24" fill="white" transform="translate(0.845947 0.537109)"/>
</clipPath>
</defs>
</svg>
