<svg width="26" height="26" viewBox="0 0 26 26" fill="none" xmlns="http://www.w3.org/2000/svg">
<path fill-rule="evenodd" clip-rule="evenodd" d="M1.625 6.5C1.625 4.70507 3.08007 3.25 4.875 3.25H21.125C22.9199 3.25 24.375 4.70507 24.375 6.5V21.125C24.375 22.9199 22.9199 24.375 21.125 24.375H4.875C3.08007 24.375 1.625 22.9199 1.625 21.125V6.5Z" fill="#14141E"/>
<path fill-rule="evenodd" clip-rule="evenodd" d="M6.5 1.625C6.94873 1.625 7.3125 1.98877 7.3125 2.4375V4.0625C7.3125 4.51123 6.94873 4.875 6.5 4.875C6.05127 4.875 5.6875 4.51123 5.6875 4.0625V2.4375C5.6875 1.98877 6.05127 1.625 6.5 1.625Z" fill="#14141E"/>
<path fill-rule="evenodd" clip-rule="evenodd" d="M19.4961 1.625C19.9448 1.625 20.3086 1.98877 20.3086 2.4375V4.0625C20.3086 4.51123 19.9448 4.875 19.4961 4.875C19.0474 4.875 18.6836 4.51123 18.6836 4.0625V2.4375C18.6836 1.98877 19.0474 1.625 19.4961 1.625Z" fill="#14141E"/>
<path d="M12.4922 16.5718V18H6.16992V16.7812L9.15967 13.5757C9.46012 13.2414 9.6971 12.9473 9.87061 12.6934C10.0441 12.4352 10.1689 12.2046 10.2451 12.0015C10.3255 11.7941 10.3657 11.5973 10.3657 11.4111C10.3657 11.1318 10.3192 10.8927 10.2261 10.6938C10.133 10.4907 9.99544 10.3341 9.81348 10.2241C9.63574 10.1141 9.41569 10.0591 9.15332 10.0591C8.87402 10.0591 8.63281 10.1268 8.42969 10.2622C8.23079 10.3976 8.07845 10.5859 7.97266 10.8271C7.87109 11.0684 7.82031 11.3413 7.82031 11.646H5.98584C5.98584 11.0959 6.11702 10.5923 6.37939 10.1353C6.64176 9.67399 7.01204 9.30794 7.49023 9.03711C7.96842 8.76204 8.53548 8.62451 9.19141 8.62451C9.83887 8.62451 10.3848 8.73031 10.8291 8.94189C11.2777 9.14925 11.6162 9.44971 11.8447 9.84326C12.0775 10.2326 12.1938 10.6981 12.1938 11.2397C12.1938 11.5444 12.1452 11.8428 12.0479 12.1348C11.9505 12.4225 11.8109 12.7103 11.6289 12.998C11.4512 13.2816 11.2354 13.5693 10.9814 13.8613C10.7275 14.1533 10.4461 14.4559 10.1372 14.769L8.53125 16.5718H12.4922ZM19.8555 12.5664V14.166C19.8555 14.86 19.7814 15.4588 19.6333 15.9624C19.4852 16.4618 19.2715 16.8722 18.9922 17.1938C18.7171 17.5112 18.3892 17.7461 18.0083 17.8984C17.6274 18.0508 17.2043 18.127 16.7388 18.127C16.3664 18.127 16.0194 18.0804 15.6978 17.9873C15.3761 17.89 15.0863 17.7397 14.8281 17.5366C14.5742 17.3335 14.3542 17.0775 14.168 16.7686C13.986 16.4554 13.8464 16.083 13.749 15.6514C13.6517 15.2197 13.603 14.7246 13.603 14.166V12.5664C13.603 11.8724 13.6771 11.2778 13.8252 10.7827C13.9775 10.2834 14.1912 9.875 14.4663 9.55762C14.7456 9.24023 15.0757 9.00749 15.4565 8.85938C15.8374 8.70703 16.2606 8.63086 16.7261 8.63086C17.0985 8.63086 17.4434 8.67952 17.7607 8.77686C18.0824 8.86995 18.3722 9.01595 18.6304 9.21484C18.8885 9.41374 19.1086 9.66976 19.2905 9.98291C19.4725 10.2918 19.6121 10.6621 19.7095 11.0938C19.8068 11.5212 19.8555 12.012 19.8555 12.5664ZM18.021 14.4072V12.3188C18.021 11.9845 18.002 11.6925 17.9639 11.4429C17.93 11.1932 17.8771 10.9816 17.8052 10.8081C17.7332 10.6304 17.6444 10.4865 17.5386 10.3765C17.4328 10.2664 17.3122 10.186 17.1768 10.1353C17.0413 10.0845 16.8911 10.0591 16.7261 10.0591C16.5187 10.0591 16.3346 10.0993 16.1738 10.1797C16.0173 10.2601 15.884 10.3892 15.7739 10.5669C15.6639 10.7404 15.5793 10.9731 15.52 11.2651C15.465 11.5529 15.4375 11.9041 15.4375 12.3188V14.4072C15.4375 14.7415 15.4544 15.0356 15.4883 15.2896C15.5264 15.5435 15.5814 15.7614 15.6533 15.9434C15.7295 16.1211 15.8184 16.2671 15.9199 16.3813C16.0257 16.4914 16.1463 16.5718 16.2817 16.6226C16.4214 16.6733 16.5737 16.6987 16.7388 16.6987C16.9419 16.6987 17.1217 16.6585 17.2783 16.5781C17.4391 16.4935 17.5745 16.3623 17.6846 16.1846C17.7988 16.0026 17.8835 15.7656 17.9385 15.4736C17.9935 15.1816 18.021 14.8262 18.021 14.4072Z" fill="white"/>
</svg>
