<svg width="18" height="18" viewBox="0 0 18 18" fill="none" xmlns="http://www.w3.org/2000/svg">
<path d="M12.2 1H5.8C4.52696 1 3.30606 1.50571 2.40589 2.40589C1.50571 3.30606 1 4.52696 1 5.8V12.2C1 13.473 1.50571 14.6939 2.40589 15.5941C3.30606 16.4943 4.52696 17 5.8 17H12.2C13.473 17 14.6939 16.4943 15.5941 15.5941C16.4943 14.6939 17 13.473 17 12.2V5.8C17 4.52696 16.4943 3.30606 15.5941 2.40589C14.6939 1.50571 13.473 1 12.2 1ZM11 11.8C11.2122 11.8 11.4157 11.8843 11.5657 12.0343C11.7157 12.1843 11.8 12.3878 11.8 12.6C11.8 12.8122 11.7157 13.0157 11.5657 13.1657C11.4157 13.3157 11.2122 13.4 11 13.4H5C4.78783 13.4 4.58434 13.3157 4.43431 13.1657C4.28428 13.0157 4.2 12.8122 4.2 12.6C4.2 12.3878 4.28428 12.1843 4.43431 12.0343C4.58434 11.8843 4.78783 11.8 5 11.8H11ZM12.6 8.6C12.8122 8.6 13.0157 8.68429 13.1657 8.83432C13.3157 8.98434 13.4 9.18783 13.4 9.4C13.4 9.61217 13.3157 9.81566 13.1657 9.96569C13.0157 10.1157 12.8122 10.2 12.6 10.2H5C4.78783 10.2 4.58434 10.1157 4.43431 9.96569C4.28428 9.81566 4.2 9.61217 4.2 9.4C4.2 9.18783 4.28428 8.98434 4.43431 8.83432C4.58434 8.68429 4.78783 8.6 5 8.6H12.6Z" fill="#C0C0C0"/>
</svg>
