<svg width="130" height="246" viewBox="0 0 130 246" fill="none" xmlns="http://www.w3.org/2000/svg">
<g clip-path="url(#clip0_1234_117)">
<path d="M121 3.5H9C5.96243 3.5 3.5 5.96243 3.5 9V237C3.5 240.038 5.96243 242.5 9 242.5H121C124.038 242.5 126.5 240.038 126.5 237V9C126.5 5.96243 124.038 3.5 121 3.5Z" fill="white"/>
<path d="M121 3.5H9C5.96243 3.5 3.5 5.96243 3.5 9V237C3.5 240.038 5.96243 242.5 9 242.5H121C124.038 242.5 126.5 240.038 126.5 237V9C126.5 5.96243 124.038 3.5 121 3.5Z" stroke="#8A8A96" stroke-width="5"/>
<g filter="url(#filter0_d_1234_117)">
<mask id="mask0_1234_117" style="mask-type:luminance" maskUnits="userSpaceOnUse" x="6" y="6" width="118" height="234">
<path d="M114 6H16C10.4772 6 6 10.4772 6 16V230C6 235.523 10.4772 240 16 240H114C119.523 240 124 235.523 124 230V16C124 10.4772 119.523 6 114 6Z" fill="white"/>
</mask>
<g mask="url(#mask0_1234_117)">
<path d="M124 -12.5117H6V239.999H124V-12.5117Z" fill="white"/>
<path d="M11 16C11 10.477 15.477 6 21 6H109C114.523 6 119 10.477 119 16V240H11V16Z" fill="white"/>
<path d="M58 21H14C12.3431 21 11 22.3431 11 24V26C11 27.6569 12.3431 29 14 29H58C59.6569 29 61 27.6569 61 26V24C61 22.3431 59.6569 21 58 21Z" fill="#14141E" fill-opacity="0.2"/>
</g>
</g>
<path d="M26.4 37H14C12.3431 37 11 38.3431 11 40C11 41.6569 12.3431 43 14 43H26.4C28.0569 43 29.4 41.6569 29.4 40C29.4 38.3431 28.0569 37 26.4 37Z" fill="#14141E"/>
<path d="M26.4 37H14C12.3431 37 11 38.3431 11 40C11 41.6569 12.3431 43 14 43H26.4C28.0569 43 29.4 41.6569 29.4 40C29.4 38.3431 28.0569 37 26.4 37Z" fill="black" fill-opacity="0.2"/>
<path d="M26.4 37H14C12.3431 37 11 38.3431 11 40C11 41.6569 12.3431 43 14 43H26.4C28.0569 43 29.4 41.6569 29.4 40C29.4 38.3431 28.0569 37 26.4 37Z" fill="black" fill-opacity="0.2"/>
<path d="M48.7984 37H36.3984C34.7416 37 33.3984 38.3431 33.3984 40C33.3984 41.6569 34.7416 43 36.3984 43H48.7984C50.4553 43 51.7984 41.6569 51.7984 40C51.7984 38.3431 50.4553 37 48.7984 37Z" fill="#14141E" fill-opacity="0.2"/>
<path d="M71.2008 37H58.8008C57.1439 37 55.8008 38.3431 55.8008 40C55.8008 41.6569 57.1439 43 58.8008 43H71.2008C72.8576 43 74.2008 41.6569 74.2008 40C74.2008 38.3431 72.8576 37 71.2008 37Z" fill="#14141E" fill-opacity="0.2"/>
<path d="M93.5992 37H81.1992C79.5424 37 78.1992 38.3431 78.1992 40C78.1992 41.6569 79.5424 43 81.1992 43H93.5992C95.2561 43 96.5992 41.6569 96.5992 40C96.5992 38.3431 95.2561 37 93.5992 37Z" fill="#14141E" fill-opacity="0.2"/>
<path d="M116.002 37H103.602C101.945 37 100.602 38.3431 100.602 40C100.602 41.6569 101.945 43 103.602 43H116.002C117.658 43 119.002 41.6569 119.002 40C119.002 38.3431 117.658 37 116.002 37Z" fill="#14141E" fill-opacity="0.2"/>
<path d="M20 54.5H13.5C12.3954 54.5 11.5 55.3954 11.5 56.5C11.5 57.6046 12.3954 58.5 13.5 58.5H20C21.1046 58.5 22 57.6046 22 56.5C22 55.3954 21.1046 54.5 20 54.5Z" fill="#14141E"/>
<path d="M20 54.5H13.5C12.3954 54.5 11.5 55.3954 11.5 56.5C11.5 57.6046 12.3954 58.5 13.5 58.5H20C21.1046 58.5 22 57.6046 22 56.5C22 55.3954 21.1046 54.5 20 54.5Z" fill="black" fill-opacity="0.2"/>
<path d="M20 54.5H13.5C12.3954 54.5 11.5 55.3954 11.5 56.5C11.5 57.6046 12.3954 58.5 13.5 58.5H20C21.1046 58.5 22 57.6046 22 56.5C22 55.3954 21.1046 54.5 20 54.5Z" fill="black" fill-opacity="0.2"/>
<path d="M20 54.5H13.5C12.3954 54.5 11.5 55.3954 11.5 56.5C11.5 57.6046 12.3954 58.5 13.5 58.5H20C21.1046 58.5 22 57.6046 22 56.5C22 55.3954 21.1046 54.5 20 54.5Z" stroke="#14141E"/>
<path d="M20 54.5H13.5C12.3954 54.5 11.5 55.3954 11.5 56.5C11.5 57.6046 12.3954 58.5 13.5 58.5H20C21.1046 58.5 22 57.6046 22 56.5C22 55.3954 21.1046 54.5 20 54.5Z" stroke="black" stroke-opacity="0.2"/>
<path d="M20 54.5H13.5C12.3954 54.5 11.5 55.3954 11.5 56.5C11.5 57.6046 12.3954 58.5 13.5 58.5H20C21.1046 58.5 22 57.6046 22 56.5C22 55.3954 21.1046 54.5 20 54.5Z" stroke="black" stroke-opacity="0.2"/>
<path d="M36.5 54.5H30C28.8954 54.5 28 55.3954 28 56.5C28 57.6046 28.8954 58.5 30 58.5H36.5C37.6046 58.5 38.5 57.6046 38.5 56.5C38.5 55.3954 37.6046 54.5 36.5 54.5Z" fill="#A4A4B2"/>
<path d="M36.5 54.5H30C28.8954 54.5 28 55.3954 28 56.5C28 57.6046 28.8954 58.5 30 58.5H36.5C37.6046 58.5 38.5 57.6046 38.5 56.5C38.5 55.3954 37.6046 54.5 36.5 54.5Z" stroke="#A4A4B2"/>
<path d="M53 54.5H46.5C45.3954 54.5 44.5 55.3954 44.5 56.5C44.5 57.6046 45.3954 58.5 46.5 58.5H53C54.1046 58.5 55 57.6046 55 56.5C55 55.3954 54.1046 54.5 53 54.5Z" fill="#A4A4B2"/>
<path d="M53 54.5H46.5C45.3954 54.5 44.5 55.3954 44.5 56.5C44.5 57.6046 45.3954 58.5 46.5 58.5H53C54.1046 58.5 55 57.6046 55 56.5C55 55.3954 54.1046 54.5 53 54.5Z" stroke="#A4A4B2"/>
<path d="M69.5 54.5H63C61.8954 54.5 61 55.3954 61 56.5C61 57.6046 61.8954 58.5 63 58.5H69.5C70.6046 58.5 71.5 57.6046 71.5 56.5C71.5 55.3954 70.6046 54.5 69.5 54.5Z" fill="#A4A4B2"/>
<path d="M69.5 54.5H63C61.8954 54.5 61 55.3954 61 56.5C61 57.6046 61.8954 58.5 63 58.5H69.5C70.6046 58.5 71.5 57.6046 71.5 56.5C71.5 55.3954 70.6046 54.5 69.5 54.5Z" stroke="#A4A4B2"/>
<path d="M45.5 69H13.5C12.1193 69 11 70.1193 11 71.5C11 72.8807 12.1193 74 13.5 74H45.5C46.8807 74 48 72.8807 48 71.5C48 70.1193 46.8807 69 45.5 69Z" fill="#14141E" fill-opacity="0.2"/>
<path d="M9 80C9 78.343 10.343 77 12 77H118C119.657 77 121 78.343 121 80V91H9V80Z" fill="#8A8A96" fill-opacity="0.14"/>
<path d="M21 80.5H15C14.7239 80.5 14.5 80.7239 14.5 81V87C14.5 87.2761 14.7239 87.5 15 87.5H21C21.2761 87.5 21.5 87.2761 21.5 87V81C21.5 80.7239 21.2761 80.5 21 80.5Z" stroke="#14141E"/>
<path d="M21 80.5H15C14.7239 80.5 14.5 80.7239 14.5 81V87C14.5 87.2761 14.7239 87.5 15 87.5H21C21.2761 87.5 21.5 87.2761 21.5 87V81C21.5 80.7239 21.2761 80.5 21 80.5Z" stroke="black" stroke-opacity="0.2"/>
<path d="M21 80.5H15C14.7239 80.5 14.5 80.7239 14.5 81V87C14.5 87.2761 14.7239 87.5 15 87.5H21C21.2761 87.5 21.5 87.2761 21.5 87V81C21.5 80.7239 21.2761 80.5 21 80.5Z" stroke="black" stroke-opacity="0.2"/>
<path d="M70.5 81.5H32.5C31.1193 81.5 30 82.6193 30 84C30 85.3807 31.1193 86.5 32.5 86.5H70.5C71.8807 86.5 73 85.3807 73 84C73 82.6193 71.8807 81.5 70.5 81.5Z" fill="#14141E" fill-opacity="0.2"/>
<path d="M121 91H9V105H121V91Z" fill="#8A8A96" fill-opacity="0.14"/>
<path d="M21 94.5H15C14.7239 94.5 14.5 94.7239 14.5 95V101C14.5 101.276 14.7239 101.5 15 101.5H21C21.2761 101.5 21.5 101.276 21.5 101V95C21.5 94.7239 21.2761 94.5 21 94.5Z" stroke="#14141E"/>
<path d="M21 94.5H15C14.7239 94.5 14.5 94.7239 14.5 95V101C14.5 101.276 14.7239 101.5 15 101.5H21C21.2761 101.5 21.5 101.276 21.5 101V95C21.5 94.7239 21.2761 94.5 21 94.5Z" stroke="black" stroke-opacity="0.2"/>
<path d="M21 94.5H15C14.7239 94.5 14.5 94.7239 14.5 95V101C14.5 101.276 14.7239 101.5 15 101.5H21C21.2761 101.5 21.5 101.276 21.5 101V95C21.5 94.7239 21.2761 94.5 21 94.5Z" stroke="black" stroke-opacity="0.2"/>
<path d="M89.5 95.5H32.5C31.1193 95.5 30 96.6193 30 98C30 99.3807 31.1193 100.5 32.5 100.5H89.5C90.8807 100.5 92 99.3807 92 98C92 96.6193 90.8807 95.5 89.5 95.5Z" fill="#14141E" fill-opacity="0.2"/>
<path d="M9 105H121V116C121 117.657 119.657 119 118 119H12C10.343 119 9 117.657 9 116V105Z" fill="#8A8A96" fill-opacity="0.14"/>
<path d="M21 108.5H15C14.7239 108.5 14.5 108.724 14.5 109V115C14.5 115.276 14.7239 115.5 15 115.5H21C21.2761 115.5 21.5 115.276 21.5 115V109C21.5 108.724 21.2761 108.5 21 108.5Z" stroke="#14141E"/>
<path d="M21 108.5H15C14.7239 108.5 14.5 108.724 14.5 109V115C14.5 115.276 14.7239 115.5 15 115.5H21C21.2761 115.5 21.5 115.276 21.5 115V109C21.5 108.724 21.2761 108.5 21 108.5Z" stroke="black" stroke-opacity="0.2"/>
<path d="M21 108.5H15C14.7239 108.5 14.5 108.724 14.5 109V115C14.5 115.276 14.7239 115.5 15 115.5H21C21.2761 115.5 21.5 115.276 21.5 115V109C21.5 108.724 21.2761 108.5 21 108.5Z" stroke="black" stroke-opacity="0.2"/>
<path d="M70.5 109.5H32.5C31.1193 109.5 30 110.619 30 112C30 113.381 31.1193 114.5 32.5 114.5H70.5C71.8807 114.5 73 113.381 73 112C73 110.619 71.8807 109.5 70.5 109.5Z" fill="#14141E" fill-opacity="0.2"/>
<path d="M9 6H121C122.657 6 124 7.34315 124 9V237C124 238.657 122.657 240 121 240H9C7.34315 240 6 238.657 6 237V9C6 7.34315 7.34315 6 9 6Z" fill="#14141E" fill-opacity="0.2"/>
<g filter="url(#filter1_d_1234_117)">
<mask id="mask1_1234_117" style="mask-type:luminance" maskUnits="userSpaceOnUse" x="6" y="150" width="118" height="90">
<path d="M121 150H9C7.34315 150 6 151.343 6 153V237C6 238.657 7.34315 240 9 240H121C122.657 240 124 238.657 124 237V153C124 151.343 122.657 150 121 150Z" fill="white"/>
</mask>
<g mask="url(#mask1_1234_117)">
<mask id="mask2_1234_117" style="mask-type:luminance" maskUnits="userSpaceOnUse" x="6" y="107" width="118" height="133">
<path d="M124 107H6V240H124V107Z" fill="white"/>
</mask>
<g mask="url(#mask2_1234_117)">
<path d="M124 118.758H6V240H124V118.758Z" fill="white"/>
</g>
<path d="M71.2008 157H58.8008C58.2485 157 57.8008 157.448 57.8008 158C57.8008 158.552 58.2485 159 58.8008 159H71.2008C71.7531 159 72.2008 158.552 72.2008 158C72.2008 157.448 71.7531 157 71.2008 157Z" fill="#A4A4B2"/>
<path d="M6 175C6 169.477 10.477 165 16 165H114C119.523 165 124 169.477 124 175V222.878H6V175Z" fill="white"/>
<path d="M96.5 169H13.5C12.1193 169 11 170.119 11 171.5C11 172.881 12.1193 174 13.5 174H96.5C97.8807 174 99 172.881 99 171.5C99 170.119 97.8807 169 96.5 169Z" fill="#14141E" fill-opacity="0.2"/>
<path d="M64.5 182H13.5C12.1193 182 11 183.119 11 184.5C11 185.881 12.1193 187 13.5 187H64.5C65.8807 187 67 185.881 67 184.5C67 183.119 65.8807 182 64.5 182Z" fill="#14141E" fill-opacity="0.2"/>
<path d="M21 204H12C11.4477 204 11 204.448 11 205V214C11 214.552 11.4477 215 12 215H21C21.5523 215 22 214.552 22 214V205C22 204.448 21.5523 204 21 204Z" fill="#14141E" fill-opacity="0.2"/>
<path d="M36 204H27C26.4477 204 26 204.448 26 205V214C26 214.552 26.4477 215 27 215H36C36.5523 215 37 214.552 37 214V205C37 204.448 36.5523 204 36 204Z" fill="#14141E" fill-opacity="0.2"/>
<path d="M51 204H42C41.4477 204 41 204.448 41 205V214C41 214.552 41.4477 215 42 215H51C51.5523 215 52 214.552 52 214V205C52 204.448 51.5523 204 51 204Z" fill="#14141E" fill-opacity="0.2"/>
<mask id="mask3_1234_117" style="mask-type:luminance" maskUnits="userSpaceOnUse" x="101" y="204" width="10" height="10">
<path d="M111 204H101V214H111V204Z" fill="white"/>
</mask>
<g mask="url(#mask3_1234_117)">
<path fill-rule="evenodd" clip-rule="evenodd" d="M106 214C103.238 214 101 211.762 101 209C101 206.238 103.238 204 106 204C108.762 204 111 206.238 111 209C111 211.762 108.762 214 106 214ZM105.411 210.07L104.029 208.687L103.5 209.216L105.06 210.776C105.153 210.87 105.28 210.922 105.413 210.922C105.546 210.922 105.673 210.87 105.766 210.776L108.743 207.801L108.212 207.27L105.411 210.07Z" fill="#A4A4B2"/>
</g>
</g>
</g>
</g>
<defs>
<filter id="filter0_d_1234_117" x="-94" y="-94" width="318" height="434" filterUnits="userSpaceOnUse" color-interpolation-filters="sRGB">
<feFlood flood-opacity="0" result="BackgroundImageFix"/>
<feColorMatrix in="SourceAlpha" type="matrix" values="0 0 0 0 0 0 0 0 0 0 0 0 0 0 0 0 0 0 127 0" result="hardAlpha"/>
<feOffset/>
<feGaussianBlur stdDeviation="50"/>
<feComposite in2="hardAlpha" operator="out"/>
<feColorMatrix type="matrix" values="0 0 0 0 0 0 0 0 0 0 0 0 0 0 0 0 0 0 0.05 0"/>
<feBlend mode="normal" in2="BackgroundImageFix" result="effect1_dropShadow_1234_117"/>
<feBlend mode="normal" in="SourceGraphic" in2="effect1_dropShadow_1234_117" result="shape"/>
</filter>
<filter id="filter1_d_1234_117" x="-94" y="50" width="318" height="290" filterUnits="userSpaceOnUse" color-interpolation-filters="sRGB">
<feFlood flood-opacity="0" result="BackgroundImageFix"/>
<feColorMatrix in="SourceAlpha" type="matrix" values="0 0 0 0 0 0 0 0 0 0 0 0 0 0 0 0 0 0 127 0" result="hardAlpha"/>
<feOffset/>
<feGaussianBlur stdDeviation="50"/>
<feComposite in2="hardAlpha" operator="out"/>
<feColorMatrix type="matrix" values="0 0 0 0 0 0 0 0 0 0 0 0 0 0 0 0 0 0 0.05 0"/>
<feBlend mode="normal" in2="BackgroundImageFix" result="effect1_dropShadow_1234_117"/>
<feBlend mode="normal" in="SourceGraphic" in2="effect1_dropShadow_1234_117" result="shape"/>
</filter>
<clipPath id="clip0_1234_117">
<rect width="130" height="246" fill="white"/>
</clipPath>
</defs>
</svg>
