<svg width="26" height="26" viewBox="0 0 26 26" fill="none" xmlns="http://www.w3.org/2000/svg">
<path fill-rule="evenodd" clip-rule="evenodd" d="M4.875 4.875C3.97754 4.875 3.25 5.60254 3.25 6.5V21.125C3.25 22.0225 3.97754 22.75 4.875 22.75H21.125C22.0225 22.75 22.75 22.0225 22.75 21.125V6.5C22.75 5.60254 22.0225 4.875 21.125 4.875H4.875ZM1.625 6.5C1.625 4.70507 3.08007 3.25 4.875 3.25H21.125C22.9199 3.25 24.375 4.70507 24.375 6.5V21.125C24.375 22.9199 22.9199 24.375 21.125 24.375H4.875C3.08007 24.375 1.625 22.9199 1.625 21.125V6.5Z" fill="#A4A4B2"/>
<path fill-rule="evenodd" clip-rule="evenodd" d="M6.5 1.625C6.94873 1.625 7.3125 1.98877 7.3125 2.4375V4.0625C7.3125 4.51123 6.94873 4.875 6.5 4.875C6.05127 4.875 5.6875 4.51123 5.6875 4.0625V2.4375C5.6875 1.98877 6.05127 1.625 6.5 1.625Z" fill="#A4A4B2"/>
<path fill-rule="evenodd" clip-rule="evenodd" d="M19.4961 1.625C19.9448 1.625 20.3086 1.98877 20.3086 2.4375V4.0625C20.3086 4.51123 19.9448 4.875 19.4961 4.875C19.0474 4.875 18.6836 4.51123 18.6836 4.0625V2.4375C18.6836 1.98877 19.0474 1.625 19.4961 1.625Z" fill="#A4A4B2"/>
<path d="M12.4922 16.5718V18H6.16992V16.7812L9.15967 13.5757C9.46012 13.2414 9.6971 12.9473 9.87061 12.6934C10.0441 12.4352 10.1689 12.2046 10.2451 12.0015C10.3255 11.7941 10.3657 11.5973 10.3657 11.4111C10.3657 11.1318 10.3192 10.8927 10.2261 10.6938C10.133 10.4907 9.99544 10.3341 9.81348 10.2241C9.63574 10.1141 9.41569 10.0591 9.15332 10.0591C8.87402 10.0591 8.63281 10.1268 8.42969 10.2622C8.23079 10.3976 8.07845 10.5859 7.97266 10.8271C7.87109 11.0684 7.82031 11.3413 7.82031 11.646H5.98584C5.98584 11.0959 6.11702 10.5923 6.37939 10.1353C6.64176 9.67399 7.01204 9.30794 7.49023 9.03711C7.96842 8.76204 8.53548 8.62451 9.19141 8.62451C9.83887 8.62451 10.3848 8.73031 10.8291 8.94189C11.2777 9.14925 11.6162 9.44971 11.8447 9.84326C12.0775 10.2326 12.1938 10.6981 12.1938 11.2397C12.1938 11.5444 12.1452 11.8428 12.0479 12.1348C11.9505 12.4225 11.8109 12.7103 11.6289 12.998C11.4512 13.2816 11.2354 13.5693 10.9814 13.8613C10.7275 14.1533 10.4461 14.4559 10.1372 14.769L8.53125 16.5718H12.4922ZM14.9297 16.6099H15.0503C15.5581 16.6099 15.994 16.5485 16.3579 16.4258C16.7261 16.2988 17.0286 16.1169 17.2656 15.8799C17.5026 15.6429 17.6782 15.353 17.7925 15.0103C17.9067 14.6632 17.9639 14.2697 17.9639 13.8296V12.0776C17.9639 11.7433 17.93 11.4492 17.8623 11.1953C17.7988 10.9414 17.7057 10.7319 17.583 10.5669C17.4645 10.3976 17.3249 10.2707 17.1641 10.186C17.0075 10.1014 16.834 10.0591 16.6436 10.0591C16.4404 10.0591 16.2606 10.1099 16.104 10.2114C15.9474 10.3088 15.8141 10.4421 15.7041 10.6113C15.5983 10.7806 15.5158 10.9753 15.4565 11.1953C15.4015 11.4111 15.374 11.6375 15.374 11.8745C15.374 12.1115 15.4015 12.3379 15.4565 12.5537C15.5116 12.7653 15.5941 12.9536 15.7041 13.1187C15.8141 13.2795 15.9517 13.4085 16.1167 13.5059C16.2817 13.599 16.4764 13.6455 16.7007 13.6455C16.9165 13.6455 17.109 13.6053 17.2783 13.5249C17.4518 13.4403 17.5978 13.3302 17.7163 13.1948C17.839 13.0594 17.9321 12.9092 17.9956 12.7441C18.0633 12.5791 18.0972 12.4119 18.0972 12.2427L18.7002 12.5728C18.7002 12.869 18.6367 13.161 18.5098 13.4487C18.3828 13.7365 18.2051 13.9989 17.9766 14.2358C17.7523 14.4686 17.492 14.6548 17.1958 14.7944C16.8996 14.9341 16.5822 15.0039 16.2437 15.0039C15.812 15.0039 15.429 14.9256 15.0947 14.769C14.7604 14.6082 14.4769 14.3882 14.2441 14.1089C14.0156 13.8254 13.8421 13.4953 13.7236 13.1187C13.6051 12.742 13.5459 12.3337 13.5459 11.8936C13.5459 11.445 13.6178 11.0239 13.7617 10.6304C13.9098 10.2368 14.1193 9.88981 14.3901 9.58936C14.6652 9.2889 14.9932 9.05404 15.374 8.88477C15.7591 8.71126 16.1865 8.62451 16.6562 8.62451C17.126 8.62451 17.5534 8.71549 17.9385 8.89746C18.3236 9.07943 18.6536 9.33757 18.9287 9.67188C19.2038 10.002 19.4154 10.3976 19.5635 10.8589C19.7158 11.3201 19.792 11.8322 19.792 12.395V13.0298C19.792 13.6307 19.7264 14.1893 19.5952 14.7056C19.4683 15.2218 19.2757 15.6895 19.0176 16.1084C18.7637 16.5231 18.4463 16.8786 18.0654 17.1748C17.6888 17.471 17.2508 17.6974 16.7515 17.854C16.2521 18.0106 15.6935 18.0889 15.0757 18.0889H14.9297V16.6099Z" fill="#A4A4B2"/>
</svg>
