<svg width="36" height="36" viewBox="0 0 36 36" fill="none" xmlns="http://www.w3.org/2000/svg">
<path fill-rule="evenodd" clip-rule="evenodd" d="M23.9961 13.5C23.9961 15.0913 23.364 16.6174 22.2387 17.7427C21.1136 18.8678 19.5874 19.5 17.9961 19.5C16.4048 19.5 14.8786 18.8678 13.7535 17.7427C12.6282 16.6174 11.9961 15.0913 11.9961 13.5C11.9961 11.9087 12.6282 10.3826 13.7535 9.25735C14.8786 8.13213 16.4048 7.5 17.9961 7.5C19.5874 7.5 21.1136 8.13213 22.2387 9.25735C23.364 10.3826 23.9961 11.9087 23.9961 13.5ZM20.9961 13.5C20.9961 14.2957 20.68 15.0587 20.1175 15.6213C19.5548 16.1839 18.7917 16.5 17.9961 16.5C17.2005 16.5 16.4374 16.1839 15.8747 15.6213C15.3122 15.0587 14.9961 14.2957 14.9961 13.5C14.9961 12.7043 15.3122 11.9413 15.8747 11.3787C16.4374 10.8161 17.2005 10.5 17.9961 10.5C18.7917 10.5 19.5548 10.8161 20.1175 11.3787C20.68 11.9413 20.9961 12.7043 20.9961 13.5Z" fill="#14141E"/>
<path fill-rule="evenodd" clip-rule="evenodd" d="M23.9961 13.5C23.9961 15.0913 23.364 16.6174 22.2387 17.7427C21.1136 18.8678 19.5874 19.5 17.9961 19.5C16.4048 19.5 14.8786 18.8678 13.7535 17.7427C12.6282 16.6174 11.9961 15.0913 11.9961 13.5C11.9961 11.9087 12.6282 10.3826 13.7535 9.25735C14.8786 8.13213 16.4048 7.5 17.9961 7.5C19.5874 7.5 21.1136 8.13213 22.2387 9.25735C23.364 10.3826 23.9961 11.9087 23.9961 13.5ZM20.9961 13.5C20.9961 14.2957 20.68 15.0587 20.1175 15.6213C19.5548 16.1839 18.7917 16.5 17.9961 16.5C17.2005 16.5 16.4374 16.1839 15.8747 15.6213C15.3122 15.0587 14.9961 14.2957 14.9961 13.5C14.9961 12.7043 15.3122 11.9413 15.8747 11.3787C16.4374 10.8161 17.2005 10.5 17.9961 10.5C18.7917 10.5 19.5548 10.8161 20.1175 11.3787C20.68 11.9413 20.9961 12.7043 20.9961 13.5Z" fill="black" fill-opacity="0.2"/>
<path fill-rule="evenodd" clip-rule="evenodd" d="M23.9961 13.5C23.9961 15.0913 23.364 16.6174 22.2387 17.7427C21.1136 18.8678 19.5874 19.5 17.9961 19.5C16.4048 19.5 14.8786 18.8678 13.7535 17.7427C12.6282 16.6174 11.9961 15.0913 11.9961 13.5C11.9961 11.9087 12.6282 10.3826 13.7535 9.25735C14.8786 8.13213 16.4048 7.5 17.9961 7.5C19.5874 7.5 21.1136 8.13213 22.2387 9.25735C23.364 10.3826 23.9961 11.9087 23.9961 13.5ZM20.9961 13.5C20.9961 14.2957 20.68 15.0587 20.1175 15.6213C19.5548 16.1839 18.7917 16.5 17.9961 16.5C17.2005 16.5 16.4374 16.1839 15.8747 15.6213C15.3122 15.0587 14.9961 14.2957 14.9961 13.5C14.9961 12.7043 15.3122 11.9413 15.8747 11.3787C16.4374 10.8161 17.2005 10.5 17.9961 10.5C18.7917 10.5 19.5548 10.8161 20.1175 11.3787C20.68 11.9413 20.9961 12.7043 20.9961 13.5Z" fill="black" fill-opacity="0.2"/>
<path fill-rule="evenodd" clip-rule="evenodd" d="M18.0039 1.5C8.8914 1.5 1.50391 8.88751 1.50391 18.0001C1.50391 27.1125 8.8914 34.5 18.0039 34.5C27.1165 34.5 34.5039 27.1125 34.5039 18.0001C34.5039 8.88751 27.1165 1.5 18.0039 1.5ZM4.5039 18.0001C4.5039 21.135 5.5734 24.0211 7.3659 26.313C8.62507 24.6602 10.2491 23.3207 12.1114 22.3991C13.9736 21.4775 16.0236 20.9986 18.1014 21C20.1524 20.9976 22.177 21.4637 24.0206 22.3626C25.8642 23.2615 27.4781 24.5695 28.7394 26.187C30.0391 24.4824 30.9142 22.4929 31.2922 20.3829C31.6703 18.273 31.5406 16.1033 30.9136 14.0535C30.2867 12.0037 29.1808 10.1326 27.6871 8.59506C26.1935 7.05754 24.3553 5.8978 22.3244 5.21177C20.2936 4.52574 18.1287 4.33316 16.0087 4.64997C13.8887 4.96677 11.8746 5.78385 10.1331 7.03359C8.39152 8.28333 6.97262 9.92982 5.99374 11.8368C5.01488 13.7438 4.50417 15.8564 4.5039 18.0001ZM18.0039 31.5001C14.9047 31.5051 11.8991 30.4389 9.49591 28.482C10.4631 27.097 11.7507 25.966 13.249 25.1857C14.7473 24.4053 16.412 23.9985 18.1014 24C19.7697 23.9985 21.4142 24.3952 22.8984 25.157C24.3825 25.9188 25.6636 27.0237 26.6349 28.38C24.2131 30.4005 21.1579 31.5049 18.0039 31.5001Z" fill="#14141E"/>
<path fill-rule="evenodd" clip-rule="evenodd" d="M18.0039 1.5C8.8914 1.5 1.50391 8.88751 1.50391 18.0001C1.50391 27.1125 8.8914 34.5 18.0039 34.5C27.1165 34.5 34.5039 27.1125 34.5039 18.0001C34.5039 8.88751 27.1165 1.5 18.0039 1.5ZM4.5039 18.0001C4.5039 21.135 5.5734 24.0211 7.3659 26.313C8.62507 24.6602 10.2491 23.3207 12.1114 22.3991C13.9736 21.4775 16.0236 20.9986 18.1014 21C20.1524 20.9976 22.177 21.4637 24.0206 22.3626C25.8642 23.2615 27.4781 24.5695 28.7394 26.187C30.0391 24.4824 30.9142 22.4929 31.2922 20.3829C31.6703 18.273 31.5406 16.1033 30.9136 14.0535C30.2867 12.0037 29.1808 10.1326 27.6871 8.59506C26.1935 7.05754 24.3553 5.8978 22.3244 5.21177C20.2936 4.52574 18.1287 4.33316 16.0087 4.64997C13.8887 4.96677 11.8746 5.78385 10.1331 7.03359C8.39152 8.28333 6.97262 9.92982 5.99374 11.8368C5.01488 13.7438 4.50417 15.8564 4.5039 18.0001ZM18.0039 31.5001C14.9047 31.5051 11.8991 30.4389 9.49591 28.482C10.4631 27.097 11.7507 25.966 13.249 25.1857C14.7473 24.4053 16.412 23.9985 18.1014 24C19.7697 23.9985 21.4142 24.3952 22.8984 25.157C24.3825 25.9188 25.6636 27.0237 26.6349 28.38C24.2131 30.4005 21.1579 31.5049 18.0039 31.5001Z" fill="black" fill-opacity="0.2"/>
<path fill-rule="evenodd" clip-rule="evenodd" d="M18.0039 1.5C8.8914 1.5 1.50391 8.88751 1.50391 18.0001C1.50391 27.1125 8.8914 34.5 18.0039 34.5C27.1165 34.5 34.5039 27.1125 34.5039 18.0001C34.5039 8.88751 27.1165 1.5 18.0039 1.5ZM4.5039 18.0001C4.5039 21.135 5.5734 24.0211 7.3659 26.313C8.62507 24.6602 10.2491 23.3207 12.1114 22.3991C13.9736 21.4775 16.0236 20.9986 18.1014 21C20.1524 20.9976 22.177 21.4637 24.0206 22.3626C25.8642 23.2615 27.4781 24.5695 28.7394 26.187C30.0391 24.4824 30.9142 22.4929 31.2922 20.3829C31.6703 18.273 31.5406 16.1033 30.9136 14.0535C30.2867 12.0037 29.1808 10.1326 27.6871 8.59506C26.1935 7.05754 24.3553 5.8978 22.3244 5.21177C20.2936 4.52574 18.1287 4.33316 16.0087 4.64997C13.8887 4.96677 11.8746 5.78385 10.1331 7.03359C8.39152 8.28333 6.97262 9.92982 5.99374 11.8368C5.01488 13.7438 4.50417 15.8564 4.5039 18.0001ZM18.0039 31.5001C14.9047 31.5051 11.8991 30.4389 9.49591 28.482C10.4631 27.097 11.7507 25.966 13.249 25.1857C14.7473 24.4053 16.412 23.9985 18.1014 24C19.7697 23.9985 21.4142 24.3952 22.8984 25.157C24.3825 25.9188 25.6636 27.0237 26.6349 28.38C24.2131 30.4005 21.1579 31.5049 18.0039 31.5001Z" fill="black" fill-opacity="0.2"/>
</svg>
