<svg width="26" height="26" viewBox="0 0 26 26" fill="none" xmlns="http://www.w3.org/2000/svg">
<path fill-rule="evenodd" clip-rule="evenodd" d="M1.625 6.5C1.625 4.70507 3.08007 3.25 4.875 3.25H21.125C22.9199 3.25 24.375 4.70507 24.375 6.5V21.125C24.375 22.9199 22.9199 24.375 21.125 24.375H4.875C3.08007 24.375 1.625 22.9199 1.625 21.125V6.5Z" fill="#14141E"/>
<path fill-rule="evenodd" clip-rule="evenodd" d="M6.5 1.625C6.94873 1.625 7.3125 1.98877 7.3125 2.4375V4.0625C7.3125 4.51123 6.94873 4.875 6.5 4.875C6.05127 4.875 5.6875 4.51123 5.6875 4.0625V2.4375C5.6875 1.98877 6.05127 1.625 6.5 1.625Z" fill="#14141E"/>
<path fill-rule="evenodd" clip-rule="evenodd" d="M19.4961 1.625C19.9448 1.625 20.3086 1.98877 20.3086 2.4375V4.0625C20.3086 4.51123 19.9448 4.875 19.4961 4.875C19.0474 4.875 18.6836 4.51123 18.6836 4.0625V2.4375C18.6836 1.98877 19.0474 1.625 19.4961 1.625Z" fill="#14141E"/>
<path d="M8.04248 12.5854H9.02002C9.33317 12.5854 9.59131 12.5326 9.79443 12.4268C9.99756 12.3167 10.1478 12.1644 10.2451 11.9697C10.3467 11.7708 10.3975 11.5402 10.3975 11.2778C10.3975 11.0409 10.3509 10.8314 10.2578 10.6494C10.1689 10.4632 10.0314 10.3193 9.84521 10.2178C9.65902 10.112 9.42415 10.0591 9.14062 10.0591C8.91634 10.0591 8.70898 10.1035 8.51855 10.1924C8.32812 10.2812 8.17578 10.4061 8.06152 10.5669C7.94727 10.7277 7.89014 10.9224 7.89014 11.1509H6.05566C6.05566 10.6431 6.19108 10.2008 6.46191 9.82422C6.73698 9.44759 7.10514 9.15348 7.56641 8.94189C8.02767 8.73031 8.53548 8.62451 9.08984 8.62451C9.71615 8.62451 10.2642 8.72607 10.7339 8.9292C11.2036 9.12809 11.5697 9.4222 11.832 9.81152C12.0944 10.2008 12.2256 10.6833 12.2256 11.2588C12.2256 11.5508 12.1579 11.8343 12.0225 12.1094C11.887 12.3802 11.6924 12.6257 11.4385 12.8457C11.1888 13.0615 10.8841 13.235 10.5244 13.3662C10.1647 13.4932 9.76058 13.5566 9.31201 13.5566H8.04248V12.5854ZM8.04248 13.9756V13.0298H9.31201C9.81559 13.0298 10.2578 13.0869 10.6387 13.2012C11.0195 13.3154 11.339 13.4805 11.5972 13.6963C11.8553 13.9079 12.05 14.1597 12.1812 14.4517C12.3123 14.7394 12.3779 15.0589 12.3779 15.4102C12.3779 15.8418 12.2954 16.2269 12.1304 16.5654C11.9653 16.8997 11.7326 17.1833 11.4321 17.416C11.1359 17.6488 10.7889 17.8265 10.3911 17.9492C9.99333 18.0677 9.55957 18.127 9.08984 18.127C8.70052 18.127 8.31755 18.0741 7.94092 17.9683C7.56852 17.8582 7.22998 17.6953 6.92529 17.4795C6.62484 17.2594 6.38363 16.9844 6.20166 16.6543C6.02393 16.32 5.93506 15.9243 5.93506 15.4673H7.76953C7.76953 15.7043 7.82878 15.9159 7.94727 16.1021C8.06576 16.2882 8.22868 16.4342 8.43604 16.54C8.64762 16.6458 8.88249 16.6987 9.14062 16.6987C9.43262 16.6987 9.68229 16.6458 9.88965 16.54C10.1012 16.43 10.262 16.2777 10.3721 16.083C10.4863 15.8841 10.5435 15.6535 10.5435 15.3911C10.5435 15.0526 10.4821 14.7817 10.3594 14.5786C10.2367 14.3713 10.061 14.2189 9.83252 14.1216C9.604 14.0243 9.33317 13.9756 9.02002 13.9756H8.04248ZM18.0908 8.73877V18H16.2627V10.8462L14.0664 11.5444V10.1035L17.894 8.73877H18.0908Z" fill="white"/>
</svg>
