<svg width="22" height="22" viewBox="0 0 22 22" fill="none" xmlns="http://www.w3.org/2000/svg">
<path fill-rule="evenodd" clip-rule="evenodd" d="M18.5569 10.2166L19.6854 10.4001C19.7688 10.4101 19.8461 10.4494 19.9036 10.5111C19.9612 10.5729 19.9953 10.6532 20 10.7378V11.2508C19.9989 11.3362 19.9671 11.4183 19.9106 11.482C19.8541 11.5456 19.7767 11.5864 19.6928 11.5968L18.5642 11.7803C18.4916 11.7932 18.4248 11.829 18.3735 11.8825C18.3222 11.936 18.289 12.0046 18.2786 12.0783C18.2597 12.2004 18.2375 12.3195 18.2149 12.4408C18.2116 12.4584 18.2084 12.4761 18.2051 12.4938C18.1895 12.5666 18.1974 12.6425 18.2278 12.7103C18.2582 12.7781 18.3094 12.8343 18.3738 12.8704L19.373 13.4306C19.4486 13.4696 19.5075 13.5352 19.5386 13.615C19.5697 13.6949 19.5708 13.7834 19.5417 13.864L19.3687 14.3446C19.3392 14.4251 19.2815 14.4918 19.2065 14.5321C19.1315 14.5724 19.0444 14.5834 18.9619 14.5631L17.8416 14.3446C17.7688 14.3311 17.6936 14.3413 17.6269 14.3735C17.5601 14.4058 17.5052 14.4585 17.4699 14.5242C17.405 14.6512 17.3357 14.7737 17.2622 14.8916C17.2223 14.955 17.2037 15.0297 17.2091 15.1047C17.2146 15.1796 17.2438 15.2507 17.2925 15.3076L18.0406 16.1788C18.0987 16.2411 18.132 16.3228 18.1344 16.4083C18.1368 16.4938 18.1081 16.5772 18.0536 16.6428L17.7295 17.036C17.6748 17.1012 17.5984 17.1438 17.5147 17.156C17.431 17.1681 17.3458 17.1489 17.2751 17.102L16.2968 16.5047C16.2336 16.467 16.1603 16.4504 16.0872 16.4575C16.0142 16.4646 15.9453 16.4949 15.8904 16.5441C15.7866 16.6362 15.6784 16.728 15.5702 16.8154C15.513 16.8619 15.4718 16.9254 15.4524 16.997C15.4329 17.0685 15.4363 17.1444 15.462 17.2138L15.8688 18.2952C15.9035 18.3737 15.9082 18.4624 15.8818 18.5441C15.8554 18.6258 15.7999 18.6947 15.726 18.7374L15.2846 18.9956C15.2109 19.0385 15.1242 19.0524 15.041 19.0349C14.9577 19.0173 14.8838 18.9694 14.8333 18.9003L14.0977 17.9854C13.9895 17.85 13.851 17.85 13.7385 17.8937C13.7283 17.8977 13.718 17.9017 13.7076 17.9057C13.6035 17.9462 13.4883 17.991 13.3231 18.047C13.2531 18.0704 13.1924 18.1156 13.1497 18.1762C13.1069 18.2368 13.0845 18.3095 13.0855 18.3839L13.1028 19.5396C13.1079 19.6255 13.0817 19.7104 13.0291 19.7782C12.9765 19.8459 12.9011 19.8919 12.8172 19.9074L12.3157 19.9948C12.2318 20.0095 12.1454 19.9927 12.0729 19.9475C12.0003 19.9024 11.9467 19.832 11.9219 19.7497L11.5498 18.6574C11.5255 18.5871 11.4798 18.5264 11.4193 18.484C11.3587 18.4415 11.2864 18.4195 11.2127 18.421H10.7886C10.7148 18.419 10.6423 18.4408 10.5816 18.4834C10.521 18.5259 10.4754 18.5869 10.4515 18.6574L10.0794 19.7497C10.0547 19.832 10.001 19.9024 9.92847 19.9475C9.85594 19.9927 9.76957 20.0095 9.68562 19.9948L9.18409 19.9074C9.10021 19.8919 9.02485 19.8459 8.97224 19.7782C8.91963 19.7104 8.8934 19.6255 8.89849 19.5396L8.9158 18.3839C8.91685 18.3095 8.89438 18.2368 8.85165 18.1762C8.80893 18.1156 8.74818 18.0704 8.67824 18.047C8.49649 17.9854 8.39697 17.9505 8.24984 17.8893C8.13301 17.8413 7.98588 17.8893 7.89501 18.0029L7.16847 18.9047C7.11821 18.9736 7.04469 19.0214 6.96183 19.0392C6.87897 19.057 6.79253 19.0435 6.71887 19.0013L6.27749 18.7431C6.20412 18.6999 6.14902 18.631 6.12269 18.5494C6.09636 18.4679 6.10063 18.3795 6.13469 18.3009L6.54145 17.2195C6.5676 17.1502 6.57121 17.0742 6.55176 17.0027C6.53231 16.9311 6.49081 16.8677 6.43327 16.8215C6.32509 16.7337 6.21691 16.6419 6.11306 16.5497C6.05819 16.5005 5.98928 16.4702 5.91624 16.4632C5.84321 16.4561 5.76985 16.4726 5.70673 16.5104L4.72488 17.1059C4.6546 17.154 4.56909 17.1739 4.48506 17.1617C4.40103 17.1495 4.32453 17.1061 4.27052 17.04L3.94641 16.6467C3.89196 16.5812 3.86321 16.4977 3.8656 16.4122C3.868 16.3267 3.90137 16.2451 3.95939 16.1827L4.70757 15.3106C4.75523 15.2533 4.7838 15.1823 4.78924 15.1076C4.79468 15.0329 4.7767 14.9585 4.73786 14.8947C4.6643 14.7721 4.59506 14.6496 4.53016 14.5272C4.49543 14.461 4.44057 14.4079 4.37365 14.3755C4.30672 14.3432 4.23128 14.3334 4.15845 14.3477L3.03813 14.5661C2.95557 14.5871 2.86826 14.5763 2.79311 14.5359C2.71796 14.4956 2.66032 14.4285 2.63137 14.3477L2.45828 13.8671C2.42923 13.7865 2.43036 13.6979 2.46144 13.6181C2.49252 13.5383 2.55141 13.4727 2.62704 13.4336L3.6262 12.8726C3.68996 12.8357 3.74059 12.7795 3.77088 12.7119C3.80118 12.6443 3.8096 12.5687 3.79496 12.496C3.76489 12.3615 3.74334 12.2223 3.72186 12.0835L3.7214 12.0805C3.71152 12.0066 3.67848 11.9377 3.62709 11.8841C3.5757 11.8305 3.50867 11.7949 3.4358 11.7825L2.30726 11.599C2.22242 11.5907 2.14376 11.5505 2.08687 11.4864C2.02997 11.4224 1.99898 11.339 2.00003 11.253V10.7409C2.00117 10.6555 2.03292 10.5734 2.0894 10.5097C2.14588 10.4461 2.22328 10.4053 2.30726 10.3949L3.4358 10.2114C3.50845 10.1985 3.5752 10.1627 3.62649 10.1092C3.67779 10.0557 3.71101 9.98712 3.7214 9.91339C3.7403 9.79126 3.7625 9.67213 3.78512 9.55076C3.78839 9.53319 3.79168 9.51556 3.79496 9.49788C3.81057 9.42513 3.80259 9.34923 3.7722 9.28141C3.74181 9.21359 3.69062 9.15744 3.6262 9.12125L2.62834 8.56069C2.55271 8.52164 2.49381 8.45604 2.46273 8.37622C2.43165 8.2964 2.43053 8.20786 2.45958 8.12727L2.63267 7.64666C2.66211 7.56619 2.71982 7.49947 2.79483 7.45918C2.86983 7.4189 2.95689 7.40787 3.03943 7.4282L4.15975 7.64666C4.23254 7.66012 4.30769 7.65001 4.37445 7.61775C4.44121 7.5855 4.49616 7.53277 4.53145 7.46708C4.59636 7.33863 4.6656 7.21615 4.73916 7.09963C4.77905 7.03622 4.79765 6.96152 4.79219 6.8866C4.78673 6.81168 4.75752 6.74053 4.70887 6.68369L3.96069 5.81247C3.90267 5.75014 3.8693 5.66848 3.8669 5.58296C3.86451 5.49745 3.89326 5.41401 3.94771 5.34847L4.27182 4.95524C4.3265 4.89011 4.40291 4.84744 4.48661 4.83528C4.57032 4.82313 4.65554 4.84233 4.72618 4.88927L5.69375 5.49396C5.75686 5.53173 5.83023 5.54827 5.90326 5.5412C5.97629 5.53413 6.04521 5.50382 6.10008 5.45464C6.20393 5.36245 6.31211 5.27026 6.42029 5.18288C6.47751 5.13646 6.51876 5.07301 6.53819 5.00154C6.55761 4.93008 6.55421 4.85424 6.52847 4.78484L6.12171 3.70347C6.08743 3.62515 6.08305 3.5368 6.10941 3.45541C6.13578 3.37402 6.19102 3.30536 6.26451 3.26262L6.70589 3.0044C6.77935 2.96199 6.86566 2.94821 6.9485 2.96568C7.03134 2.98315 7.10498 3.03066 7.15549 3.09922L7.86991 3.98791C7.98675 4.12379 8.12955 4.15874 8.25071 4.11505C8.35456 4.07573 8.57092 3.99228 8.67045 3.95295C8.74039 3.92963 8.80114 3.88438 8.84386 3.8238C8.88659 3.76322 8.90906 3.69045 8.90801 3.61609L8.89071 2.46044C8.88561 2.37449 8.91184 2.28962 8.96445 2.22185C9.01706 2.15408 9.09242 2.10809 9.1763 2.09256L9.67783 2.00517C9.76178 1.99049 9.84815 2.00731 9.92068 2.05245C9.9932 2.0976 10.0469 2.16796 10.0716 2.25028L10.4437 3.34476C10.468 3.41505 10.5137 3.47577 10.5743 3.51823C10.6348 3.56069 10.7071 3.58271 10.7808 3.58114H11.2049C11.2787 3.58318 11.3512 3.56135 11.4119 3.51883C11.4725 3.4763 11.5181 3.41531 11.542 3.34476L11.9141 2.25028C11.9389 2.16796 11.9925 2.0976 12.0651 2.05245C12.1376 2.00731 12.224 1.99049 12.3079 2.00517L12.8094 2.09256C12.8933 2.10809 12.9687 2.15408 13.0213 2.22185C13.0739 2.28962 13.1001 2.37449 13.095 2.46044L13.0777 3.61609C13.0767 3.69027 13.0991 3.76285 13.1417 3.82334C13.1842 3.88382 13.2447 3.92906 13.3144 3.95252C13.4962 4.01412 13.7385 4.11461 13.7385 4.11461C13.803 4.14081 13.8744 4.14427 13.9412 4.12445C14.0079 4.10464 14.0661 4.06269 14.1063 4.00538L14.8264 3.09485C14.8766 3.026 14.9501 2.97814 15.033 2.96035C15.1159 2.94255 15.2023 2.95605 15.276 2.99829L15.7173 3.25651C15.7906 3.30007 15.8455 3.36936 15.8714 3.45115C15.8974 3.53295 15.8926 3.62152 15.858 3.69998L15.4512 4.78135C15.4251 4.8507 15.4215 4.92665 15.4409 4.99821C15.4604 5.06977 15.5019 5.13322 15.5594 5.17938C15.6676 5.2672 15.7758 5.35895 15.8796 5.45114C15.9345 5.50033 16.0034 5.53064 16.0764 5.53771C16.1495 5.54477 16.2228 5.52823 16.2859 5.49047L17.2678 4.89495C17.3381 4.84686 17.4236 4.82698 17.5076 4.83918C17.5916 4.85138 17.6681 4.89479 17.7221 4.96092L18.0463 5.35415C18.1007 5.41969 18.1295 5.50313 18.1271 5.58864C18.1247 5.67416 18.0913 5.75582 18.0333 5.81815L17.2851 6.68937C17.2374 6.74671 17.2089 6.81775 17.2034 6.8924C17.198 6.96706 17.216 7.04155 17.2548 7.10531C17.3284 7.22794 17.3976 7.35043 17.4625 7.47276C17.4972 7.53896 17.5521 7.59214 17.619 7.62447C17.6859 7.6568 17.7614 7.66657 17.8342 7.65234L18.9545 7.43388C19.0371 7.41295 19.1244 7.42371 19.1996 7.46407C19.2747 7.50443 19.3323 7.57152 19.3613 7.65234L19.5344 8.13295C19.5634 8.21354 19.5623 8.30208 19.5312 8.3819C19.5002 8.46172 19.4413 8.52732 19.3656 8.56637L18.3665 9.1265C18.3027 9.1634 18.2521 9.21965 18.2218 9.28726C18.1915 9.35487 18.1831 9.4304 18.1977 9.50312C18.2278 9.63757 18.2493 9.77675 18.2708 9.91554L18.2713 9.91863C18.2811 9.99257 18.3142 10.0614 18.3656 10.115C18.417 10.1686 18.484 10.2042 18.5569 10.2166ZM11 17.75C14.7279 17.75 17.75 14.7279 17.75 11C17.75 7.27208 14.7279 4.25 11 4.25C7.27208 4.25 4.25 7.27208 4.25 11C4.25 14.7279 7.27208 17.75 11 17.75Z" fill="#CE72DF"/>
<circle cx="11" cy="11" r="6.5" stroke="#CE72DF" stroke-width="0.5"/>
<path fill-rule="evenodd" clip-rule="evenodd" d="M10.625 6C10.9702 6 11.25 6.27982 11.25 6.625V10.625H13.375C13.7202 10.625 14 10.9048 14 11.25C14 11.5952 13.7202 11.875 13.375 11.875H10.625C10.2798 11.875 10 11.5952 10 11.25V6.625C10 6.27982 10.2798 6 10.625 6Z" fill="#CE72DF"/>
</svg>
