<svg width="18" height="18" viewBox="0 0 18 18" fill="none" xmlns="http://www.w3.org/2000/svg">
<g clip-path="url(#clip0_2110_127)">
<mask id="mask0_2110_127" style="mask-type:luminance" maskUnits="userSpaceOnUse" x="0" y="0" width="18" height="18">
<path d="M18 0H0V18H18V0Z" fill="white"/>
</mask>
<g mask="url(#mask0_2110_127)">
<path d="M18 9C18 4.02944 13.9706 0 9 0C4.02944 0 0 4.02944 0 9C0 13.9706 4.02944 18 9 18C13.9706 18 18 13.9706 18 9Z" fill="#1C1C1E"/>
<path fill-rule="evenodd" clip-rule="evenodd" d="M5.73972 14.286C5.09543 14.286 3.71666 13.7027 4.05169 12.221C4.37383 10.7276 5.62374 8.32422 8.9998 8.32422C12.3759 8.32422 13.6258 10.7276 13.9479 12.221C14.283 13.7027 12.9171 14.286 12.2599 14.286H5.73972Z" fill="white"/>
<path d="M9.00222 7.41047C10.1857 7.41047 11.1451 6.48699 11.1451 5.34781C11.1451 4.20864 10.1857 3.28516 9.00222 3.28516C7.81875 3.28516 6.85938 4.20864 6.85938 5.34781C6.85938 6.48699 7.81875 7.41047 9.00222 7.41047Z" fill="white"/>
</g>
</g>
<defs>
<clipPath id="clip0_2110_127">
<rect width="18" height="18" fill="white"/>
</clipPath>
</defs>
</svg>
