<svg width="24" height="24" viewBox="0 0 24 24" fill="none" xmlns="http://www.w3.org/2000/svg">
<path d="M14.3982 1.18186C14.1296 1.32156 13.7606 1.80156 13.5743 2.25648C13.3702 2.75081 13.277 3.48872 13.3487 4.01887L13.3809 4.25887L11.0454 6.59439L8.70628 8.9335L8.3015 8.85469C7.66747 8.7329 7.29493 8.69708 6.67881 8.69708C5.5827 8.69708 4.73374 8.9335 4.02807 9.43857C3.45852 9.84693 3.29374 10.1944 3.47643 10.6028C3.53016 10.7245 4.05314 11.269 5.70449 12.9239L7.8609 15.0839L5.10986 17.8278C3.59464 19.3359 2.29792 20.6541 2.2227 20.7544C1.83225 21.281 1.77135 21.6822 2.03643 21.9365C2.26568 22.155 2.61673 22.0834 3.19702 21.6965C3.48001 21.5102 3.90628 21.1019 6.19523 18.8165C7.66389 17.355 8.8818 16.155 8.89971 16.155C8.91762 16.155 9.9027 17.1222 11.0848 18.3042C12.5749 19.7908 13.2734 20.4678 13.3666 20.5072C13.5528 20.5825 13.8358 20.5753 13.997 20.4929C14.3373 20.3174 14.7743 19.6941 15.0072 19.0636C15.2149 18.4941 15.2722 18.118 15.2722 17.2833C15.2758 16.5275 15.2328 16.1335 15.0896 15.5138L15.0394 15.281L17.3678 12.9526L19.6997 10.6207H20.3696C20.9033 10.6207 21.0896 10.6063 21.2722 10.5562C21.7952 10.4129 22.1821 10.2087 22.5367 9.88633C22.8591 9.59618 22.9451 9.35977 22.8448 9.0123C22.809 8.88335 22.3146 8.37469 19.0406 5.08992C16.9702 3.01589 15.2042 1.27141 15.1182 1.21409C14.9857 1.12812 14.9212 1.11021 14.7421 1.11021C14.5988 1.1138 14.477 1.13529 14.3982 1.18186ZM20.8675 9.10544C20.7528 9.16992 20.2872 9.1735 19.9863 9.11618C19.4812 9.01589 19.406 9.0123 19.2125 9.09469C19.0621 9.15917 18.5928 9.6141 16.3039 11.9031C14.3982 13.8123 13.56 14.672 13.5206 14.7651C13.4418 14.955 13.4525 15.1233 13.5743 15.6033C13.8466 16.6995 13.8645 17.7705 13.6245 18.4977L13.5672 18.6732L9.45135 14.5574C7.18747 12.2935 5.33553 10.4308 5.33553 10.4201C5.33553 10.4093 5.45374 10.3628 5.59702 10.3233C6.35643 10.1013 7.32717 10.1371 8.46628 10.4272C8.9212 10.5454 9.03941 10.5454 9.27583 10.4236C9.46926 10.3198 14.8137 4.9538 14.8818 4.7926C14.9499 4.62783 14.9499 4.38066 14.8818 4.10126C14.8281 3.87917 14.8102 3.35618 14.8496 3.152C14.8746 3.03738 14.8925 3.05529 17.8943 6.05708C20.083 8.24574 20.9033 9.08753 20.8675 9.10544Z" fill="white"/>
</svg>
