<svg width="22" height="22" viewBox="0 0 22 22" fill="none" xmlns="http://www.w3.org/2000/svg">
<path fill-rule="evenodd" clip-rule="evenodd" d="M4.75 4.75C4.05964 4.75 3.5 5.30964 3.5 6V17.25C3.5 17.9404 4.05964 18.5 4.75 18.5H17.25C17.9404 18.5 18.5 17.9404 18.5 17.25V6C18.5 5.30964 17.9404 4.75 17.25 4.75H4.75ZM2.25 6C2.25 4.61929 3.36929 3.5 4.75 3.5H17.25C18.6307 3.5 19.75 4.61929 19.75 6V17.25C19.75 18.6307 18.6307 19.75 17.25 19.75H4.75C3.36929 19.75 2.25 18.6307 2.25 17.25V6Z" fill="#8767E4"/>
<path fill-rule="evenodd" clip-rule="evenodd" d="M6 2.25C6.34518 2.25 6.625 2.52982 6.625 2.875V4.125C6.625 4.47018 6.34518 4.75 6 4.75C5.65482 4.75 5.375 4.47018 5.375 4.125V2.875C5.375 2.52982 5.65482 2.25 6 2.25Z" fill="#8767E4"/>
<path fill-rule="evenodd" clip-rule="evenodd" d="M16 2.25C16.3452 2.25 16.625 2.52982 16.625 2.875V4.125C16.625 4.47018 16.3452 4.75 16 4.75C15.6548 4.75 15.375 4.47018 15.375 4.125V2.875C15.375 2.52982 15.6548 2.25 16 2.25Z" fill="#8767E4"/>
<path fill-rule="evenodd" clip-rule="evenodd" d="M2.25 7.25C2.25 6.90482 2.52982 6.625 2.875 6.625H19.125C19.4702 6.625 19.75 6.90482 19.75 7.25C19.75 7.59518 19.4702 7.875 19.125 7.875H2.875C2.52982 7.875 2.25 7.59518 2.25 7.25Z" fill="#8767E4"/>
</svg>
