<svg width="18" height="18" viewBox="0 0 18 18" fill="none" xmlns="http://www.w3.org/2000/svg">
<g clip-path="url(#clip0_2109_115)">
<mask id="mask0_2109_115" style="mask-type:luminance" maskUnits="userSpaceOnUse" x="0" y="0" width="18" height="18">
<path d="M18 0H0V18H18V0Z" fill="white"/>
</mask>
<g mask="url(#mask0_2109_115)">
<mask id="mask1_2109_115" style="mask-type:luminance" maskUnits="userSpaceOnUse" x="0" y="0" width="18" height="18">
<path d="M18 0H0V18H18V0Z" fill="white"/>
</mask>
<g mask="url(#mask1_2109_115)">
<path fill-rule="evenodd" clip-rule="evenodd" d="M0 9C0 4.03111 4.03111 0 9 0C13.9689 0 18 4.03111 18 9C18 13.9689 13.9689 18 9 18C4.03111 18 0 13.9689 0 9ZM9 1.38462C4.79581 1.38462 1.38462 4.79581 1.38462 9C1.38462 13.2042 4.79581 16.6154 9 16.6154C13.2042 16.6154 16.6154 13.2042 16.6154 9C16.6154 4.79581 13.2042 1.38462 9 1.38462Z" fill="black"/>
<path fill-rule="evenodd" clip-rule="evenodd" d="M5.23431 5.23431C5.54673 4.9219 6.05327 4.9219 6.36569 5.23431L12.7657 11.6343C13.0781 11.9467 13.0781 12.4533 12.7657 12.7657C12.4533 13.0781 11.9467 13.0781 11.6343 12.7657L5.23431 6.36569C4.9219 6.05327 4.9219 5.54673 5.23431 5.23431Z" fill="black"/>
<path fill-rule="evenodd" clip-rule="evenodd" d="M12.7657 5.23431C13.0781 5.54673 13.0781 6.05327 12.7657 6.36569L6.36569 12.7657C6.05327 13.0781 5.54673 13.0781 5.23431 12.7657C4.9219 12.4533 4.9219 11.9467 5.23431 11.6343L11.6343 5.23431C11.9467 4.9219 12.4533 4.9219 12.7657 5.23431Z" fill="black"/>
</g>
</g>
</g>
<defs>
<clipPath id="clip0_2109_115">
<rect width="18" height="18" fill="white"/>
</clipPath>
</defs>
</svg>
