<svg width="128" height="244" viewBox="0 0 128 244" fill="none" xmlns="http://www.w3.org/2000/svg">
<g clip-path="url(#clip0_1283_178)">
<path d="M120 2.5H8C4.96243 2.5 2.5 4.96243 2.5 8V236C2.5 239.038 4.96243 241.5 8 241.5H120C123.038 241.5 125.5 239.038 125.5 236V8C125.5 4.96243 123.038 2.5 120 2.5Z" fill="#14141E"/>
<path d="M120 2.5H8C4.96243 2.5 2.5 4.96243 2.5 8V236C2.5 239.038 4.96243 241.5 8 241.5H120C123.038 241.5 125.5 239.038 125.5 236V8C125.5 4.96243 123.038 2.5 120 2.5Z" fill="black" fill-opacity="0.2"/>
<path d="M120 2.5H8C4.96243 2.5 2.5 4.96243 2.5 8V236C2.5 239.038 4.96243 241.5 8 241.5H120C123.038 241.5 125.5 239.038 125.5 236V8C125.5 4.96243 123.038 2.5 120 2.5Z" fill="black" fill-opacity="0.2"/>
<path d="M120 2.5H8C4.96243 2.5 2.5 4.96243 2.5 8V236C2.5 239.038 4.96243 241.5 8 241.5H120C123.038 241.5 125.5 239.038 125.5 236V8C125.5 4.96243 123.038 2.5 120 2.5Z" stroke="#8A8A96" stroke-width="5"/>
<g filter="url(#filter0_d_1283_178)">
<mask id="mask0_1283_178" style="mask-type:luminance" maskUnits="userSpaceOnUse" x="5" y="5" width="118" height="234">
<path d="M113 5H15C9.47715 5 5 9.47715 5 15V229C5 234.523 9.47715 239 15 239H113C118.523 239 123 234.523 123 229V15C123 9.47715 118.523 5 113 5Z" fill="white"/>
</mask>
<g mask="url(#mask0_1283_178)">
<path d="M123 -13.5117H5V238.999H123V-13.5117Z" fill="#1C1C1E"/>
<path d="M10 15C10 9.477 14.4772 5 20 5H108C113.523 5 118 9.477 118 15V239H10V15Z" fill="#1C1C1E"/>
<path d="M57 20H13C11.3431 20 10 21.3431 10 23V25C10 26.6569 11.3431 28 13 28H57C58.6569 28 60 26.6569 60 25V23C60 21.3431 58.6569 20 57 20Z" fill="#A4A4B2"/>
</g>
</g>
<path d="M25.4 36.5H13C11.6193 36.5 10.5 37.6193 10.5 39C10.5 40.3807 11.6193 41.5 13 41.5H25.4C26.7807 41.5 27.9 40.3807 27.9 39C27.9 37.6193 26.7807 36.5 25.4 36.5Z" fill="white" stroke="white"/>
<path d="M47.7984 36H35.3984C33.7416 36 32.3984 37.3431 32.3984 39C32.3984 40.6569 33.7416 42 35.3984 42H47.7984C49.4553 42 50.7984 40.6569 50.7984 39C50.7984 37.3431 49.4553 36 47.7984 36Z" fill="#A4A4B2"/>
<path d="M70.2008 36H57.8008C56.1439 36 54.8008 37.3431 54.8008 39C54.8008 40.6569 56.1439 42 57.8008 42H70.2008C71.8576 42 73.2008 40.6569 73.2008 39C73.2008 37.3431 71.8576 36 70.2008 36Z" fill="#A4A4B2"/>
<path d="M92.5992 36H80.1992C78.5424 36 77.1992 37.3431 77.1992 39C77.1992 40.6569 78.5424 42 80.1992 42H92.5992C94.2561 42 95.5992 40.6569 95.5992 39C95.5992 37.3431 94.2561 36 92.5992 36Z" fill="#A4A4B2"/>
<path d="M115.002 36H102.602C100.945 36 99.6016 37.3431 99.6016 39C99.6016 40.6569 100.945 42 102.602 42H115.002C116.658 42 118.002 40.6569 118.002 39C118.002 37.3431 116.658 36 115.002 36Z" fill="#A4A4B2"/>
<path d="M19 53.5H12.5C11.3954 53.5 10.5 54.3954 10.5 55.5C10.5 56.6046 11.3954 57.5 12.5 57.5H19C20.1046 57.5 21 56.6046 21 55.5C21 54.3954 20.1046 53.5 19 53.5Z" fill="white"/>
<path d="M19 53.5H12.5C11.3954 53.5 10.5 54.3954 10.5 55.5C10.5 56.6046 11.3954 57.5 12.5 57.5H19C20.1046 57.5 21 56.6046 21 55.5C21 54.3954 20.1046 53.5 19 53.5Z" stroke="white"/>
<path d="M35.5 53.5H29C27.8954 53.5 27 54.3954 27 55.5C27 56.6046 27.8954 57.5 29 57.5H35.5C36.6046 57.5 37.5 56.6046 37.5 55.5C37.5 54.3954 36.6046 53.5 35.5 53.5Z" fill="#A4A4B2"/>
<path d="M35.5 53.5H29C27.8954 53.5 27 54.3954 27 55.5C27 56.6046 27.8954 57.5 29 57.5H35.5C36.6046 57.5 37.5 56.6046 37.5 55.5C37.5 54.3954 36.6046 53.5 35.5 53.5Z" stroke="#A4A4B2"/>
<path d="M52 53.5H45.5C44.3954 53.5 43.5 54.3954 43.5 55.5C43.5 56.6046 44.3954 57.5 45.5 57.5H52C53.1046 57.5 54 56.6046 54 55.5C54 54.3954 53.1046 53.5 52 53.5Z" fill="#A4A4B2"/>
<path d="M52 53.5H45.5C44.3954 53.5 43.5 54.3954 43.5 55.5C43.5 56.6046 44.3954 57.5 45.5 57.5H52C53.1046 57.5 54 56.6046 54 55.5C54 54.3954 53.1046 53.5 52 53.5Z" stroke="#A4A4B2"/>
<path d="M68.5 53.5H62C60.8954 53.5 60 54.3954 60 55.5C60 56.6046 60.8954 57.5 62 57.5H68.5C69.6046 57.5 70.5 56.6046 70.5 55.5C70.5 54.3954 69.6046 53.5 68.5 53.5Z" fill="#A4A4B2"/>
<path d="M68.5 53.5H62C60.8954 53.5 60 54.3954 60 55.5C60 56.6046 60.8954 57.5 62 57.5H68.5C69.6046 57.5 70.5 56.6046 70.5 55.5C70.5 54.3954 69.6046 53.5 68.5 53.5Z" stroke="#A4A4B2"/>
<path d="M44.5 68H12.5C11.1193 68 10 69.1193 10 70.5C10 71.8807 11.1193 73 12.5 73H44.5C45.8807 73 47 71.8807 47 70.5C47 69.1193 45.8807 68 44.5 68Z" fill="#A4A4B2"/>
<path d="M8 79C8 77.343 9.3431 76 11 76H117C118.657 76 120 77.343 120 79V90H8V79Z" fill="#1C1C1E"/>
<path d="M20 79.5H14C13.7239 79.5 13.5 79.7239 13.5 80V86C13.5 86.2761 13.7239 86.5 14 86.5H20C20.2761 86.5 20.5 86.2761 20.5 86V80C20.5 79.7239 20.2761 79.5 20 79.5Z" stroke="#14141E"/>
<path d="M20 79.5H14C13.7239 79.5 13.5 79.7239 13.5 80V86C13.5 86.2761 13.7239 86.5 14 86.5H20C20.2761 86.5 20.5 86.2761 20.5 86V80C20.5 79.7239 20.2761 79.5 20 79.5Z" stroke="black" stroke-opacity="0.2"/>
<path d="M20 79.5H14C13.7239 79.5 13.5 79.7239 13.5 80V86C13.5 86.2761 13.7239 86.5 14 86.5H20C20.2761 86.5 20.5 86.2761 20.5 86V80C20.5 79.7239 20.2761 79.5 20 79.5Z" stroke="black" stroke-opacity="0.2"/>
<path d="M69.5 80.5H31.5C30.1193 80.5 29 81.6193 29 83C29 84.3807 30.1193 85.5 31.5 85.5H69.5C70.8807 85.5 72 84.3807 72 83C72 81.6193 70.8807 80.5 69.5 80.5Z" fill="#A4A4B2"/>
<path d="M120 90H8V104H120V90Z" fill="#1C1C1E"/>
<path d="M20 93.5H14C13.7239 93.5 13.5 93.7239 13.5 94V100C13.5 100.276 13.7239 100.5 14 100.5H20C20.2761 100.5 20.5 100.276 20.5 100V94C20.5 93.7239 20.2761 93.5 20 93.5Z" stroke="#14141E"/>
<path d="M20 93.5H14C13.7239 93.5 13.5 93.7239 13.5 94V100C13.5 100.276 13.7239 100.5 14 100.5H20C20.2761 100.5 20.5 100.276 20.5 100V94C20.5 93.7239 20.2761 93.5 20 93.5Z" stroke="black" stroke-opacity="0.2"/>
<path d="M20 93.5H14C13.7239 93.5 13.5 93.7239 13.5 94V100C13.5 100.276 13.7239 100.5 14 100.5H20C20.2761 100.5 20.5 100.276 20.5 100V94C20.5 93.7239 20.2761 93.5 20 93.5Z" stroke="black" stroke-opacity="0.2"/>
<path d="M88.5 94.5H31.5C30.1193 94.5 29 95.6193 29 97C29 98.3807 30.1193 99.5 31.5 99.5H88.5C89.8807 99.5 91 98.3807 91 97C91 95.6193 89.8807 94.5 88.5 94.5Z" fill="#A4A4B2"/>
<path d="M8 104H120V115C120 116.657 118.657 118 117 118H11C9.3431 118 8 116.657 8 115V104Z" fill="#1C1C1E"/>
<path d="M20 107.5H14C13.7239 107.5 13.5 107.724 13.5 108V114C13.5 114.276 13.7239 114.5 14 114.5H20C20.2761 114.5 20.5 114.276 20.5 114V108C20.5 107.724 20.2761 107.5 20 107.5Z" stroke="#14141E"/>
<path d="M20 107.5H14C13.7239 107.5 13.5 107.724 13.5 108V114C13.5 114.276 13.7239 114.5 14 114.5H20C20.2761 114.5 20.5 114.276 20.5 114V108C20.5 107.724 20.2761 107.5 20 107.5Z" stroke="black" stroke-opacity="0.2"/>
<path d="M20 107.5H14C13.7239 107.5 13.5 107.724 13.5 108V114C13.5 114.276 13.7239 114.5 14 114.5H20C20.2761 114.5 20.5 114.276 20.5 114V108C20.5 107.724 20.2761 107.5 20 107.5Z" stroke="black" stroke-opacity="0.2"/>
<path d="M69.5 108.5H31.5C30.1193 108.5 29 109.619 29 111C29 112.381 30.1193 113.5 31.5 113.5H69.5C70.8807 113.5 72 112.381 72 111C72 109.619 70.8807 108.5 69.5 108.5Z" fill="#A4A4B2"/>
<path d="M8 5H120C121.657 5 123 6.34315 123 8V236C123 237.657 121.657 239 120 239H8C6.34315 239 5 237.657 5 236V8C5 6.34315 6.34315 5 8 5Z" fill="#0D0D10" fill-opacity="0.6"/>
<g filter="url(#filter1_d_1283_178)">
<mask id="mask1_1283_178" style="mask-type:luminance" maskUnits="userSpaceOnUse" x="5" y="149" width="118" height="90">
<path d="M120 149H8C6.34315 149 5 150.343 5 152V236C5 237.657 6.34315 239 8 239H120C121.657 239 123 237.657 123 236V152C123 150.343 121.657 149 120 149Z" fill="white"/>
</mask>
<g mask="url(#mask1_1283_178)">
<mask id="mask2_1283_178" style="mask-type:luminance" maskUnits="userSpaceOnUse" x="5" y="106" width="118" height="133">
<path d="M123 106H5V239H123V106Z" fill="white"/>
</mask>
<g mask="url(#mask2_1283_178)">
<path d="M123 117.758H5V239H123V117.758Z" fill="#3C3C42"/>
</g>
<path d="M70.2008 156H57.8008C57.2485 156 56.8008 156.448 56.8008 157C56.8008 157.552 57.2485 158 57.8008 158H70.2008C70.7531 158 71.2008 157.552 71.2008 157C71.2008 156.448 70.7531 156 70.2008 156Z" fill="#A4A4B2"/>
<path d="M5 174C5 168.477 9.4772 164 15 164H113C118.523 164 123 168.477 123 174V221.878H5V174Z" fill="#3C3C42"/>
<path d="M95.5 168H12.5C11.1193 168 10 169.119 10 170.5C10 171.881 11.1193 173 12.5 173H95.5C96.8807 173 98 171.881 98 170.5C98 169.119 96.8807 168 95.5 168Z" fill="#A4A4B2"/>
<path d="M63.5 181H12.5C11.1193 181 10 182.119 10 183.5C10 184.881 11.1193 186 12.5 186H63.5C64.8807 186 66 184.881 66 183.5C66 182.119 64.8807 181 63.5 181Z" fill="#A4A4B2"/>
<path d="M20 203H11C10.4477 203 10 203.448 10 204V213C10 213.552 10.4477 214 11 214H20C20.5523 214 21 213.552 21 213V204C21 203.448 20.5523 203 20 203Z" fill="#A4A4B2"/>
<path d="M35 203H26C25.4477 203 25 203.448 25 204V213C25 213.552 25.4477 214 26 214H35C35.5523 214 36 213.552 36 213V204C36 203.448 35.5523 203 35 203Z" fill="#A4A4B2"/>
<path d="M50 203H41C40.4477 203 40 203.448 40 204V213C40 213.552 40.4477 214 41 214H50C50.5523 214 51 213.552 51 213V204C51 203.448 50.5523 203 50 203Z" fill="#A4A4B2"/>
<mask id="mask3_1283_178" style="mask-type:luminance" maskUnits="userSpaceOnUse" x="100" y="203" width="10" height="10">
<path d="M110 203H100V213H110V203Z" fill="white"/>
</mask>
<g mask="url(#mask3_1283_178)">
<path fill-rule="evenodd" clip-rule="evenodd" d="M105 213C102.238 213 100 210.762 100 208C100 205.238 102.238 203 105 203C107.762 203 110 205.238 110 208C110 210.762 107.762 213 105 213ZM104.411 209.07L103.029 207.687L102.5 208.216L104.06 209.776C104.153 209.87 104.28 209.922 104.413 209.922C104.546 209.922 104.673 209.87 104.766 209.776L107.743 206.801L107.212 206.27L104.411 209.07Z" fill="#A4A4B2"/>
</g>
</g>
</g>
</g>
<defs>
<filter id="filter0_d_1283_178" x="-95" y="-95" width="318" height="434" filterUnits="userSpaceOnUse" color-interpolation-filters="sRGB">
<feFlood flood-opacity="0" result="BackgroundImageFix"/>
<feColorMatrix in="SourceAlpha" type="matrix" values="0 0 0 0 0 0 0 0 0 0 0 0 0 0 0 0 0 0 127 0" result="hardAlpha"/>
<feOffset/>
<feGaussianBlur stdDeviation="50"/>
<feComposite in2="hardAlpha" operator="out"/>
<feColorMatrix type="matrix" values="0 0 0 0 0 0 0 0 0 0 0 0 0 0 0 0 0 0 0.05 0"/>
<feBlend mode="normal" in2="BackgroundImageFix" result="effect1_dropShadow_1283_178"/>
<feBlend mode="normal" in="SourceGraphic" in2="effect1_dropShadow_1283_178" result="shape"/>
</filter>
<filter id="filter1_d_1283_178" x="-95" y="49" width="318" height="290" filterUnits="userSpaceOnUse" color-interpolation-filters="sRGB">
<feFlood flood-opacity="0" result="BackgroundImageFix"/>
<feColorMatrix in="SourceAlpha" type="matrix" values="0 0 0 0 0 0 0 0 0 0 0 0 0 0 0 0 0 0 127 0" result="hardAlpha"/>
<feOffset/>
<feGaussianBlur stdDeviation="50"/>
<feComposite in2="hardAlpha" operator="out"/>
<feColorMatrix type="matrix" values="0 0 0 0 0 0 0 0 0 0 0 0 0 0 0 0 0 0 0.05 0"/>
<feBlend mode="normal" in2="BackgroundImageFix" result="effect1_dropShadow_1283_178"/>
<feBlend mode="normal" in="SourceGraphic" in2="effect1_dropShadow_1283_178" result="shape"/>
</filter>
<clipPath id="clip0_1283_178">
<rect width="128" height="244" fill="white"/>
</clipPath>
</defs>
</svg>
