<svg width="26" height="26" viewBox="0 0 26 26" fill="none" xmlns="http://www.w3.org/2000/svg">
<path fill-rule="evenodd" clip-rule="evenodd" d="M4.875 4.875C3.97754 4.875 3.25 5.60254 3.25 6.5V21.125C3.25 22.0225 3.97754 22.75 4.875 22.75H21.125C22.0225 22.75 22.75 22.0225 22.75 21.125V6.5C22.75 5.60254 22.0225 4.875 21.125 4.875H4.875ZM1.625 6.5C1.625 4.70507 3.08007 3.25 4.875 3.25H21.125C22.9199 3.25 24.375 4.70507 24.375 6.5V21.125C24.375 22.9199 22.9199 24.375 21.125 24.375H4.875C3.08007 24.375 1.625 22.9199 1.625 21.125V6.5Z" fill="#A4A4B2"/>
<path fill-rule="evenodd" clip-rule="evenodd" d="M6.5 1.625C6.94873 1.625 7.3125 1.98877 7.3125 2.4375V4.0625C7.3125 4.51123 6.94873 4.875 6.5 4.875C6.05127 4.875 5.6875 4.51123 5.6875 4.0625V2.4375C5.6875 1.98877 6.05127 1.625 6.5 1.625Z" fill="#A4A4B2"/>
<path fill-rule="evenodd" clip-rule="evenodd" d="M19.4961 1.625C19.9448 1.625 20.3086 1.98877 20.3086 2.4375V4.0625C20.3086 4.51123 19.9448 4.875 19.4961 4.875C19.0474 4.875 18.6836 4.51123 18.6836 4.0625V2.4375C18.6836 1.98877 19.0474 1.625 19.4961 1.625Z" fill="#A4A4B2"/>
<path d="M10.626 8.73877V18H8.79785V10.8462L6.60156 11.5444V10.1035L10.4292 8.73877H10.626ZM20.1094 14.5469V15.9814H13.4507L13.3618 14.8706L17.2148 8.75781H18.6685L17.0942 11.3921L15.1772 14.5469H20.1094ZM19.062 8.75781V18H17.2339V8.75781H19.062Z" fill="#A4A4B2"/>
</svg>
