<svg width="26" height="26" viewBox="0 0 26 26" fill="none" xmlns="http://www.w3.org/2000/svg">
<path fill-rule="evenodd" clip-rule="evenodd" d="M1.625 6.5C1.625 4.70507 3.08007 3.25 4.875 3.25H21.125C22.9199 3.25 24.375 4.70507 24.375 6.5V21.125C24.375 22.9199 22.9199 24.375 21.125 24.375H4.875C3.08007 24.375 1.625 22.9199 1.625 21.125V6.5Z" fill="white"/>
<path fill-rule="evenodd" clip-rule="evenodd" d="M6.5 1.625C6.94873 1.625 7.3125 1.98877 7.3125 2.4375V4.0625C7.3125 4.51123 6.94873 4.875 6.5 4.875C6.05127 4.875 5.6875 4.51123 5.6875 4.0625V2.4375C5.6875 1.98877 6.05127 1.625 6.5 1.625Z" fill="white"/>
<path fill-rule="evenodd" clip-rule="evenodd" d="M19.4961 1.625C19.9448 1.625 20.3086 1.98877 20.3086 2.4375V4.0625C20.3086 4.51123 19.9448 4.875 19.4961 4.875C19.0474 4.875 18.6836 4.51123 18.6836 4.0625V2.4375C18.6836 1.98877 19.0474 1.625 19.4961 1.625Z" fill="white"/>
<path d="M12.4922 16.5718V18H6.16992V16.7812L9.15967 13.5757C9.46012 13.2414 9.6971 12.9473 9.87061 12.6934C10.0441 12.4352 10.1689 12.2046 10.2451 12.0015C10.3255 11.7941 10.3657 11.5973 10.3657 11.4111C10.3657 11.1318 10.3192 10.8927 10.2261 10.6938C10.133 10.4907 9.99544 10.3341 9.81348 10.2241C9.63574 10.1141 9.41569 10.0591 9.15332 10.0591C8.87402 10.0591 8.63281 10.1268 8.42969 10.2622C8.23079 10.3976 8.07845 10.5859 7.97266 10.8271C7.87109 11.0684 7.82031 11.3413 7.82031 11.646H5.98584C5.98584 11.0959 6.11702 10.5923 6.37939 10.1353C6.64176 9.67399 7.01204 9.30794 7.49023 9.03711C7.96842 8.76204 8.53548 8.62451 9.19141 8.62451C9.83887 8.62451 10.3848 8.73031 10.8291 8.94189C11.2777 9.14925 11.6162 9.44971 11.8447 9.84326C12.0775 10.2326 12.1938 10.6981 12.1938 11.2397C12.1938 11.5444 12.1452 11.8428 12.0479 12.1348C11.9505 12.4225 11.8109 12.7103 11.6289 12.998C11.4512 13.2816 11.2354 13.5693 10.9814 13.8613C10.7275 14.1533 10.4461 14.4559 10.1372 14.769L8.53125 16.5718H12.4922ZM18.3511 8.6626H18.6177V10.1226H18.5098C18.0273 10.1226 17.5978 10.1945 17.2212 10.3384C16.8446 10.4823 16.5251 10.6875 16.2627 10.9541C16.0046 11.2165 15.8057 11.5339 15.666 11.9062C15.5306 12.2786 15.4629 12.6955 15.4629 13.1567V14.6929C15.4629 15.0229 15.4946 15.3149 15.5581 15.5688C15.6258 15.8185 15.721 16.028 15.8438 16.1973C15.9707 16.3623 16.1188 16.4871 16.2881 16.5718C16.4574 16.6522 16.6478 16.6924 16.8594 16.6924C17.0583 16.6924 17.2381 16.6501 17.3989 16.5654C17.564 16.4808 17.7036 16.3623 17.8179 16.21C17.9364 16.0534 18.0252 15.8714 18.0845 15.6641C18.1479 15.4525 18.1797 15.2218 18.1797 14.9722C18.1797 14.7225 18.1479 14.4919 18.0845 14.2803C18.0252 14.0687 17.9364 13.8867 17.8179 13.7344C17.6994 13.5778 17.5555 13.4572 17.3862 13.3726C17.217 13.2879 17.0265 13.2456 16.8149 13.2456C16.5272 13.2456 16.2733 13.3133 16.0532 13.4487C15.8374 13.5799 15.6681 13.7492 15.5454 13.9565C15.4227 14.1639 15.3571 14.3818 15.3486 14.6104L14.7964 14.2549C14.8091 13.929 14.8768 13.6201 14.9995 13.3281C15.1265 13.0361 15.3 12.778 15.52 12.5537C15.7443 12.3252 16.013 12.1475 16.3262 12.0205C16.6393 11.8893 16.9927 11.8237 17.3862 11.8237C17.8179 11.8237 18.1966 11.9062 18.5225 12.0713C18.8525 12.2363 19.1276 12.4627 19.3477 12.7505C19.5677 13.0382 19.7327 13.3704 19.8428 13.7471C19.9528 14.1237 20.0078 14.5257 20.0078 14.9531C20.0078 15.4017 19.9338 15.8185 19.7856 16.2036C19.6418 16.5887 19.4323 16.9251 19.1572 17.2129C18.8864 17.5007 18.5605 17.7249 18.1797 17.8857C17.7988 18.0465 17.3714 18.127 16.8975 18.127C16.4066 18.127 15.9601 18.0381 15.5581 17.8604C15.1603 17.6784 14.8175 17.4245 14.5298 17.0986C14.242 16.7728 14.0199 16.3856 13.8633 15.937C13.7109 15.4884 13.6348 14.9976 13.6348 14.4644V13.7534C13.6348 13.0086 13.7427 12.3273 13.9585 11.7095C14.1785 11.0874 14.4938 10.55 14.9043 10.0972C15.3148 9.64014 15.8099 9.28678 16.3896 9.03711C16.9694 8.78743 17.6232 8.6626 18.3511 8.6626Z" fill="#1C1C1E"/>
</svg>
