<svg width="26" height="26" viewBox="0 0 26 26" fill="none" xmlns="http://www.w3.org/2000/svg">
<path fill-rule="evenodd" clip-rule="evenodd" d="M15.5433 24.36H15.5576H15.5647C16.2205 24.3386 16.7765 23.8609 16.8905 23.2191C16.8905 23.2155 16.8923 23.2102 16.8941 23.2048C16.8959 23.1995 16.8976 23.1941 16.8976 23.1906L17.2398 20.759C17.6603 20.5594 18.0595 20.3241 18.4444 20.0602L20.7253 20.9801C20.7289 20.9801 20.7307 20.9819 20.7325 20.9836C20.7343 20.9854 20.736 20.9872 20.7396 20.9872C21.3597 21.2225 22.0511 20.9801 22.3933 20.4096C22.3933 20.4096 22.4004 20.4096 22.4004 20.4025L24.5744 16.6446C24.9094 16.0671 24.7811 15.3397 24.2679 14.9119L24.2537 14.8976L22.3149 13.3788C22.3363 13.1506 22.3434 12.9153 22.3434 12.6871V12.68C22.3434 12.4661 22.3363 12.2379 22.3149 11.9812V11.9741L24.2537 10.4481L24.2679 10.4338C24.7811 10.006 24.9094 9.27868 24.5744 8.7011L22.4004 4.94325C22.4004 4.94325 22.3933 4.94325 22.3933 4.93612C22.0583 4.36567 21.3597 4.11609 20.7396 4.35853C20.736 4.35853 20.7343 4.36032 20.7325 4.3621C20.7307 4.36388 20.7289 4.36567 20.7253 4.36567L18.4444 5.28552C18.0595 5.01455 17.6532 4.78637 17.2398 4.57958H17.2327L16.8905 2.14803C16.8905 2.13377 16.8905 2.11238 16.8834 2.09812C16.7551 1.46349 16.2062 1.00713 15.5576 1H15.5433H11.2024H11.1882C10.5324 1.02139 9.97641 1.49915 9.86949 2.1409C9.86949 2.14447 9.86771 2.14982 9.86592 2.15516C9.86414 2.16051 9.86236 2.16586 9.86236 2.16943L9.52022 4.60098C9.09967 4.80063 8.70051 5.03595 8.3156 5.29978L6.03466 4.37993C6.03109 4.37993 6.02931 4.37814 6.02753 4.37636C6.02575 4.37458 6.02396 4.3728 6.0204 4.3728C5.40027 4.13748 4.70886 4.37993 4.36672 4.95038C4.36672 4.95038 4.35959 4.95038 4.35959 4.95751L2.18557 8.71536C1.85768 9.28581 1.97886 10.0131 2.48494 10.441C2.48969 10.4505 2.49444 10.4537 2.4992 10.4568C2.50157 10.4584 2.50395 10.46 2.50632 10.4624L4.438 11.9741C4.41661 12.2165 4.40948 12.4447 4.40948 12.6729C4.40948 12.8939 4.41661 13.1221 4.438 13.3788L4.44512 13.3859L2.50632 14.9119L2.49207 14.9262C1.97886 15.354 1.85055 16.0813 2.18557 16.6589L4.35959 20.4167C4.35959 20.4167 4.36672 20.4167 4.36672 20.4239C4.70173 20.9943 5.40027 21.2368 6.0204 21.0015C6.02396 21.0015 6.02575 20.9997 6.02753 20.9979C6.02931 20.9961 6.03109 20.9943 6.03466 20.9943L8.3156 20.0745C8.70051 20.3454 9.1068 20.5736 9.52022 20.7804H9.52735L9.86949 23.212C9.86949 23.2262 9.86949 23.2476 9.87662 23.2619C10.0049 23.8965 10.5538 24.3529 11.2024 24.36H11.2167H15.5433ZM12.99 16.7091C13.1183 16.7234 13.2537 16.7305 13.3891 16.7305C15.4562 16.7305 17.224 15.1546 17.4307 13.0582C17.4592 12.7872 17.4592 12.5163 17.4307 12.2524C17.2382 10.3343 15.7057 8.8012 13.7883 8.60868C11.5573 8.39476 9.56144 10.0277 9.34047 12.2596C9.23355 13.3434 9.55431 14.3988 10.2457 15.2402C10.9371 16.0816 11.9065 16.6021 12.99 16.7091ZM11.8353 10.7835C12.2772 10.4199 12.8189 10.2273 13.382 10.2273V10.2345C13.4604 10.2345 13.546 10.2345 13.6244 10.2416C14.7791 10.3557 15.6986 11.2755 15.8126 12.4307C15.8269 12.5876 15.8269 12.7516 15.8126 12.9085C15.6843 14.249 14.4797 15.233 13.1468 15.0976C12.4982 15.0405 11.9137 14.7268 11.5002 14.2205C11.0868 13.7142 10.8944 13.0796 10.9585 12.4307C11.0155 11.7818 11.3292 11.1971 11.8353 10.7835Z" fill="white"/>
</svg>
