<svg width="26" height="26" viewBox="0 0 26 26" fill="none" xmlns="http://www.w3.org/2000/svg">
<path fill-rule="evenodd" clip-rule="evenodd" d="M4.875 4.875C3.97754 4.875 3.25 5.60254 3.25 6.5V21.125C3.25 22.0225 3.97754 22.75 4.875 22.75H21.125C22.0225 22.75 22.75 22.0225 22.75 21.125V6.5C22.75 5.60254 22.0225 4.875 21.125 4.875H4.875ZM1.625 6.5C1.625 4.70507 3.08007 3.25 4.875 3.25H21.125C22.9199 3.25 24.375 4.70507 24.375 6.5V21.125C24.375 22.9199 22.9199 24.375 21.125 24.375H4.875C3.08007 24.375 1.625 22.9199 1.625 21.125V6.5Z" fill="#A4A4B2"/>
<path fill-rule="evenodd" clip-rule="evenodd" d="M6.5 1.625C6.94873 1.625 7.3125 1.98877 7.3125 2.4375V4.0625C7.3125 4.51123 6.94873 4.875 6.5 4.875C6.05127 4.875 5.6875 4.51123 5.6875 4.0625V2.4375C5.6875 1.98877 6.05127 1.625 6.5 1.625Z" fill="#A4A4B2"/>
<path fill-rule="evenodd" clip-rule="evenodd" d="M19.4961 1.625C19.9448 1.625 20.3086 1.98877 20.3086 2.4375V4.0625C20.3086 4.51123 19.9448 4.875 19.4961 4.875C19.0474 4.875 18.6836 4.51123 18.6836 4.0625V2.4375C18.6836 1.98877 19.0474 1.625 19.4961 1.625Z" fill="#A4A4B2"/>
<path d="M10.626 8.73877V18H8.79785V10.8462L6.60156 11.5444V10.1035L10.4292 8.73877H10.626ZM15.355 13.7915L13.895 13.4424L14.4219 8.75781H19.6143V10.2368H15.9263L15.6978 12.2871C15.8205 12.2152 16.0067 12.139 16.2563 12.0586C16.506 11.974 16.7853 11.9316 17.0942 11.9316C17.5428 11.9316 17.9406 12.0015 18.2876 12.1411C18.6346 12.2808 18.9287 12.4839 19.1699 12.7505C19.4154 13.0171 19.6016 13.3429 19.7285 13.728C19.8555 14.1131 19.9189 14.549 19.9189 15.0356C19.9189 15.4461 19.8555 15.8376 19.7285 16.21C19.6016 16.5781 19.409 16.9082 19.1509 17.2002C18.8927 17.488 18.569 17.7144 18.1797 17.8794C17.7904 18.0444 17.3291 18.127 16.7959 18.127C16.3981 18.127 16.013 18.0677 15.6406 17.9492C15.2725 17.8307 14.9403 17.6551 14.644 17.4224C14.3521 17.1896 14.1172 16.9082 13.9395 16.5781C13.766 16.2438 13.675 15.863 13.6665 15.4355H15.4819C15.5073 15.6979 15.575 15.9243 15.6851 16.1147C15.7993 16.3009 15.9495 16.4448 16.1357 16.5464C16.3219 16.6479 16.5399 16.6987 16.7896 16.6987C17.0223 16.6987 17.2212 16.6543 17.3862 16.5654C17.5513 16.4766 17.6846 16.3538 17.7861 16.1973C17.8877 16.0365 17.9618 15.8503 18.0083 15.6387C18.0591 15.4229 18.0845 15.1901 18.0845 14.9404C18.0845 14.6908 18.0549 14.4644 17.9956 14.2612C17.9364 14.0581 17.8454 13.8825 17.7227 13.7344C17.5999 13.5863 17.4434 13.472 17.2529 13.3916C17.0667 13.3112 16.8488 13.271 16.5991 13.271C16.2606 13.271 15.9982 13.3239 15.812 13.4297C15.63 13.5355 15.4777 13.6561 15.355 13.7915Z" fill="#A4A4B2"/>
</svg>
