<svg width="26" height="26" viewBox="0 0 26 26" fill="none" xmlns="http://www.w3.org/2000/svg">
<path fill-rule="evenodd" clip-rule="evenodd" d="M1.625 6.5C1.625 4.70507 3.08007 3.25 4.875 3.25H21.125C22.9199 3.25 24.375 4.70507 24.375 6.5V21.125C24.375 22.9199 22.9199 24.375 21.125 24.375H4.875C3.08007 24.375 1.625 22.9199 1.625 21.125V6.5Z" fill="white"/>
<path fill-rule="evenodd" clip-rule="evenodd" d="M6.5 1.625C6.94873 1.625 7.3125 1.98877 7.3125 2.4375V4.0625C7.3125 4.51123 6.94873 4.875 6.5 4.875C6.05127 4.875 5.6875 4.51123 5.6875 4.0625V2.4375C5.6875 1.98877 6.05127 1.625 6.5 1.625Z" fill="white"/>
<path fill-rule="evenodd" clip-rule="evenodd" d="M19.4961 1.625C19.9448 1.625 20.3086 1.98877 20.3086 2.4375V4.0625C20.3086 4.51123 19.9448 4.875 19.4961 4.875C19.0474 4.875 18.6836 4.51123 18.6836 4.0625V2.4375C18.6836 1.98877 19.0474 1.625 19.4961 1.625Z" fill="white"/>
<path d="M10.626 8.73877V18H8.79785V10.8462L6.60156 11.5444V10.1035L10.4292 8.73877H10.626ZM19.957 16.5718V18H13.6348V16.7812L16.6245 13.5757C16.925 13.2414 17.1619 12.9473 17.3354 12.6934C17.509 12.4352 17.6338 12.2046 17.71 12.0015C17.7904 11.7941 17.8306 11.5973 17.8306 11.4111C17.8306 11.1318 17.784 10.8927 17.6909 10.6938C17.5978 10.4907 17.4603 10.3341 17.2783 10.2241C17.1006 10.1141 16.8805 10.0591 16.6182 10.0591C16.3389 10.0591 16.0977 10.1268 15.8945 10.2622C15.6956 10.3976 15.5433 10.5859 15.4375 10.8271C15.3359 11.0684 15.2852 11.3413 15.2852 11.646H13.4507C13.4507 11.0959 13.5819 10.5923 13.8442 10.1353C14.1066 9.67399 14.4769 9.30794 14.9551 9.03711C15.4333 8.76204 16.0003 8.62451 16.6562 8.62451C17.3037 8.62451 17.8496 8.73031 18.2939 8.94189C18.7425 9.14925 19.0811 9.44971 19.3096 9.84326C19.5423 10.2326 19.6587 10.6981 19.6587 11.2397C19.6587 11.5444 19.61 11.8428 19.5127 12.1348C19.4154 12.4225 19.2757 12.7103 19.0938 12.998C18.916 13.2816 18.7002 13.5693 18.4463 13.8613C18.1924 14.1533 17.911 14.4559 17.6021 14.769L15.9961 16.5718H19.957Z" fill="#1C1C1E"/>
</svg>
