<svg width="24" height="24" viewBox="0 0 24 24" fill="none" xmlns="http://www.w3.org/2000/svg">
<path d="M7 8C7 8 7 8 6 8C5 8 4 9 4 10C4 11 4 20 4 20C4 20.5304 4.21071 21.0391 4.58579 21.4142C4.96086 21.7893 5.46957 22 6 22H18C18.5304 22 19.0391 21.7893 19.4142 21.4142C19.7893 21.0391 20 20.5304 20 20C20 20 20 11 20 10C20 9 19 8 18 8C17 8 17 8 17 8" stroke="#14141E" stroke-width="1.5" stroke-linecap="round" stroke-linejoin="round"/>
<path d="M7 8C7 8 7 8 6 8C5 8 4 9 4 10C4 11 4 20 4 20C4 20.5304 4.21071 21.0391 4.58579 21.4142C4.96086 21.7893 5.46957 22 6 22H18C18.5304 22 19.0391 21.7893 19.4142 21.4142C19.7893 21.0391 20 20.5304 20 20C20 20 20 11 20 10C20 9 19 8 18 8C17 8 17 8 17 8" stroke="black" stroke-opacity="0.2" stroke-width="1.5" stroke-linecap="round" stroke-linejoin="round"/>
<path d="M7 8C7 8 7 8 6 8C5 8 4 9 4 10C4 11 4 20 4 20C4 20.5304 4.21071 21.0391 4.58579 21.4142C4.96086 21.7893 5.46957 22 6 22H18C18.5304 22 19.0391 21.7893 19.4142 21.4142C19.7893 21.0391 20 20.5304 20 20C20 20 20 11 20 10C20 9 19 8 18 8C17 8 17 8 17 8" stroke="black" stroke-opacity="0.2" stroke-width="1.5" stroke-linecap="round" stroke-linejoin="round"/>
<path d="M16 5L12 1L8 5" stroke="#14141E" stroke-width="1.5" stroke-linecap="round" stroke-linejoin="round"/>
<path d="M16 5L12 1L8 5" stroke="black" stroke-opacity="0.2" stroke-width="1.5" stroke-linecap="round" stroke-linejoin="round"/>
<path d="M16 5L12 1L8 5" stroke="black" stroke-opacity="0.2" stroke-width="1.5" stroke-linecap="round" stroke-linejoin="round"/>
<path d="M12 1V14" stroke="#14141E" stroke-width="1.5" stroke-linecap="round" stroke-linejoin="round"/>
<path d="M12 1V14" stroke="black" stroke-opacity="0.2" stroke-width="1.5" stroke-linecap="round" stroke-linejoin="round"/>
<path d="M12 1V14" stroke="black" stroke-opacity="0.2" stroke-width="1.5" stroke-linecap="round" stroke-linejoin="round"/>
</svg>
