<svg width="22" height="22" viewBox="0 0 22 22" fill="none" xmlns="http://www.w3.org/2000/svg">
<g clip-path="url(#clip0_3514_26564)">
<path d="M4.95703 17.4162C3.99609 17 3.8138 16.9816 3.04022 16.208C2.65717 15.825 2.35333 15.3703 2.14603 14.8698C1.93873 14.3693 1.83203 13.8329 1.83203 13.2912C1.83163 12.3984 2.12094 11.5295 2.65648 10.8151C3.19203 10.1007 3.9449 9.57938 4.80203 9.32939C5.20679 7.82334 6.14617 6.51624 7.44457 5.65243C8.74297 4.78861 10.3115 4.42722 11.857 4.63579C13.4025 4.84436 14.8191 5.60863 15.8421 6.78572C16.865 7.96282 17.4243 9.47217 17.4154 11.0316C18.2194 11.1462 18.95 11.5614 19.4599 12.1935C19.9698 12.8256 20.2211 13.6276 20.1629 14.4376C20.1048 15.2477 19.7416 16.0055 19.1466 16.5583C18.5516 17.1111 17.7692 17.4177 16.957 17.4162" stroke="#72DFD2" stroke-width="1.3" stroke-linecap="round" stroke-linejoin="round"/>
<path d="M8.15234 12.2367C8.97461 11.1333 10.2873 10.7764 11.841 11.1334C13.6723 11.5499 14.8226 13.3679 14.4061 15.1992" stroke="#72DFD2" stroke-width="1.3" stroke-miterlimit="22.9256" stroke-linecap="round" stroke-linejoin="round"/>
<path d="M15.5687 13.9824L14.3985 15.1923L13.2812 14.0023" stroke="#72DFD2" stroke-width="1.3" stroke-miterlimit="22.9256" stroke-linecap="round" stroke-linejoin="round"/>
<path d="M13.4992 17.1709C12.677 17.9932 11.7001 18.585 10.1465 18.228C8.31518 17.8115 7.16484 15.9934 7.58134 14.1621" stroke="#72DFD2" stroke-width="1.3" stroke-miterlimit="22.9256" stroke-linecap="round" stroke-linejoin="round"/>
<path d="M6.41016 15.3778L7.58033 14.168L8.69761 15.358" stroke="#72DFD2" stroke-width="1.3" stroke-miterlimit="22.9256" stroke-linecap="round" stroke-linejoin="round"/>
</g>
<defs>
<clipPath id="clip0_3514_26564">
<rect width="22" height="22" rx="5" fill="white"/>
</clipPath>
</defs>
</svg>
