<svg width="26" height="26" viewBox="0 0 26 26" fill="none" xmlns="http://www.w3.org/2000/svg">
<path fill-rule="evenodd" clip-rule="evenodd" d="M4.875 4.875C3.97754 4.875 3.25 5.60254 3.25 6.5V21.125C3.25 22.0225 3.97754 22.75 4.875 22.75H21.125C22.0225 22.75 22.75 22.0225 22.75 21.125V6.5C22.75 5.60254 22.0225 4.875 21.125 4.875H4.875ZM1.625 6.5C1.625 4.70507 3.08007 3.25 4.875 3.25H21.125C22.9199 3.25 24.375 4.70507 24.375 6.5V21.125C24.375 22.9199 22.9199 24.375 21.125 24.375H4.875C3.08007 24.375 1.625 22.9199 1.625 21.125V6.5Z" fill="#A4A4B2"/>
<path fill-rule="evenodd" clip-rule="evenodd" d="M6.5 1.625C6.94873 1.625 7.3125 1.98877 7.3125 2.4375V4.0625C7.3125 4.51123 6.94873 4.875 6.5 4.875C6.05127 4.875 5.6875 4.51123 5.6875 4.0625V2.4375C5.6875 1.98877 6.05127 1.625 6.5 1.625Z" fill="#A4A4B2"/>
<path fill-rule="evenodd" clip-rule="evenodd" d="M19.5 1.625C19.9487 1.625 20.3125 1.98877 20.3125 2.4375V4.0625C20.3125 4.51123 19.9487 4.875 19.5 4.875C19.0513 4.875 18.6875 4.51123 18.6875 4.0625V2.4375C18.6875 1.98877 19.0513 1.625 19.5 1.625Z" fill="#A4A4B2"/>
<path d="M10.126 8.73877V18H8.29785V10.8462L6.10156 11.5444V10.1035L9.9292 8.73877H10.126ZM17.8511 8.6626H18.1177V10.1226H18.0098C17.5273 10.1226 17.0978 10.1945 16.7212 10.3384C16.3446 10.4823 16.0251 10.6875 15.7627 10.9541C15.5046 11.2165 15.3057 11.5339 15.166 11.9062C15.0306 12.2786 14.9629 12.6955 14.9629 13.1567V14.6929C14.9629 15.0229 14.9946 15.3149 15.0581 15.5688C15.1258 15.8185 15.221 16.028 15.3438 16.1973C15.4707 16.3623 15.6188 16.4871 15.7881 16.5718C15.9574 16.6522 16.1478 16.6924 16.3594 16.6924C16.5583 16.6924 16.7381 16.6501 16.8989 16.5654C17.064 16.4808 17.2036 16.3623 17.3179 16.21C17.4364 16.0534 17.5252 15.8714 17.5845 15.6641C17.6479 15.4525 17.6797 15.2218 17.6797 14.9722C17.6797 14.7225 17.6479 14.4919 17.5845 14.2803C17.5252 14.0687 17.4364 13.8867 17.3179 13.7344C17.1994 13.5778 17.0555 13.4572 16.8862 13.3726C16.717 13.2879 16.5265 13.2456 16.3149 13.2456C16.0272 13.2456 15.7733 13.3133 15.5532 13.4487C15.3374 13.5799 15.1681 13.7492 15.0454 13.9565C14.9227 14.1639 14.8571 14.3818 14.8486 14.6104L14.2964 14.2549C14.3091 13.929 14.3768 13.6201 14.4995 13.3281C14.6265 13.0361 14.8 12.778 15.02 12.5537C15.2443 12.3252 15.513 12.1475 15.8262 12.0205C16.1393 11.8893 16.4927 11.8237 16.8862 11.8237C17.3179 11.8237 17.6966 11.9062 18.0225 12.0713C18.3525 12.2363 18.6276 12.4627 18.8477 12.7505C19.0677 13.0382 19.2327 13.3704 19.3428 13.7471C19.4528 14.1237 19.5078 14.5257 19.5078 14.9531C19.5078 15.4017 19.4338 15.8185 19.2856 16.2036C19.1418 16.5887 18.9323 16.9251 18.6572 17.2129C18.3864 17.5007 18.0605 17.7249 17.6797 17.8857C17.2988 18.0465 16.8714 18.127 16.3975 18.127C15.9066 18.127 15.4601 18.0381 15.0581 17.8604C14.6603 17.6784 14.3175 17.4245 14.0298 17.0986C13.742 16.7728 13.5199 16.3856 13.3633 15.937C13.2109 15.4884 13.1348 14.9976 13.1348 14.4644V13.7534C13.1348 13.0086 13.2427 12.3273 13.4585 11.7095C13.6785 11.0874 13.9938 10.55 14.4043 10.0972C14.8148 9.64014 15.3099 9.28678 15.8896 9.03711C16.4694 8.78743 17.1232 8.6626 17.8511 8.6626Z" fill="#A4A4B2"/>
</svg>
