<svg width="24" height="24" viewBox="0 0 24 24" fill="none" xmlns="http://www.w3.org/2000/svg">
<path d="M11.9993 2.5L8.94282 8.73882L2 9.74553L7.02943 14.6625L5.82719 21.5L11.9993 18.2096L18.1727 21.5L16.9793 14.6625L22 9.74553L15.0956 8.73882L11.9993 2.5Z" fill="#14141E"/>
<path d="M11.9993 2.5L8.94282 8.73882L2 9.74553L7.02943 14.6625L5.82719 21.5L11.9993 18.2096L18.1727 21.5L16.9793 14.6625L22 9.74553L15.0956 8.73882L11.9993 2.5Z" fill="black" fill-opacity="0.2"/>
<path d="M11.9993 2.5L8.94282 8.73882L2 9.74553L7.02943 14.6625L5.82719 21.5L11.9993 18.2096L18.1727 21.5L16.9793 14.6625L22 9.74553L15.0956 8.73882L11.9993 2.5Z" fill="black" fill-opacity="0.2"/>
<path d="M11.9993 2.5L8.94282 8.73882L2 9.74553L7.02943 14.6625L5.82719 21.5L11.9993 18.2096L18.1727 21.5L16.9793 14.6625L22 9.74553L15.0956 8.73882L11.9993 2.5Z" stroke="#14141E" stroke-width="1.5" stroke-linejoin="round"/>
<path d="M11.9993 2.5L8.94282 8.73882L2 9.74553L7.02943 14.6625L5.82719 21.5L11.9993 18.2096L18.1727 21.5L16.9793 14.6625L22 9.74553L15.0956 8.73882L11.9993 2.5Z" stroke="black" stroke-opacity="0.2" stroke-width="1.5" stroke-linejoin="round"/>
<path d="M11.9993 2.5L8.94282 8.73882L2 9.74553L7.02943 14.6625L5.82719 21.5L11.9993 18.2096L18.1727 21.5L16.9793 14.6625L22 9.74553L15.0956 8.73882L11.9993 2.5Z" stroke="black" stroke-opacity="0.2" stroke-width="1.5" stroke-linejoin="round"/>
</svg>
