<svg width="18" height="18" viewBox="0 0 18 18" fill="none" xmlns="http://www.w3.org/2000/svg">
<path d="M15.4734 11.9992C15.4151 11.9289 15.3578 11.8586 15.3015 11.7907C14.5281 10.8552 14.0602 10.2906 14.0602 7.64227C14.0602 6.27117 13.7321 5.14617 13.0856 4.30242C12.6089 3.6791 11.9645 3.20625 11.1151 2.8568C11.1042 2.85072 11.0944 2.84274 11.0863 2.83324C10.7808 1.8102 9.94477 1.125 9.00187 1.125C8.05898 1.125 7.22332 1.8102 6.91781 2.83219C6.90966 2.84134 6.90003 2.84906 6.88934 2.85504C4.90723 3.67102 3.94394 5.23652 3.94394 7.64121C3.94394 10.2906 3.47672 10.8552 2.70258 11.7896C2.64633 11.8575 2.58902 11.9264 2.53066 11.9981C2.37991 12.1799 2.2844 12.4011 2.25543 12.6355C2.22646 12.8699 2.26524 13.1077 2.36719 13.3207C2.5841 13.7777 3.04641 14.0614 3.5741 14.0614H14.4335C14.9587 14.0614 15.4179 13.7781 15.6355 13.3232C15.7379 13.1101 15.777 12.8721 15.7483 12.6374C15.7196 12.4028 15.6242 12.1813 15.4734 11.9992Z" fill="#FFD84F"/>
<path d="M9.00018 16.875C9.5082 16.8746 10.0066 16.7367 10.4426 16.4759C10.8786 16.2152 11.2359 15.8413 11.4766 15.3939C11.4879 15.3724 11.4935 15.3484 11.4928 15.3242C11.4922 15.2999 11.4852 15.2763 11.4727 15.2555C11.4602 15.2347 11.4425 15.2176 11.4214 15.2056C11.4002 15.1937 11.3764 15.1875 11.3521 15.1875H6.64893C6.62465 15.1874 6.60075 15.1936 6.57958 15.2055C6.55841 15.2174 6.54067 15.2346 6.52811 15.2554C6.51554 15.2761 6.50857 15.2998 6.50787 15.3241C6.50717 15.3484 6.51277 15.3724 6.52413 15.3939C6.76478 15.8412 7.12201 16.2151 7.55793 16.4758C7.99386 16.7366 8.49222 16.8745 9.00018 16.875Z" fill="#FFD84F"/>
</svg>
