<svg width="26" height="26" viewBox="0 0 26 26" fill="none" xmlns="http://www.w3.org/2000/svg">
<path d="M9.38629 23.8337H5.89554C3.23639 23.8337 2.16406 22.677 2.16406 19.9139V9.87694C2.16406 8.12746 3.0435 7.5884 4.48335 6.68164L10.5019 2.89145C12.0358 1.92551 13.959 1.92551 15.4929 2.89145L21.5114 6.68164C22.9513 7.5884 23.8307 8.12746 23.8307 9.87694V19.9139C23.8307 22.677 22.7584 23.8337 20.0993 23.8337H16.6085M9.38629 23.8337H16.6085M9.38629 23.8337V18.8306C9.38629 16.7582 11.003 15.0783 12.9974 15.0783C14.9918 15.0783 16.6085 16.7582 16.6085 18.8306V23.8337" stroke="#A4A4B2" stroke-width="1.5" stroke-linecap="round" stroke-linejoin="round"/>
</svg>
