<svg width="24" height="24" viewBox="0 0 24 24" fill="none" xmlns="http://www.w3.org/2000/svg">
<g clip-path="url(#clip0_1258_114)">
<path d="M21 1H3C1.89543 1 1 1.89543 1 3V21C1 22.1046 1.89543 23 3 23H21C22.1046 23 23 22.1046 23 21V3C23 1.89543 22.1046 1 21 1Z" stroke="#5E5E61" stroke-width="2"/>
<path d="M21 1H3C1.89543 1 1 1.89543 1 3V21C1 22.1046 1.89543 23 3 23H21C22.1046 23 23 22.1046 23 21V3C23 1.89543 22.1046 1 21 1Z" stroke="#5E5E61" stroke-opacity="0.2" stroke-width="2"/>
<path d="M21 1H3C1.89543 1 1 1.89543 1 3V21C1 22.1046 1.89543 23 3 23H21C22.1046 23 23 22.1046 23 21V3C23 1.89543 22.1046 1 21 1Z" stroke="#5E5E61" stroke-opacity="0.2" stroke-width="2"/>
<path d="M8 12L11 15L17 9" stroke="#5E5E61" stroke-width="2" stroke-linecap="round" stroke-linejoin="round"/>
<path d="M8 12L11 15L17 9" stroke="#5E5E61" stroke-opacity="0.2" stroke-width="2" stroke-linecap="round" stroke-linejoin="round"/>
<path d="M8 12L11 15L17 9" stroke="#5E5E61" stroke-opacity="0.2" stroke-width="2" stroke-linecap="round" stroke-linejoin="round"/>
</g>
<defs>
<clipPath id="clip0_1258_114">
<rect width="24" height="24" fill="white"/>
</clipPath>
</defs>
</svg>
