<svg width="24" height="24" viewBox="0 0 24 24" fill="none" xmlns="http://www.w3.org/2000/svg">
<path d="M5.27283 15.2899C4.69381 14.0992 4.36719 12.763 4.36719 11.3496C4.36719 6.37897 8.39655 2.34961 13.3672 2.34961C18.3378 2.34961 22.3672 6.37897 22.3672 11.3496C22.3672 16.3202 18.3378 20.3496 13.3672 20.3496" stroke="#14141E" stroke-width="1.5" stroke-miterlimit="22.9256" stroke-linecap="round" stroke-linejoin="round"/>
<path d="M5.27283 15.2899C4.69381 14.0992 4.36719 12.763 4.36719 11.3496C4.36719 6.37897 8.39655 2.34961 13.3672 2.34961C18.3378 2.34961 22.3672 6.37897 22.3672 11.3496C22.3672 16.3202 18.3378 20.3496 13.3672 20.3496" stroke="black" stroke-opacity="0.2" stroke-width="1.5" stroke-miterlimit="22.9256" stroke-linecap="round" stroke-linejoin="round"/>
<path d="M5.27283 15.2899C4.69381 14.0992 4.36719 12.763 4.36719 11.3496C4.36719 6.37897 8.39655 2.34961 13.3672 2.34961C18.3378 2.34961 22.3672 6.37897 22.3672 11.3496C22.3672 16.3202 18.3378 20.3496 13.3672 20.3496" stroke="black" stroke-opacity="0.2" stroke-width="1.5" stroke-miterlimit="22.9256" stroke-linecap="round" stroke-linejoin="round"/>
<path d="M1.36719 12.7558L5.5 15.5L7.36719 11.3496" stroke="#14141E" stroke-width="1.5" stroke-miterlimit="22.9256" stroke-linecap="round" stroke-linejoin="round"/>
<path d="M1.36719 12.7558L5.5 15.5L7.36719 11.3496" stroke="black" stroke-opacity="0.2" stroke-width="1.5" stroke-miterlimit="22.9256" stroke-linecap="round" stroke-linejoin="round"/>
<path d="M1.36719 12.7558L5.5 15.5L7.36719 11.3496" stroke="black" stroke-opacity="0.2" stroke-width="1.5" stroke-miterlimit="22.9256" stroke-linecap="round" stroke-linejoin="round"/>
</svg>
