<svg width="26" height="26" viewBox="0 0 26 26" fill="none" xmlns="http://www.w3.org/2000/svg">
<path fill-rule="evenodd" clip-rule="evenodd" d="M1.625 6.5C1.625 4.70507 3.08007 3.25 4.875 3.25H21.125C22.9199 3.25 24.375 4.70507 24.375 6.5V21.125C24.375 22.9199 22.9199 24.375 21.125 24.375H4.875C3.08007 24.375 1.625 22.9199 1.625 21.125V6.5Z" fill="#14141E"/>
<path fill-rule="evenodd" clip-rule="evenodd" d="M6.5 1.625C6.94873 1.625 7.3125 1.98877 7.3125 2.4375V4.0625C7.3125 4.51123 6.94873 4.875 6.5 4.875C6.05127 4.875 5.6875 4.51123 5.6875 4.0625V2.4375C5.6875 1.98877 6.05127 1.625 6.5 1.625Z" fill="#14141E"/>
<path fill-rule="evenodd" clip-rule="evenodd" d="M19.4961 1.625C19.9448 1.625 20.3086 1.98877 20.3086 2.4375V4.0625C20.3086 4.51123 19.9448 4.875 19.4961 4.875C19.0474 4.875 18.6836 4.51123 18.6836 4.0625V2.4375C18.6836 1.98877 19.0474 1.625 19.4961 1.625Z" fill="#14141E"/>
<path d="M14.6187 8.6626H14.8853V10.1226H14.7773C14.2949 10.1226 13.8654 10.1945 13.4888 10.3384C13.1121 10.4823 12.7926 10.6875 12.5303 10.9541C12.2721 11.2165 12.0732 11.5339 11.9336 11.9062C11.7982 12.2786 11.7305 12.6955 11.7305 13.1567V14.6929C11.7305 15.0229 11.7622 15.3149 11.8257 15.5688C11.8934 15.8185 11.9886 16.028 12.1113 16.1973C12.2383 16.3623 12.3864 16.4871 12.5557 16.5718C12.7249 16.6522 12.9154 16.6924 13.127 16.6924C13.3258 16.6924 13.5057 16.6501 13.6665 16.5654C13.8315 16.4808 13.9712 16.3623 14.0854 16.21C14.2039 16.0534 14.2928 15.8714 14.3521 15.6641C14.4155 15.4525 14.4473 15.2218 14.4473 14.9722C14.4473 14.7225 14.4155 14.4919 14.3521 14.2803C14.2928 14.0687 14.2039 13.8867 14.0854 13.7344C13.967 13.5778 13.8231 13.4572 13.6538 13.3726C13.4845 13.2879 13.2941 13.2456 13.0825 13.2456C12.7948 13.2456 12.5409 13.3133 12.3208 13.4487C12.105 13.5799 11.9357 13.7492 11.813 13.9565C11.6903 14.1639 11.6247 14.3818 11.6162 14.6104L11.064 14.2549C11.0767 13.929 11.1444 13.6201 11.2671 13.3281C11.394 13.0361 11.5675 12.778 11.7876 12.5537C12.0119 12.3252 12.2806 12.1475 12.5938 12.0205C12.9069 11.8893 13.2603 11.8237 13.6538 11.8237C14.0854 11.8237 14.4642 11.9062 14.79 12.0713C15.1201 12.2363 15.3952 12.4627 15.6152 12.7505C15.8353 13.0382 16.0003 13.3704 16.1104 13.7471C16.2204 14.1237 16.2754 14.5257 16.2754 14.9531C16.2754 15.4017 16.2013 15.8185 16.0532 16.2036C15.9093 16.5887 15.6999 16.9251 15.4248 17.2129C15.154 17.5007 14.8281 17.7249 14.4473 17.8857C14.0664 18.0465 13.639 18.127 13.165 18.127C12.6742 18.127 12.2277 18.0381 11.8257 17.8604C11.4279 17.6784 11.0851 17.4245 10.7974 17.0986C10.5096 16.7728 10.2874 16.3856 10.1309 15.937C9.97852 15.4884 9.90234 14.9976 9.90234 14.4644V13.7534C9.90234 13.0086 10.0103 12.3273 10.2261 11.7095C10.4461 11.0874 10.7614 10.55 11.1719 10.0972C11.5824 9.64014 12.0775 9.28678 12.6572 9.03711C13.237 8.78743 13.8908 8.6626 14.6187 8.6626Z" fill="white"/>
</svg>
