<svg width="22" height="22" viewBox="0 0 22 22" fill="none" xmlns="http://www.w3.org/2000/svg">
<path fill-rule="evenodd" clip-rule="evenodd" d="M8.68359 4.14668C8.96313 3.20785 9.78297 2.25 10.9973 2.25C12.212 2.25 13.0311 3.20789 13.3127 4.14495C13.3141 4.1467 13.316 4.1489 13.3184 4.15143C13.3242 4.15746 13.3308 4.16299 13.3369 4.16729C13.3416 4.17056 13.3445 4.17196 13.3448 4.17213C14.0517 4.46318 14.8838 4.92809 15.5345 5.77928C16.1905 6.63732 16.6173 7.82844 16.6173 9.49023C16.6173 11.1471 16.7921 12.0557 17.0495 12.6794C17.2752 13.2263 17.572 13.5858 17.9943 14.0974C18.056 14.1721 18.1204 14.25 18.1876 14.3323C18.966 15.2857 18.2311 16.625 17.0321 16.625H4.96648C3.76968 16.625 3.02228 15.2927 3.8071 14.3323C3.87436 14.25 3.93876 14.172 4.00049 14.0972C4.42276 13.5857 4.7196 13.2262 4.94551 12.6793C5.20316 12.0555 5.37839 11.1469 5.37937 9.49023M8.68359 4.14668C8.68251 4.14796 8.68116 4.14947 8.67951 4.15118C8.67419 4.1567 8.6679 4.16202 8.66163 4.16634C8.65581 4.17035 8.6523 4.17192 8.65231 4.17193C7.94511 4.46316 7.1124 4.92734 6.46158 5.77833C5.80562 6.63603 5.37943 7.82734 5.37937 9.49023M10.9973 3.5C10.5161 3.5 10.0566 3.90126 9.87875 4.51312L9.8783 4.51467C9.76363 4.9054 9.44612 5.19702 9.1279 5.32792C9.12795 5.32791 9.12786 5.32794 9.1279 5.32792C8.53085 5.57381 7.92033 5.92857 7.45449 6.53769C6.99379 7.14008 6.62937 8.05058 6.62937 9.49023C6.62837 11.2181 6.44853 12.3147 6.10083 13.1565C5.79835 13.8888 5.3761 14.3977 4.95714 14.9026C4.89626 14.976 4.83545 15.0493 4.77508 15.1232C4.75021 15.1537 4.74321 15.1786 4.7415 15.1974C4.73958 15.2187 4.74358 15.2442 4.75697 15.2704C4.78019 15.3159 4.83802 15.375 4.96648 15.375H17.0321C17.1559 15.375 17.2128 15.3179 17.2365 15.2711C17.2619 15.221 17.2587 15.1712 17.2196 15.1232C17.1593 15.0493 17.0985 14.9761 17.0376 14.9027C16.6186 14.3978 16.1963 13.8888 15.894 13.1563C15.5466 12.3144 15.3673 11.2181 15.3673 9.49023C15.3673 8.05242 15.0026 7.14159 14.5415 6.53849C14.0752 5.92862 13.4646 5.57322 12.8688 5.32794C12.547 5.19559 12.2329 4.89988 12.1189 4.51567L12.1184 4.51408C11.9382 3.90097 11.4786 3.5 10.9973 3.5Z" fill="white"/>
<path fill-rule="evenodd" clip-rule="evenodd" d="M8.5 15.375C8.84518 15.375 9.125 15.6548 9.125 16V16.625C9.125 17.1223 9.32254 17.5992 9.67417 17.9508C10.0258 18.3025 10.5027 18.5 11 18.5C11.4973 18.5 11.9742 18.3025 12.3258 17.9508C12.6775 17.5992 12.875 17.1223 12.875 16.625V16C12.875 15.6548 13.1548 15.375 13.5 15.375C13.8452 15.375 14.125 15.6548 14.125 16V16.625C14.125 17.4538 13.7958 18.2487 13.2097 18.8347C12.6237 19.4208 11.8288 19.75 11 19.75C10.1712 19.75 9.37634 19.4208 8.79029 18.8347C8.20424 18.2487 7.875 17.4538 7.875 16.625V16C7.875 15.6548 8.15482 15.375 8.5 15.375Z" fill="white"/>
</svg>
