<svg width="18" height="18" viewBox="0 0 18 18" fill="none" xmlns="http://www.w3.org/2000/svg">
<path d="M3.75 14.25V6.75C3.75 3.85051 6.10051 1.5 9 1.5C11.8995 1.5 14.25 3.85051 14.25 6.75V14.25M1.5 14.25H16.5" stroke="#14141E" stroke-linecap="round" stroke-linejoin="round"/>
<path d="M3.75 14.25V6.75C3.75 3.85051 6.10051 1.5 9 1.5C11.8995 1.5 14.25 3.85051 14.25 6.75V14.25M1.5 14.25H16.5" stroke="black" stroke-opacity="0.2" stroke-linecap="round" stroke-linejoin="round"/>
<path d="M3.75 14.25V6.75C3.75 3.85051 6.10051 1.5 9 1.5C11.8995 1.5 14.25 3.85051 14.25 6.75V14.25M1.5 14.25H16.5" stroke="black" stroke-opacity="0.2" stroke-linecap="round" stroke-linejoin="round"/>
<path d="M9 16.5C10.0355 16.5 10.875 15.6605 10.875 14.625V14.25H7.125V14.625C7.125 15.6605 7.96447 16.5 9 16.5Z" stroke="#14141E" stroke-linecap="round" stroke-linejoin="round"/>
<path d="M9 16.5C10.0355 16.5 10.875 15.6605 10.875 14.625V14.25H7.125V14.625C7.125 15.6605 7.96447 16.5 9 16.5Z" stroke="black" stroke-opacity="0.2" stroke-linecap="round" stroke-linejoin="round"/>
<path d="M9 16.5C10.0355 16.5 10.875 15.6605 10.875 14.625V14.25H7.125V14.625C7.125 15.6605 7.96447 16.5 9 16.5Z" stroke="black" stroke-opacity="0.2" stroke-linecap="round" stroke-linejoin="round"/>
</svg>
