<svg width="26" height="26" viewBox="0 0 26 26" fill="none" xmlns="http://www.w3.org/2000/svg">
<path fill-rule="evenodd" clip-rule="evenodd" d="M1.625 6.5C1.625 4.70507 3.08007 3.25 4.875 3.25H21.125C22.9199 3.25 24.375 4.70507 24.375 6.5V21.125C24.375 22.9199 22.9199 24.375 21.125 24.375H4.875C3.08007 24.375 1.625 22.9199 1.625 21.125V6.5Z" fill="#14141E"/>
<path fill-rule="evenodd" clip-rule="evenodd" d="M6.5 1.625C6.94873 1.625 7.3125 1.98877 7.3125 2.4375V4.0625C7.3125 4.51123 6.94873 4.875 6.5 4.875C6.05127 4.875 5.6875 4.51123 5.6875 4.0625V2.4375C5.6875 1.98877 6.05127 1.625 6.5 1.625Z" fill="#14141E"/>
<path fill-rule="evenodd" clip-rule="evenodd" d="M19.4961 1.625C19.9448 1.625 20.3086 1.98877 20.3086 2.4375V4.0625C20.3086 4.51123 19.9448 4.875 19.4961 4.875C19.0474 4.875 18.6836 4.51123 18.6836 4.0625V2.4375C18.6836 1.98877 19.0474 1.625 19.4961 1.625Z" fill="#14141E"/>
<path d="M16.2246 16.5718V18H9.90234V16.7812L12.8921 13.5757C13.1925 13.2414 13.4295 12.9473 13.603 12.6934C13.7765 12.4352 13.9014 12.2046 13.9775 12.0015C14.0579 11.7941 14.0981 11.5973 14.0981 11.4111C14.0981 11.1318 14.0516 10.8927 13.9585 10.6938C13.8654 10.4907 13.7279 10.3341 13.5459 10.2241C13.3682 10.1141 13.1481 10.0591 12.8857 10.0591C12.6064 10.0591 12.3652 10.1268 12.1621 10.2622C11.9632 10.3976 11.8109 10.5859 11.7051 10.8271C11.6035 11.0684 11.5527 11.3413 11.5527 11.646H9.71826C9.71826 11.0959 9.84945 10.5923 10.1118 10.1353C10.3742 9.67399 10.7445 9.30794 11.2227 9.03711C11.7008 8.76204 12.2679 8.62451 12.9238 8.62451C13.5713 8.62451 14.1172 8.73031 14.5615 8.94189C15.0101 9.14925 15.3486 9.44971 15.5771 9.84326C15.8099 10.2326 15.9263 10.6981 15.9263 11.2397C15.9263 11.5444 15.8776 11.8428 15.7803 12.1348C15.6829 12.4225 15.5433 12.7103 15.3613 12.998C15.1836 13.2816 14.9678 13.5693 14.7139 13.8613C14.46 14.1533 14.1785 14.4559 13.8696 14.769L12.2637 16.5718H16.2246Z" fill="white"/>
</svg>
