<svg width="7" height="12" viewBox="0 0 7 12" fill="none" xmlns="http://www.w3.org/2000/svg">
<path d="M0.012207 5.99316C0.012207 6.28092 0.125651 6.53271 0.352539 6.74854L5.32471 11.6709C5.50732 11.8535 5.72868 11.9448 5.98877 11.9448C6.25993 11.9448 6.48958 11.8507 6.67773 11.6626C6.86589 11.48 6.95996 11.2559 6.95996 10.9902C6.95996 10.7246 6.85758 10.4894 6.65283 10.2847L2.29492 5.99316L6.65283 1.70166C6.85758 1.49691 6.95996 1.26172 6.95996 0.996094C6.95996 0.730469 6.86589 0.503581 6.67773 0.31543C6.48958 0.132812 6.25993 0.0415039 5.98877 0.0415039C5.72868 0.0415039 5.50732 0.132812 5.32471 0.31543L0.352539 5.23779C0.236328 5.354 0.150553 5.47298 0.0952148 5.59473C0.0398763 5.71647 0.012207 5.84928 0.012207 5.99316Z" fill="#8E8E93"/>
</svg>
