<svg width="18" height="18" viewBox="0 0 18 18" fill="none" xmlns="http://www.w3.org/2000/svg">
<path d="M12 1.5H6C4.80653 1.5 3.66193 1.97411 2.81802 2.81802C1.9741 3.66193 1.5 4.80653 1.5 6V12C1.5 13.1935 1.9741 14.3381 2.81802 15.182C3.66193 16.0259 4.80653 16.5 6 16.5H12C13.1935 16.5 14.3381 16.0259 15.182 15.182C16.0259 14.3381 16.5 13.1935 16.5 12V6C16.5 4.80653 16.0259 3.66193 15.182 2.81802C14.3381 1.97411 13.1935 1.5 12 1.5ZM10.875 11.625C11.0739 11.625 11.2647 11.704 11.4053 11.8447C11.546 11.9853 11.625 12.1761 11.625 12.375C11.625 12.5739 11.546 12.7647 11.4053 12.9053C11.2647 13.046 11.0739 13.125 10.875 13.125H5.25C5.05109 13.125 4.86032 13.046 4.71967 12.9053C4.57902 12.7647 4.5 12.5739 4.5 12.375C4.5 12.1761 4.57902 11.9853 4.71967 11.8447C4.86032 11.704 5.05109 11.625 5.25 11.625H10.875ZM12.375 8.625C12.5739 8.625 12.7647 8.70402 12.9053 8.84467C13.046 8.98532 13.125 9.17609 13.125 9.375C13.125 9.57391 13.046 9.76468 12.9053 9.90533C12.7647 10.046 12.5739 10.125 12.375 10.125H5.25C5.05109 10.125 4.86032 10.046 4.71967 9.90533C4.57902 9.76468 4.5 9.57391 4.5 9.375C4.5 9.17609 4.57902 8.98532 4.71967 8.84467C4.86032 8.70402 5.05109 8.625 5.25 8.625H12.375Z" fill="#C0C0C0"/>
</svg>
