<svg width="7" height="12" viewBox="0 0 7 12" fill="none" xmlns="http://www.w3.org/2000/svg">
<path d="M6.98779 6.00684C6.98779 5.71908 6.87435 5.46729 6.64746 5.25146L1.67529 0.329102C1.49268 0.146484 1.27132 0.0551758 1.01123 0.0551758C0.740072 0.0551758 0.510417 0.149251 0.322266 0.337402C0.134115 0.52002 0.0400391 0.744141 0.0400391 1.00977C0.0400391 1.27539 0.142415 1.51058 0.347168 1.71533L4.70508 6.00684L0.347168 10.2983C0.142415 10.5031 0.0400391 10.7383 0.0400391 11.0039C0.0400391 11.2695 0.134115 11.4964 0.322266 11.6846C0.510417 11.8672 0.740072 11.9585 1.01123 11.9585C1.27132 11.9585 1.49268 11.8672 1.67529 11.6846L6.64746 6.76221C6.76367 6.646 6.84945 6.52702 6.90479 6.40527C6.96012 6.28353 6.98779 6.15072 6.98779 6.00684Z" fill="#8E8E93"/>
</svg>
