<svg width="25" height="24" viewBox="0 0 25 24" fill="none" xmlns="http://www.w3.org/2000/svg">
<path d="M14.8728 3.58008C16.5808 1.87108 19.3378 1.78108 21.0288 3.47208C22.7198 5.16308 22.6298 7.92008 20.9218 9.62808L17.0198 13.5301C16.9512 13.6038 16.8684 13.6629 16.7764 13.7039C16.6844 13.7449 16.585 13.7669 16.4843 13.7687C16.3836 13.7704 16.2836 13.7519 16.1902 13.7142C16.0968 13.6765 16.012 13.6203 15.9408 13.5491C15.8696 13.4779 15.8134 13.3931 15.7757 13.2997C15.738 13.2063 15.7195 13.1063 15.7212 13.0056C15.723 12.9049 15.7451 12.8055 15.786 12.7135C15.827 12.6215 15.8861 12.5387 15.9598 12.4701L19.8608 8.56808C21.0258 7.40308 21.0318 5.59708 19.9678 4.53308C18.9048 3.46908 17.0978 3.47508 15.9328 4.64008L12.0308 8.54208C11.8886 8.67456 11.7006 8.74668 11.5063 8.74326C11.312 8.73983 11.1266 8.66112 10.9892 8.5237C10.8518 8.38629 10.7731 8.2009 10.7696 8.0066C10.7662 7.8123 10.8383 7.62426 10.9708 7.48208L14.8728 3.58008ZM16.0308 8.47008C16.1713 8.61071 16.2502 8.80133 16.2502 9.00008C16.2502 9.19883 16.1713 9.38945 16.0308 9.53008L10.0308 15.5301C9.88865 15.6626 9.7006 15.7347 9.5063 15.7313C9.312 15.7278 9.12662 15.6491 8.9892 15.5117C8.85179 15.3743 8.77308 15.1889 8.76965 14.9946C8.76622 14.8003 8.83834 14.6123 8.97082 14.4701L14.9708 8.47008C15.1114 8.32963 15.3021 8.25074 15.5008 8.25074C15.6996 8.25074 15.8902 8.32963 16.0308 8.47008Z" fill="#14141E"/>
<path d="M14.8728 3.58008C16.5808 1.87108 19.3378 1.78108 21.0288 3.47208C22.7198 5.16308 22.6298 7.92008 20.9218 9.62808L17.0198 13.5301C16.9512 13.6038 16.8684 13.6629 16.7764 13.7039C16.6844 13.7449 16.585 13.7669 16.4843 13.7687C16.3836 13.7704 16.2836 13.7519 16.1902 13.7142C16.0968 13.6765 16.012 13.6203 15.9408 13.5491C15.8696 13.4779 15.8134 13.3931 15.7757 13.2997C15.738 13.2063 15.7195 13.1063 15.7212 13.0056C15.723 12.9049 15.7451 12.8055 15.786 12.7135C15.827 12.6215 15.8861 12.5387 15.9598 12.4701L19.8608 8.56808C21.0258 7.40308 21.0318 5.59708 19.9678 4.53308C18.9048 3.46908 17.0978 3.47508 15.9328 4.64008L12.0308 8.54208C11.8886 8.67456 11.7006 8.74668 11.5063 8.74326C11.312 8.73983 11.1266 8.66112 10.9892 8.5237C10.8518 8.38629 10.7731 8.2009 10.7696 8.0066C10.7662 7.8123 10.8383 7.62426 10.9708 7.48208L14.8728 3.58008ZM16.0308 8.47008C16.1713 8.61071 16.2502 8.80133 16.2502 9.00008C16.2502 9.19883 16.1713 9.38945 16.0308 9.53008L10.0308 15.5301C9.88865 15.6626 9.7006 15.7347 9.5063 15.7313C9.312 15.7278 9.12662 15.6491 8.9892 15.5117C8.85179 15.3743 8.77308 15.1889 8.76965 14.9946C8.76622 14.8003 8.83834 14.6123 8.97082 14.4701L14.9708 8.47008C15.1114 8.32963 15.3021 8.25074 15.5008 8.25074C15.6996 8.25074 15.8902 8.32963 16.0308 8.47008Z" fill="black" fill-opacity="0.2"/>
<path d="M14.8728 3.58008C16.5808 1.87108 19.3378 1.78108 21.0288 3.47208C22.7198 5.16308 22.6298 7.92008 20.9218 9.62808L17.0198 13.5301C16.9512 13.6038 16.8684 13.6629 16.7764 13.7039C16.6844 13.7449 16.585 13.7669 16.4843 13.7687C16.3836 13.7704 16.2836 13.7519 16.1902 13.7142C16.0968 13.6765 16.012 13.6203 15.9408 13.5491C15.8696 13.4779 15.8134 13.3931 15.7757 13.2997C15.738 13.2063 15.7195 13.1063 15.7212 13.0056C15.723 12.9049 15.7451 12.8055 15.786 12.7135C15.827 12.6215 15.8861 12.5387 15.9598 12.4701L19.8608 8.56808C21.0258 7.40308 21.0318 5.59708 19.9678 4.53308C18.9048 3.46908 17.0978 3.47508 15.9328 4.64008L12.0308 8.54208C11.8886 8.67456 11.7006 8.74668 11.5063 8.74326C11.312 8.73983 11.1266 8.66112 10.9892 8.5237C10.8518 8.38629 10.7731 8.2009 10.7696 8.0066C10.7662 7.8123 10.8383 7.62426 10.9708 7.48208L14.8728 3.58008ZM16.0308 8.47008C16.1713 8.61071 16.2502 8.80133 16.2502 9.00008C16.2502 9.19883 16.1713 9.38945 16.0308 9.53008L10.0308 15.5301C9.88865 15.6626 9.7006 15.7347 9.5063 15.7313C9.312 15.7278 9.12662 15.6491 8.9892 15.5117C8.85179 15.3743 8.77308 15.1889 8.76965 14.9946C8.76622 14.8003 8.83834 14.6123 8.97082 14.4701L14.9708 8.47008C15.1114 8.32963 15.3021 8.25074 15.5008 8.25074C15.6996 8.25074 15.8902 8.32963 16.0308 8.47008Z" fill="black" fill-opacity="0.2"/>
<path d="M9.05499 11.5312C9.19582 11.3907 9.27504 11.1999 9.27523 11.0009C9.27542 10.802 9.19656 10.6111 9.05599 10.4702C8.91543 10.3294 8.72467 10.2502 8.5257 10.25C8.32672 10.2498 8.13582 10.3287 7.99499 10.4692L4.10399 14.3502C2.40099 16.0482 2.24199 18.6462 3.98399 20.4682C5.76699 22.3312 8.46099 22.0462 10.138 20.3742L14.03 16.4932C14.1708 16.3527 14.25 16.1619 14.2502 15.9629C14.2504 15.764 14.1716 15.5731 14.031 15.4322C13.9614 15.3625 13.8787 15.3072 13.7877 15.2694C13.6968 15.2316 13.5992 15.2121 13.5007 15.212C13.3017 15.2118 13.1108 15.2907 12.97 15.4312L9.07999 19.3102C7.89099 20.4962 6.17199 20.5822 5.06999 19.4302C5.00287 19.361 4.93913 19.2886 4.87899 19.2132C3.93999 18.0412 4.06899 16.5032 5.16399 15.4112L9.05499 11.5312Z" fill="#14141E"/>
<path d="M9.05499 11.5312C9.19582 11.3907 9.27504 11.1999 9.27523 11.0009C9.27542 10.802 9.19656 10.6111 9.05599 10.4702C8.91543 10.3294 8.72467 10.2502 8.5257 10.25C8.32672 10.2498 8.13582 10.3287 7.99499 10.4692L4.10399 14.3502C2.40099 16.0482 2.24199 18.6462 3.98399 20.4682C5.76699 22.3312 8.46099 22.0462 10.138 20.3742L14.03 16.4932C14.1708 16.3527 14.25 16.1619 14.2502 15.9629C14.2504 15.764 14.1716 15.5731 14.031 15.4322C13.9614 15.3625 13.8787 15.3072 13.7877 15.2694C13.6968 15.2316 13.5992 15.2121 13.5007 15.212C13.3017 15.2118 13.1108 15.2907 12.97 15.4312L9.07999 19.3102C7.89099 20.4962 6.17199 20.5822 5.06999 19.4302C5.00287 19.361 4.93913 19.2886 4.87899 19.2132C3.93999 18.0412 4.06899 16.5032 5.16399 15.4112L9.05499 11.5312Z" fill="black" fill-opacity="0.2"/>
<path d="M9.05499 11.5312C9.19582 11.3907 9.27504 11.1999 9.27523 11.0009C9.27542 10.802 9.19656 10.6111 9.05599 10.4702C8.91543 10.3294 8.72467 10.2502 8.5257 10.25C8.32672 10.2498 8.13582 10.3287 7.99499 10.4692L4.10399 14.3502C2.40099 16.0482 2.24199 18.6462 3.98399 20.4682C5.76699 22.3312 8.46099 22.0462 10.138 20.3742L14.03 16.4932C14.1708 16.3527 14.25 16.1619 14.2502 15.9629C14.2504 15.764 14.1716 15.5731 14.031 15.4322C13.9614 15.3625 13.8787 15.3072 13.7877 15.2694C13.6968 15.2316 13.5992 15.2121 13.5007 15.212C13.3017 15.2118 13.1108 15.2907 12.97 15.4312L9.07999 19.3102C7.89099 20.4962 6.17199 20.5822 5.06999 19.4302C5.00287 19.361 4.93913 19.2886 4.87899 19.2132C3.93999 18.0412 4.06899 16.5032 5.16399 15.4112L9.05499 11.5312Z" fill="black" fill-opacity="0.2"/>
</svg>
