<svg width="30" height="30" viewBox="0 0 30 30" fill="none" xmlns="http://www.w3.org/2000/svg">
<g clip-path="url(#clip0_2153_42722)">
<path fill-rule="evenodd" clip-rule="evenodd" d="M15 30C6.7155 30 0 23.2845 0 15C0 6.7155 6.7155 0 15 0C23.2845 0 30 6.7155 30 15C30 23.2845 23.2845 30 15 30ZM13.2345 18.21L9.087 14.0595L7.5 15.6465L12.1785 20.328C12.4598 20.6092 12.8413 20.7672 13.239 20.7672C13.6367 20.7672 14.0182 20.6092 14.2995 20.328L23.2275 11.403L21.6345 9.81L13.2345 18.21Z" fill="#14141E"/>
<path fill-rule="evenodd" clip-rule="evenodd" d="M15 30C6.7155 30 0 23.2845 0 15C0 6.7155 6.7155 0 15 0C23.2845 0 30 6.7155 30 15C30 23.2845 23.2845 30 15 30ZM13.2345 18.21L9.087 14.0595L7.5 15.6465L12.1785 20.328C12.4598 20.6092 12.8413 20.7672 13.239 20.7672C13.6367 20.7672 14.0182 20.6092 14.2995 20.328L23.2275 11.403L21.6345 9.81L13.2345 18.21Z" fill="black" fill-opacity="0.2"/>
<path fill-rule="evenodd" clip-rule="evenodd" d="M15 30C6.7155 30 0 23.2845 0 15C0 6.7155 6.7155 0 15 0C23.2845 0 30 6.7155 30 15C30 23.2845 23.2845 30 15 30ZM13.2345 18.21L9.087 14.0595L7.5 15.6465L12.1785 20.328C12.4598 20.6092 12.8413 20.7672 13.239 20.7672C13.6367 20.7672 14.0182 20.6092 14.2995 20.328L23.2275 11.403L21.6345 9.81L13.2345 18.21Z" fill="black" fill-opacity="0.2"/>
</g>
<defs>
<clipPath id="clip0_2153_42722">
<rect width="30" height="30" fill="white"/>
</clipPath>
</defs>
</svg>
