<svg width="22" height="22" viewBox="0 0 22 22" fill="none" xmlns="http://www.w3.org/2000/svg">
<path fill-rule="evenodd" clip-rule="evenodd" d="M6.33333 4C5.689 4 5.16667 4.44772 5.16667 5V17C5.16667 17.5523 5.689 18 6.33333 18H15.6667C16.311 18 16.8333 17.5523 16.8333 17V5C16.8333 4.44772 16.311 4 15.6667 4H6.33333ZM4 5C4 3.89543 5.04467 3 6.33333 3H15.6667C16.9553 3 18 3.89543 18 5V17C18 18.1046 16.9553 19 15.6667 19H6.33333C5.04467 19 4 18.1046 4 17V5Z" fill="#2FB35D"/>
<path fill-rule="evenodd" clip-rule="evenodd" d="M6.33333 12.1111C5.689 12.1111 5.16667 12.6086 5.16667 13.2222V16.7778C5.16667 17.3914 5.689 17.8889 6.33333 17.8889H15.6667C16.311 17.8889 16.8333 17.3914 16.8333 16.7778V13.2222C16.8333 12.6086 16.311 12.1111 15.6667 12.1111H6.33333ZM4 13.2222C4 11.9949 5.04467 11 6.33333 11H15.6667C16.9553 11 18 11.9949 18 13.2222V16.7778C18 18.0051 16.9553 19 15.6667 19H6.33333C5.04467 19 4 18.0051 4 16.7778V13.2222Z" fill="#2FB35D"/>
<path fill-rule="evenodd" clip-rule="evenodd" d="M12.0625 4.6875C12.0625 4.53217 12.1884 4.40625 12.3438 4.40625H14.3125C14.4678 4.40625 14.5938 4.53217 14.5938 4.6875V6.65625C14.5938 6.81158 14.4678 6.9375 14.3125 6.9375C14.1572 6.9375 14.0312 6.81158 14.0312 6.65625V4.96875H12.3438C12.1884 4.96875 12.0625 4.84283 12.0625 4.6875Z" fill="#2FB35D"/>
<path fill-rule="evenodd" clip-rule="evenodd" d="M14.3319 4.6683C14.4417 4.77813 14.4417 4.95621 14.3319 5.06605L9.16763 10.2309C9.0578 10.3407 8.87973 10.3407 8.76989 10.2309C8.66005 10.121 8.66004 9.94297 8.76987 9.83313L13.9341 4.66832C14.044 4.55848 14.222 4.55847 14.3319 4.6683Z" fill="#2FB35D"/>
<path fill-rule="evenodd" clip-rule="evenodd" d="M8.6875 8.0625C8.84283 8.0625 8.96875 8.18842 8.96875 8.34375V10.0312H10.6562C10.8116 10.0312 10.9375 10.1572 10.9375 10.3125C10.9375 10.4678 10.8116 10.5938 10.6562 10.5938H8.6875C8.53217 10.5938 8.40625 10.4678 8.40625 10.3125V8.34375C8.40625 8.18842 8.53217 8.0625 8.6875 8.0625Z" fill="#2FB35D"/>
</svg>
