<svg width="693" height="755" viewBox="0 0 693 755" fill="none" xmlns="http://www.w3.org/2000/svg">
<path fill-rule="evenodd" clip-rule="evenodd" d="M456.178 55.8424C546.172 55.8424 619.129 128.798 619.129 218.791C619.129 308.788 546.172 381.745 456.178 381.745C366.181 381.745 293.226 308.788 293.226 218.791C293.226 128.798 366.181 55.8424 456.178 55.8424Z" fill="#14141E"/>
<path fill-rule="evenodd" clip-rule="evenodd" d="M0.00146484 170.898V60.5432H276.905V170.898H194.887V377.636H82.0188V170.898H0.00146484Z" fill="#14141E"/>
<path fill-rule="evenodd" clip-rule="evenodd" d="M112.296 428.953C202.293 428.957 275.246 501.91 275.246 591.907C275.246 681.899 202.293 754.854 112.296 754.854H0V428.953H112.296ZM124.33 520.719C157.718 520.719 184.783 552.589 184.783 591.904C184.783 631.218 157.718 663.088 124.33 663.088H82.6705V520.719H124.33Z" fill="#14141E"/>
<path fill-rule="evenodd" clip-rule="evenodd" d="M456.179 428.953C546.17 428.953 619.129 501.91 619.129 591.907C619.129 681.899 546.17 754.858 456.179 754.858C366.182 754.858 293.225 681.899 293.225 591.907C293.225 501.91 366.182 428.953 456.179 428.953ZM456.179 527.075C491.985 527.075 521.011 556.1 521.011 591.907C521.011 627.713 491.985 656.739 456.179 656.739C420.371 656.739 391.347 627.713 391.347 591.907C391.347 556.1 420.371 527.075 456.179 527.075Z" fill="#14141E"/>
<path fill-rule="evenodd" clip-rule="evenodd" d="M369.626 208.135C341.341 187.542 379.058 168.017 397.288 168.98C424.732 169.568 439.842 206.529 450.162 227.799C476.077 186.895 505.2 146.091 538.173 108.972C572.227 70.6485 610.489 36.1433 653.716 9.33794C663.256 2.81388 675.466 -5.15831 686.127 4.45983C698.009 15.5466 690.513 28.1021 679.101 35.6824C595.212 97.2915 524.591 198.625 477.169 289.998C473.743 296.619 471.19 301.544 462.943 306.767C455.505 311.891 443.824 322.523 434.807 320.905C421.419 318.473 415.145 292.752 410.769 281.49C400.349 254.666 388.443 224.039 371.856 209.852C371.162 209.261 370.255 208.695 369.626 208.135Z" fill="#BBD5FF"/>
</svg>
