<svg width="693" height="755" viewBox="0 0 693 755" fill="none" xmlns="http://www.w3.org/2000/svg">
<path fill-rule="evenodd" clip-rule="evenodd" d="M456.179 55.8425C546.172 55.8425 619.128 128.798 619.128 218.792C619.128 308.789 546.172 381.745 456.179 381.745C366.181 381.745 293.226 308.789 293.226 218.792C293.226 128.798 366.181 55.8425 456.179 55.8425Z" fill="white"/>
<path fill-rule="evenodd" clip-rule="evenodd" d="M0.00146484 170.897V60.5444H276.905V170.897H194.888V377.636H82.0197V170.897H0.00146484Z" fill="white"/>
<path fill-rule="evenodd" clip-rule="evenodd" d="M112.296 428.954C202.292 428.958 275.247 501.912 275.247 591.907C275.247 681.901 202.292 754.854 112.296 754.854H0V428.954H112.296ZM124.331 520.718C157.717 520.718 184.783 552.589 184.783 591.903C184.783 631.217 157.717 663.089 124.331 663.089H82.6706V520.718H124.331Z" fill="white"/>
<path fill-rule="evenodd" clip-rule="evenodd" d="M456.179 428.954C546.171 428.954 619.128 501.912 619.128 591.907C619.128 681.901 546.171 754.858 456.179 754.858C366.182 754.858 293.224 681.901 293.224 591.907C293.224 501.912 366.182 428.954 456.179 428.954ZM456.179 527.076C491.985 527.076 521.01 556.101 521.01 591.907C521.01 627.715 491.985 656.74 456.179 656.74C420.373 656.74 391.346 627.715 391.346 591.907C391.346 556.101 420.373 527.076 456.179 527.076Z" fill="white"/>
<path fill-rule="evenodd" clip-rule="evenodd" d="M369.626 208.134C341.341 187.542 379.057 168.017 397.289 168.98C424.733 169.57 439.841 206.528 450.16 227.799C476.076 186.896 505.2 146.092 538.174 108.973C572.227 70.6487 610.489 36.1434 653.715 9.33872C663.255 2.81496 675.465 -5.15853 686.128 4.45925C698.01 15.5458 690.511 28.1031 679.101 35.6837C595.211 97.2932 524.592 198.625 477.167 289.998C473.743 296.619 471.189 301.544 462.943 306.767C455.503 311.891 443.824 322.523 434.807 320.906C421.42 318.474 415.146 292.752 410.768 281.49C400.349 254.667 388.442 224.039 371.856 209.853C371.162 209.262 370.254 208.695 369.626 208.134Z" fill="#8FBAFF"/>
</svg>
