<svg width="24" height="24" viewBox="0 0 24 24" fill="none" xmlns="http://www.w3.org/2000/svg">
<path d="M2.5 9.50049H21.5V19.0005C21.5 20.1051 20.6046 21.0005 19.5 21.0005H4.5C3.39543 21.0005 2.5 20.1051 2.5 19.0005V9.50049Z" stroke="#14141E" stroke-width="2" stroke-linejoin="round"/>
<path d="M2.5 9.50049H21.5V19.0005C21.5 20.1051 20.6046 21.0005 19.5 21.0005H4.5C3.39543 21.0005 2.5 20.1051 2.5 19.0005V9.50049Z" stroke="black" stroke-opacity="0.2" stroke-width="2" stroke-linejoin="round"/>
<path d="M2.5 9.50049H21.5V19.0005C21.5 20.1051 20.6046 21.0005 19.5 21.0005H4.5C3.39543 21.0005 2.5 20.1051 2.5 19.0005V9.50049Z" stroke="black" stroke-opacity="0.2" stroke-width="2" stroke-linejoin="round"/>
<path d="M2.5 5.50049C2.5 4.39592 3.39543 3.50049 4.5 3.50049H19.5C20.6046 3.50049 21.5 4.39592 21.5 5.50049V9.50049H2.5V5.50049Z" stroke="#14141E" stroke-width="2" stroke-linejoin="round"/>
<path d="M2.5 5.50049C2.5 4.39592 3.39543 3.50049 4.5 3.50049H19.5C20.6046 3.50049 21.5 4.39592 21.5 5.50049V9.50049H2.5V5.50049Z" stroke="black" stroke-opacity="0.2" stroke-width="2" stroke-linejoin="round"/>
<path d="M2.5 5.50049C2.5 4.39592 3.39543 3.50049 4.5 3.50049H19.5C20.6046 3.50049 21.5 4.39592 21.5 5.50049V9.50049H2.5V5.50049Z" stroke="black" stroke-opacity="0.2" stroke-width="2" stroke-linejoin="round"/>
<path d="M8 2.00049V6.00049" stroke="#14141E" stroke-width="2" stroke-linecap="round" stroke-linejoin="round"/>
<path d="M8 2.00049V6.00049" stroke="black" stroke-opacity="0.2" stroke-width="2" stroke-linecap="round" stroke-linejoin="round"/>
<path d="M8 2.00049V6.00049" stroke="black" stroke-opacity="0.2" stroke-width="2" stroke-linecap="round" stroke-linejoin="round"/>
<path d="M16 2.00049V6.00049" stroke="#14141E" stroke-width="2" stroke-linecap="round" stroke-linejoin="round"/>
<path d="M16 2.00049V6.00049" stroke="black" stroke-opacity="0.2" stroke-width="2" stroke-linecap="round" stroke-linejoin="round"/>
<path d="M16 2.00049V6.00049" stroke="black" stroke-opacity="0.2" stroke-width="2" stroke-linecap="round" stroke-linejoin="round"/>
</svg>
