<svg width="26" height="26" viewBox="0 0 26 26" fill="none" xmlns="http://www.w3.org/2000/svg">
<path fill-rule="evenodd" clip-rule="evenodd" d="M4.875 4.875C3.97754 4.875 3.25 5.60254 3.25 6.5V21.125C3.25 22.0225 3.97754 22.75 4.875 22.75H21.125C22.0225 22.75 22.75 22.0225 22.75 21.125V6.5C22.75 5.60254 22.0225 4.875 21.125 4.875H4.875ZM1.625 6.5C1.625 4.70507 3.08007 3.25 4.875 3.25H21.125C22.9199 3.25 24.375 4.70507 24.375 6.5V21.125C24.375 22.9199 22.9199 24.375 21.125 24.375H4.875C3.08007 24.375 1.625 22.9199 1.625 21.125V6.5Z" fill="#A4A4B2"/>
<path fill-rule="evenodd" clip-rule="evenodd" d="M6.5 1.625C6.94873 1.625 7.3125 1.98877 7.3125 2.4375V4.0625C7.3125 4.51123 6.94873 4.875 6.5 4.875C6.05127 4.875 5.6875 4.51123 5.6875 4.0625V2.4375C5.6875 1.98877 6.05127 1.625 6.5 1.625Z" fill="#A4A4B2"/>
<path fill-rule="evenodd" clip-rule="evenodd" d="M19.4961 1.625C19.9448 1.625 20.3086 1.98877 20.3086 2.4375V4.0625C20.3086 4.51123 19.9448 4.875 19.4961 4.875C19.0474 4.875 18.6836 4.51123 18.6836 4.0625V2.4375C18.6836 1.98877 19.0474 1.625 19.4961 1.625Z" fill="#A4A4B2"/>
<path d="M12.4922 16.5718V18H6.16992V16.7812L9.15967 13.5757C9.46012 13.2414 9.6971 12.9473 9.87061 12.6934C10.0441 12.4352 10.1689 12.2046 10.2451 12.0015C10.3255 11.7941 10.3657 11.5973 10.3657 11.4111C10.3657 11.1318 10.3192 10.8927 10.2261 10.6938C10.133 10.4907 9.99544 10.3341 9.81348 10.2241C9.63574 10.1141 9.41569 10.0591 9.15332 10.0591C8.87402 10.0591 8.63281 10.1268 8.42969 10.2622C8.23079 10.3976 8.07845 10.5859 7.97266 10.8271C7.87109 11.0684 7.82031 11.3413 7.82031 11.646H5.98584C5.98584 11.0959 6.11702 10.5923 6.37939 10.1353C6.64176 9.67399 7.01204 9.30794 7.49023 9.03711C7.96842 8.76204 8.53548 8.62451 9.19141 8.62451C9.83887 8.62451 10.3848 8.73031 10.8291 8.94189C11.2777 9.14925 11.6162 9.44971 11.8447 9.84326C12.0775 10.2326 12.1938 10.6981 12.1938 11.2397C12.1938 11.5444 12.1452 11.8428 12.0479 12.1348C11.9505 12.4225 11.8109 12.7103 11.6289 12.998C11.4512 13.2816 11.2354 13.5693 10.9814 13.8613C10.7275 14.1533 10.4461 14.4559 10.1372 14.769L8.53125 16.5718H12.4922ZM15.5073 12.5854H16.4849C16.798 12.5854 17.0562 12.5326 17.2593 12.4268C17.4624 12.3167 17.6126 12.1644 17.71 11.9697C17.8115 11.7708 17.8623 11.5402 17.8623 11.2778C17.8623 11.0409 17.8158 10.8314 17.7227 10.6494C17.6338 10.4632 17.4963 10.3193 17.3101 10.2178C17.1239 10.112 16.889 10.0591 16.6055 10.0591C16.3812 10.0591 16.1738 10.1035 15.9834 10.1924C15.793 10.2812 15.6406 10.4061 15.5264 10.5669C15.4121 10.7277 15.355 10.9224 15.355 11.1509H13.5205C13.5205 10.6431 13.6559 10.2008 13.9268 9.82422C14.2018 9.44759 14.57 9.15348 15.0312 8.94189C15.4925 8.73031 16.0003 8.62451 16.5547 8.62451C17.181 8.62451 17.729 8.72607 18.1987 8.9292C18.6685 9.12809 19.0345 9.4222 19.2969 9.81152C19.5592 10.2008 19.6904 10.6833 19.6904 11.2588C19.6904 11.5508 19.6227 11.8343 19.4873 12.1094C19.3519 12.3802 19.1572 12.6257 18.9033 12.8457C18.6536 13.0615 18.349 13.235 17.9893 13.3662C17.6296 13.4932 17.2254 13.5566 16.7769 13.5566H15.5073V12.5854ZM15.5073 13.9756V13.0298H16.7769C17.2804 13.0298 17.7227 13.0869 18.1035 13.2012C18.4844 13.3154 18.8039 13.4805 19.062 13.6963C19.3201 13.9079 19.5148 14.1597 19.646 14.4517C19.7772 14.7394 19.8428 15.0589 19.8428 15.4102C19.8428 15.8418 19.7603 16.2269 19.5952 16.5654C19.4302 16.8997 19.1974 17.1833 18.897 17.416C18.6007 17.6488 18.2537 17.8265 17.856 17.9492C17.4582 18.0677 17.0244 18.127 16.5547 18.127C16.1654 18.127 15.7824 18.0741 15.4058 17.9683C15.0334 17.8582 14.6948 17.6953 14.3901 17.4795C14.0897 17.2594 13.8485 16.9844 13.6665 16.6543C13.4888 16.32 13.3999 15.9243 13.3999 15.4673H15.2344C15.2344 15.7043 15.2936 15.9159 15.4121 16.1021C15.5306 16.2882 15.6935 16.4342 15.9009 16.54C16.1125 16.6458 16.3473 16.6987 16.6055 16.6987C16.8975 16.6987 17.1471 16.6458 17.3545 16.54C17.5661 16.43 17.7269 16.2777 17.8369 16.083C17.9512 15.8841 18.0083 15.6535 18.0083 15.3911C18.0083 15.0526 17.9469 14.7817 17.8242 14.5786C17.7015 14.3713 17.5259 14.2189 17.2974 14.1216C17.0688 14.0243 16.798 13.9756 16.4849 13.9756H15.5073Z" fill="#A4A4B2"/>
</svg>
