<svg width="26" height="26" viewBox="0 0 26 26" fill="none" xmlns="http://www.w3.org/2000/svg">
<path fill-rule="evenodd" clip-rule="evenodd" d="M1.625 6.5C1.625 4.70507 3.08007 3.25 4.875 3.25H21.125C22.9199 3.25 24.375 4.70507 24.375 6.5V21.125C24.375 22.9199 22.9199 24.375 21.125 24.375H4.875C3.08007 24.375 1.625 22.9199 1.625 21.125V6.5Z" fill="#14141E"/>
<path fill-rule="evenodd" clip-rule="evenodd" d="M6.5 1.625C6.94873 1.625 7.3125 1.98877 7.3125 2.4375V4.0625C7.3125 4.51123 6.94873 4.875 6.5 4.875C6.05127 4.875 5.6875 4.51123 5.6875 4.0625V2.4375C5.6875 1.98877 6.05127 1.625 6.5 1.625Z" fill="#14141E"/>
<path fill-rule="evenodd" clip-rule="evenodd" d="M19.4961 1.625C19.9448 1.625 20.3086 1.98877 20.3086 2.4375V4.0625C20.3086 4.51123 19.9448 4.875 19.4961 4.875C19.0474 4.875 18.6836 4.51123 18.6836 4.0625V2.4375C18.6836 1.98877 19.0474 1.625 19.4961 1.625Z" fill="#14141E"/>
<path d="M11.7749 12.5854H12.7524C13.0656 12.5854 13.3237 12.5326 13.5269 12.4268C13.73 12.3167 13.8802 12.1644 13.9775 11.9697C14.0791 11.7708 14.1299 11.5402 14.1299 11.2778C14.1299 11.0409 14.0833 10.8314 13.9902 10.6494C13.9014 10.4632 13.7638 10.3193 13.5776 10.2178C13.3914 10.112 13.1566 10.0591 12.873 10.0591C12.6488 10.0591 12.4414 10.1035 12.251 10.1924C12.0605 10.2812 11.9082 10.4061 11.7939 10.5669C11.6797 10.7277 11.6226 10.9224 11.6226 11.1509H9.78809C9.78809 10.6431 9.9235 10.2008 10.1943 9.82422C10.4694 9.44759 10.8376 9.15348 11.2988 8.94189C11.7601 8.73031 12.2679 8.62451 12.8223 8.62451C13.4486 8.62451 13.9966 8.72607 14.4663 8.9292C14.936 9.12809 15.3021 9.4222 15.5645 9.81152C15.8268 10.2008 15.958 10.6833 15.958 11.2588C15.958 11.5508 15.8903 11.8343 15.7549 12.1094C15.6195 12.3802 15.4248 12.6257 15.1709 12.8457C14.9212 13.0615 14.6165 13.235 14.2568 13.3662C13.8971 13.4932 13.493 13.5566 13.0444 13.5566H11.7749V12.5854ZM11.7749 13.9756V13.0298H13.0444C13.548 13.0298 13.9902 13.0869 14.3711 13.2012C14.752 13.3154 15.0715 13.4805 15.3296 13.6963C15.5877 13.9079 15.7824 14.1597 15.9136 14.4517C16.0448 14.7394 16.1104 15.0589 16.1104 15.4102C16.1104 15.8418 16.0278 16.2269 15.8628 16.5654C15.6978 16.8997 15.465 17.1833 15.1646 17.416C14.8683 17.6488 14.5213 17.8265 14.1235 17.9492C13.7257 18.0677 13.292 18.127 12.8223 18.127C12.4329 18.127 12.05 18.0741 11.6733 17.9683C11.3009 17.8582 10.9624 17.6953 10.6577 17.4795C10.3573 17.2594 10.116 16.9844 9.93408 16.6543C9.75635 16.32 9.66748 15.9243 9.66748 15.4673H11.502C11.502 15.7043 11.5612 15.9159 11.6797 16.1021C11.7982 16.2882 11.9611 16.4342 12.1685 16.54C12.38 16.6458 12.6149 16.6987 12.873 16.6987C13.165 16.6987 13.4147 16.6458 13.6221 16.54C13.8337 16.43 13.9945 16.2777 14.1045 16.083C14.2188 15.8841 14.2759 15.6535 14.2759 15.3911C14.2759 15.0526 14.2145 14.7817 14.0918 14.5786C13.9691 14.3713 13.7935 14.2189 13.5649 14.1216C13.3364 14.0243 13.0656 13.9756 12.7524 13.9756H11.7749Z" fill="white"/>
</svg>
