<svg width="26" height="26" viewBox="0 0 26 26" fill="none" xmlns="http://www.w3.org/2000/svg">
<path fill-rule="evenodd" clip-rule="evenodd" d="M1.625 6.5C1.625 4.70507 3.08007 3.25 4.875 3.25H21.125C22.9199 3.25 24.375 4.70507 24.375 6.5V21.125C24.375 22.9199 22.9199 24.375 21.125 24.375H4.875C3.08007 24.375 1.625 22.9199 1.625 21.125V6.5Z" fill="white"/>
<path fill-rule="evenodd" clip-rule="evenodd" d="M6.5 1.625C6.94873 1.625 7.3125 1.98877 7.3125 2.4375V4.0625C7.3125 4.51123 6.94873 4.875 6.5 4.875C6.05127 4.875 5.6875 4.51123 5.6875 4.0625V2.4375C5.6875 1.98877 6.05127 1.625 6.5 1.625Z" fill="white"/>
<path fill-rule="evenodd" clip-rule="evenodd" d="M19.4961 1.625C19.9448 1.625 20.3086 1.98877 20.3086 2.4375V4.0625C20.3086 4.51123 19.9448 4.875 19.4961 4.875C19.0474 4.875 18.6836 4.51123 18.6836 4.0625V2.4375C18.6836 1.98877 19.0474 1.625 19.4961 1.625Z" fill="white"/>
<path d="M11.6226 13.7915L10.1626 13.4424L10.6895 8.75781H15.8818V10.2368H12.1938L11.9653 12.2871C12.0881 12.2152 12.2743 12.139 12.5239 12.0586C12.7736 11.974 13.0529 11.9316 13.3618 11.9316C13.8104 11.9316 14.2082 12.0015 14.5552 12.1411C14.9022 12.2808 15.1963 12.4839 15.4375 12.7505C15.6829 13.0171 15.8691 13.3429 15.9961 13.728C16.123 14.1131 16.1865 14.549 16.1865 15.0356C16.1865 15.4461 16.123 15.8376 15.9961 16.21C15.8691 16.5781 15.6766 16.9082 15.4185 17.2002C15.1603 17.488 14.8366 17.7144 14.4473 17.8794C14.0579 18.0444 13.5967 18.127 13.0635 18.127C12.6657 18.127 12.2806 18.0677 11.9082 17.9492C11.54 17.8307 11.2078 17.6551 10.9116 17.4224C10.6196 17.1896 10.3848 16.9082 10.207 16.5781C10.0335 16.2438 9.94255 15.863 9.93408 15.4355H11.7495C11.7749 15.6979 11.8426 15.9243 11.9526 16.1147C12.0669 16.3009 12.2171 16.4448 12.4033 16.5464C12.5895 16.6479 12.8075 16.6987 13.0571 16.6987C13.2899 16.6987 13.4888 16.6543 13.6538 16.5654C13.8188 16.4766 13.9521 16.3538 14.0537 16.1973C14.1553 16.0365 14.2293 15.8503 14.2759 15.6387C14.3267 15.4229 14.3521 15.1901 14.3521 14.9404C14.3521 14.6908 14.3224 14.4644 14.2632 14.2612C14.2039 14.0581 14.113 13.8825 13.9902 13.7344C13.8675 13.5863 13.7109 13.472 13.5205 13.3916C13.3343 13.3112 13.1164 13.271 12.8667 13.271C12.5282 13.271 12.2658 13.3239 12.0796 13.4297C11.8976 13.5355 11.7453 13.6561 11.6226 13.7915Z" fill="#1C1C1E"/>
</svg>
