<svg width="20" height="20" viewBox="0 0 20 20" fill="none" xmlns="http://www.w3.org/2000/svg">
<path d="M12.2148 10.2945C12.6834 10.1411 13.2153 10.0645 13.8232 10.0645C17.1412 10.0645 18.3696 12.6967 18.6862 14.3323C19.0154 15.9551 17.6731 16.594 17.0272 16.594H13.4053" stroke="white" stroke-width="1.5" stroke-miterlimit="22.9256" stroke-linecap="round" stroke-linejoin="round"/>
<path d="M13.7519 8.21075C15.0668 8.21075 16.1328 7.13522 16.1328 5.8085C16.1328 4.48177 15.0668 3.40625 13.7519 3.40625C12.437 3.40625 11.3711 4.48177 11.3711 5.8085C11.3711 7.13522 12.437 8.21075 13.7519 8.21075Z" stroke="white" stroke-width="1.5" stroke-miterlimit="22.9256" stroke-linecap="round" stroke-linejoin="round"/>
<path d="M4.10896 11.7102C4.24961 11.7575 4.3993 11.7751 4.54777 11.762C4.69624 11.7488 4.83997 11.7051 4.96909 11.6338C5.0982 11.5626 5.20966 11.4655 5.2958 11.3492C5.38194 11.2329 5.44073 11.1002 5.46813 10.9602L5.63351 10.111C6.31351 9.963 7.01965 9.963 7.69966 10.111L7.86607 10.9602C7.89347 11.1002 7.95226 11.2329 8.0384 11.3492C8.12454 11.4655 8.236 11.5626 8.36511 11.6338C8.49423 11.7051 8.63796 11.7488 8.78643 11.762C8.9349 11.7751 9.08459 11.7575 9.22524 11.7102L10.0774 11.4238C10.5518 11.912 10.9052 12.4958 11.1115 13.1321L10.4242 13.695C10.311 13.7877 10.2201 13.9027 10.1578 14.0321C10.0955 14.1615 10.0633 14.3022 10.0633 14.4447C10.0633 14.5871 10.0955 14.7279 10.1578 14.8573C10.2201 14.9867 10.311 15.1017 10.4242 15.1944L11.1115 15.7568C10.9052 16.3931 10.5518 16.9769 10.0774 17.4651L9.22472 17.1787C9.08407 17.1314 8.93438 17.1137 8.78591 17.1269C8.63744 17.1401 8.49372 17.1838 8.3646 17.2551C8.23548 17.3263 8.12402 17.4234 8.03788 17.5397C7.95174 17.656 7.89295 17.7887 7.86555 17.9287L7.70069 18.7779C7.02069 18.9259 6.31455 18.9259 5.63454 18.7779L5.46813 17.9287C5.44073 17.7887 5.38194 17.656 5.2958 17.5397C5.20966 17.4234 5.0982 17.3263 4.96909 17.2551C4.83997 17.1838 4.69624 17.1401 4.54777 17.1269C4.3993 17.1137 4.24961 17.1314 4.10896 17.1787L3.25676 17.4651C2.78239 16.9769 2.42898 16.3931 2.22266 15.7568L2.90999 15.1939C3.02311 15.1012 3.1139 14.9862 3.17615 14.8569C3.2384 14.7275 3.27062 14.5868 3.27062 14.4444C3.27062 14.3021 3.2384 14.1614 3.17615 14.032C3.1139 13.9026 3.02311 13.7877 2.90999 13.695L2.22266 13.1321C2.42883 12.4959 2.78206 11.912 3.25625 11.4238L4.10896 11.7102ZM6.6671 12.9633C7.07829 12.9633 7.47264 13.1193 7.76339 13.3971C8.05414 13.6749 8.21749 14.0516 8.21749 14.4444C8.21749 14.8373 8.05414 15.214 7.76339 15.4918C7.47264 15.7696 7.07829 15.9256 6.6671 15.9256C6.25591 15.9256 5.86156 15.7696 5.57081 15.4918C5.28006 15.214 5.11671 14.8373 5.11671 14.4444C5.11671 14.0516 5.28006 13.6749 5.57081 13.3971C5.86156 13.1193 6.25591 12.9633 6.6671 12.9633Z" stroke="white" stroke-width="1.5" stroke-linecap="round" stroke-linejoin="round"/>
</svg>
