<svg width="18" height="18" viewBox="0 0 18 18" fill="none" xmlns="http://www.w3.org/2000/svg">
<path d="M4.85156 5.02361C6.19708 3.21812 8.3452 2.63401 10.8875 3.2182C13.8841 3.89975 15.7665 6.87476 15.085 9.87142" stroke="#14141E" stroke-miterlimit="22.9256" stroke-linecap="round" stroke-linejoin="round"/>
<path d="M4.85156 5.02361C6.19708 3.21812 8.3452 2.63401 10.8875 3.2182C13.8841 3.89975 15.7665 6.87476 15.085 9.87142" stroke="black" stroke-opacity="0.2" stroke-miterlimit="22.9256" stroke-linecap="round" stroke-linejoin="round"/>
<path d="M4.85156 5.02361C6.19708 3.21812 8.3452 2.63401 10.8875 3.2182C13.8841 3.89975 15.7665 6.87476 15.085 9.87142" stroke="black" stroke-opacity="0.2" stroke-miterlimit="22.9256" stroke-linecap="round" stroke-linejoin="round"/>
<path d="M16.9853 7.88074L15.0705 9.86048L13.2422 7.91319" stroke="#14141E" stroke-miterlimit="22.9256" stroke-linecap="round" stroke-linejoin="round"/>
<path d="M16.9853 7.88074L15.0705 9.86048L13.2422 7.91319" stroke="black" stroke-opacity="0.2" stroke-miterlimit="22.9256" stroke-linecap="round" stroke-linejoin="round"/>
<path d="M16.9853 7.88074L15.0705 9.86048L13.2422 7.91319" stroke="black" stroke-opacity="0.2" stroke-miterlimit="22.9256" stroke-linecap="round" stroke-linejoin="round"/>
<path d="M13.6007 13.0966C12.2552 14.4421 10.6566 15.4105 8.11431 14.8263C5.11766 14.1448 3.23528 11.1697 3.91683 8.1731" stroke="#14141E" stroke-miterlimit="22.9256" stroke-linecap="round" stroke-linejoin="round"/>
<path d="M13.6007 13.0966C12.2552 14.4421 10.6566 15.4105 8.11431 14.8263C5.11766 14.1448 3.23528 11.1697 3.91683 8.1731" stroke="black" stroke-opacity="0.2" stroke-miterlimit="22.9256" stroke-linecap="round" stroke-linejoin="round"/>
<path d="M13.6007 13.0966C12.2552 14.4421 10.6566 15.4105 8.11431 14.8263C5.11766 14.1448 3.23528 11.1697 3.91683 8.1731" stroke="black" stroke-opacity="0.2" stroke-miterlimit="22.9256" stroke-linecap="round" stroke-linejoin="round"/>
<path d="M2 10.1633L3.91483 8.18359L5.74311 10.1309" stroke="#14141E" stroke-miterlimit="22.9256" stroke-linecap="round" stroke-linejoin="round"/>
<path d="M2 10.1633L3.91483 8.18359L5.74311 10.1309" stroke="black" stroke-opacity="0.2" stroke-miterlimit="22.9256" stroke-linecap="round" stroke-linejoin="round"/>
<path d="M2 10.1633L3.91483 8.18359L5.74311 10.1309" stroke="black" stroke-opacity="0.2" stroke-miterlimit="22.9256" stroke-linecap="round" stroke-linejoin="round"/>
</svg>
