<svg width="25" height="24" viewBox="0 0 25 24" fill="none" xmlns="http://www.w3.org/2000/svg">
<path d="M15.0755 1.08301C15.174 1.08283 15.2717 1.10208 15.3628 1.13966C15.4539 1.17724 15.5367 1.23241 15.6065 1.30201L23.0315 8.72701C23.1721 8.86765 23.2511 9.05839 23.2511 9.25726C23.2511 9.45613 23.1721 9.64686 23.0315 9.78751C22.3115 10.5075 21.4235 10.6695 20.777 10.6695C20.5115 10.6695 20.2745 10.6425 20.087 10.611L15.386 15.312C15.5097 15.8106 15.59 16.319 15.626 16.8315C15.695 17.8845 15.578 19.362 14.546 20.394C14.4053 20.5346 14.2146 20.6136 14.0157 20.6136C13.8169 20.6136 13.6261 20.5346 13.4855 20.394L9.24199 16.152L4.46899 20.925C4.17649 21.2175 2.86152 22.499 2.34799 21.9855C1.70964 21.3472 3.11599 20.1555 3.40849 19.8645L8.18149 15.0915L3.93949 10.848C3.79889 10.7074 3.7199 10.5166 3.7199 10.3178C3.7199 10.1189 3.79889 9.92815 3.93949 9.78751C4.97149 8.75551 6.44899 8.63701 7.50199 8.70751C8.01448 8.74342 8.52288 8.82372 9.02149 8.94751L13.7225 4.24801C13.6833 4.01958 13.6632 3.78828 13.6625 3.55651C13.6625 2.91151 13.8245 2.02351 14.546 1.30201C14.6865 1.16181 14.877 1.08305 15.0755 1.08301ZM15.2585 4.24801V4.25101C15.3018 4.38296 15.3076 4.52435 15.2753 4.65942C15.243 4.7945 15.1738 4.91794 15.0755 5.01601L9.77299 10.317C9.67447 10.4151 9.55061 10.4839 9.41526 10.5157C9.27991 10.5475 9.13838 10.541 9.00649 10.497H9.00349L8.98249 10.491C8.83979 10.4483 8.69571 10.4102 8.55049 10.377C8.17315 10.289 7.78946 10.2308 7.40299 10.203C6.76999 10.161 6.14899 10.215 5.64049 10.428L13.9055 18.6915C14.117 18.1815 14.171 17.562 14.129 16.929C14.0908 16.3931 13.9942 15.863 13.841 15.348L13.835 15.3285C13.7907 15.1964 13.7841 15.0531 13.8159 14.9174C13.8477 14.7818 13.9166 14.6577 14.015 14.559L19.319 9.25651C19.4211 9.15375 19.5508 9.08277 19.6925 9.05216C19.8341 9.02155 19.9815 9.03261 20.117 9.08401L20.261 9.11701C20.3915 9.14251 20.573 9.16801 20.777 9.16801C20.948 9.16801 21.122 9.15151 21.2915 9.10801L15.224 3.04201C15.1805 3.21151 15.164 3.38701 15.164 3.55651C15.1647 3.78958 15.196 4.02156 15.257 4.24651L15.2585 4.24801Z" fill="black"/>
</svg>
