<svg width="20" height="20" viewBox="0 0 20 20" fill="none" xmlns="http://www.w3.org/2000/svg">
<g clip-path="url(#clip0_139_27)">
<path d="M9.99934 18.3333C12.3005 18.3333 14.3839 17.4006 15.8919 15.8925C17.3999 14.3845 18.3327 12.3011 18.3327 9.99996C18.3327 7.69877 17.3999 5.61544 15.8919 4.1074C14.3839 2.59937 12.3005 1.66663 9.99934 1.66663C7.69815 1.66663 5.61483 2.59937 4.10679 4.1074C2.59876 5.61544 1.66602 7.69877 1.66602 9.99996C1.66602 12.3011 2.59876 14.3845 4.10679 15.8925C5.61483 17.4006 7.69815 18.3333 9.99934 18.3333Z" stroke="black" stroke-width="2" stroke-linejoin="round"/>
<path d="M6.66602 10L9.16602 12.5L14.166 7.5" stroke="black" stroke-width="2" stroke-linecap="round" stroke-linejoin="round"/>
</g>
<defs>
<clipPath id="clip0_139_27">
<rect width="20" height="20" fill="white"/>
</clipPath>
</defs>
</svg>
