<svg width="26" height="26" viewBox="0 0 26 26" fill="none" xmlns="http://www.w3.org/2000/svg">
<path fill-rule="evenodd" clip-rule="evenodd" d="M4.875 4.875C3.97754 4.875 3.25 5.60254 3.25 6.5V21.125C3.25 22.0225 3.97754 22.75 4.875 22.75H21.125C22.0225 22.75 22.75 22.0225 22.75 21.125V6.5C22.75 5.60254 22.0225 4.875 21.125 4.875H4.875ZM1.625 6.5C1.625 4.70507 3.08007 3.25 4.875 3.25H21.125C22.9199 3.25 24.375 4.70507 24.375 6.5V21.125C24.375 22.9199 22.9199 24.375 21.125 24.375H4.875C3.08007 24.375 1.625 22.9199 1.625 21.125V6.5Z" fill="#A4A4B2"/>
<path fill-rule="evenodd" clip-rule="evenodd" d="M6.5 1.625C6.94873 1.625 7.3125 1.98877 7.3125 2.4375V4.0625C7.3125 4.51123 6.94873 4.875 6.5 4.875C6.05127 4.875 5.6875 4.51123 5.6875 4.0625V2.4375C5.6875 1.98877 6.05127 1.625 6.5 1.625Z" fill="#A4A4B2"/>
<path fill-rule="evenodd" clip-rule="evenodd" d="M19.4961 1.625C19.9448 1.625 20.3086 1.98877 20.3086 2.4375V4.0625C20.3086 4.51123 19.9448 4.875 19.4961 4.875C19.0474 4.875 18.6836 4.51123 18.6836 4.0625V2.4375C18.6836 1.98877 19.0474 1.625 19.4961 1.625Z" fill="#A4A4B2"/>
<path d="M16.1294 15.4673C16.1294 16.047 15.994 16.5358 15.7231 16.9336C15.4523 17.3271 15.0799 17.6255 14.606 17.8286C14.1362 18.0275 13.603 18.127 13.0063 18.127C12.4097 18.127 11.8743 18.0275 11.4004 17.8286C10.9264 17.6255 10.5519 17.3271 10.2769 16.9336C10.0018 16.5358 9.86426 16.047 9.86426 15.4673C9.86426 15.078 9.94255 14.7267 10.0991 14.4136C10.2557 14.0962 10.4736 13.8254 10.7529 13.6011C11.0365 13.3726 11.3687 13.1991 11.7495 13.0806C12.1304 12.9578 12.5451 12.8965 12.9937 12.8965C13.5946 12.8965 14.132 13.0023 14.606 13.2139C15.0799 13.4255 15.4523 13.7238 15.7231 14.1089C15.994 14.494 16.1294 14.9468 16.1294 15.4673ZM14.2886 15.3467C14.2886 15.0632 14.2336 14.8198 14.1235 14.6167C14.0177 14.4093 13.8675 14.2507 13.6729 14.1406C13.4782 14.0306 13.2518 13.9756 12.9937 13.9756C12.7355 13.9756 12.5091 14.0306 12.3145 14.1406C12.1198 14.2507 11.9674 14.4093 11.8574 14.6167C11.7516 14.8198 11.6987 15.0632 11.6987 15.3467C11.6987 15.626 11.7516 15.8672 11.8574 16.0703C11.9674 16.2734 12.1198 16.43 12.3145 16.54C12.5133 16.6458 12.744 16.6987 13.0063 16.6987C13.2687 16.6987 13.4951 16.6458 13.6855 16.54C13.8802 16.43 14.0283 16.2734 14.1299 16.0703C14.2357 15.8672 14.2886 15.626 14.2886 15.3467ZM15.9326 11.208C15.9326 11.6777 15.8078 12.0946 15.5581 12.4585C15.3084 12.8182 14.9614 13.0996 14.5171 13.3027C14.077 13.5059 13.5734 13.6074 13.0063 13.6074C12.4351 13.6074 11.9272 13.5059 11.4829 13.3027C11.0386 13.0996 10.6916 12.8182 10.4419 12.4585C10.1922 12.0946 10.0674 11.6777 10.0674 11.208C10.0674 10.6494 10.1922 10.1797 10.4419 9.79883C10.6958 9.41374 11.0428 9.12174 11.4829 8.92285C11.9272 8.72396 12.4308 8.62451 12.9937 8.62451C13.5649 8.62451 14.0706 8.72396 14.5107 8.92285C14.9551 9.12174 15.3021 9.41374 15.5518 9.79883C15.8057 10.1797 15.9326 10.6494 15.9326 11.208ZM14.1045 11.2905C14.1045 11.0409 14.0601 10.825 13.9712 10.6431C13.8823 10.4569 13.7554 10.313 13.5903 10.2114C13.4295 10.1099 13.2306 10.0591 12.9937 10.0591C12.7651 10.0591 12.5684 10.1077 12.4033 10.2051C12.2425 10.3024 12.1177 10.4442 12.0288 10.6304C11.9442 10.8123 11.9019 11.0324 11.9019 11.2905C11.9019 11.5402 11.9442 11.7603 12.0288 11.9507C12.1177 12.1369 12.2446 12.2829 12.4097 12.3887C12.5747 12.4945 12.7736 12.5474 13.0063 12.5474C13.2391 12.5474 13.4359 12.4945 13.5967 12.3887C13.7617 12.2829 13.8866 12.1369 13.9712 11.9507C14.0601 11.7603 14.1045 11.5402 14.1045 11.2905Z" fill="#A4A4B2"/>
</svg>
