<svg width="22" height="22" viewBox="0 0 22 22" fill="none" xmlns="http://www.w3.org/2000/svg">
<path fill-rule="evenodd" clip-rule="evenodd" d="M3 10.6875C3 6.37318 6.49818 2.875 10.8125 2.875C15.1268 2.875 18.625 6.37318 18.625 10.6875C18.625 15.0018 15.1268 18.5 10.8125 18.5C6.49818 18.5 3 15.0018 3 10.6875ZM10.8125 4.125C7.18854 4.125 4.25 7.06354 4.25 10.6875C4.25 14.3115 7.18854 17.25 10.8125 17.25C14.4365 17.25 17.375 14.3115 17.375 10.6875C17.375 7.06354 14.4365 4.125 10.8125 4.125Z" fill="#5EB1D9"/>
<path d="M11 10V15" stroke="#5EB1D9" stroke-width="1.5" stroke-linecap="round"/>
<circle cx="11" cy="7" r="1" fill="#5EB1D9"/>
</svg>
