<svg width="130" height="246" viewBox="0 0 130 246" fill="none" xmlns="http://www.w3.org/2000/svg">
<g clip-path="url(#clip0_1235_291)">
<path d="M121 3.5H9C5.96243 3.5 3.5 5.96243 3.5 9V237C3.5 240.038 5.96243 242.5 9 242.5H121C124.038 242.5 126.5 240.038 126.5 237V9C126.5 5.96243 124.038 3.5 121 3.5Z" fill="white"/>
<path d="M121 3.5H9C5.96243 3.5 3.5 5.96243 3.5 9V237C3.5 240.038 5.96243 242.5 9 242.5H121C124.038 242.5 126.5 240.038 126.5 237V9C126.5 5.96243 124.038 3.5 121 3.5Z" stroke="#8A8A96" stroke-width="5"/>
<g filter="url(#filter0_d_1235_291)">
<mask id="mask0_1235_291" style="mask-type:luminance" maskUnits="userSpaceOnUse" x="6" y="6" width="118" height="234">
<path d="M114 6H16C10.4772 6 6 10.4772 6 16V230C6 235.523 10.4772 240 16 240H114C119.523 240 124 235.523 124 230V16C124 10.4772 119.523 6 114 6Z" fill="white"/>
</mask>
<g mask="url(#mask0_1235_291)">
<path d="M124 -12.5117H6V239.999H124V-12.5117Z" fill="white"/>
<path d="M11 16C11 10.477 15.477 6 21 6H109C114.523 6 119 10.477 119 16V240H11V16Z" fill="white"/>
<mask id="mask1_1235_291" style="mask-type:luminance" maskUnits="userSpaceOnUse" x="15" y="21" width="10" height="10">
<path d="M15 21H25V31H15V21Z" fill="white"/>
</mask>
<g mask="url(#mask1_1235_291)">
<path d="M22 22L19 25.5L22 29" stroke="#14141E" stroke-linecap="round" stroke-linejoin="round"/>
<path d="M22 22L19 25.5L22 29" stroke="black" stroke-opacity="0.2" stroke-linecap="round" stroke-linejoin="round"/>
<path d="M22 22L19 25.5L22 29" stroke="black" stroke-opacity="0.2" stroke-linecap="round" stroke-linejoin="round"/>
</g>
<path d="M87 22H43C41.3431 22 40 23.3431 40 25V27C40 28.6569 41.3431 30 43 30H87C88.6569 30 90 28.6569 90 27V25C90 23.3431 88.6569 22 87 22Z" fill="#14141E" fill-opacity="0.2"/>
<path d="M107 23C107.552 23 108 22.5523 108 22C108 21.4477 107.552 21 107 21C106.448 21 106 21.4477 106 22C106 22.5523 106.448 23 107 23Z" fill="#8A8A96"/>
<path d="M107 27C107.552 27 108 26.5523 108 26C108 25.4477 107.552 25 107 25C106.448 25 106 25.4477 106 26C106 26.5523 106.448 27 107 27Z" fill="#8A8A96"/>
<path d="M107 31C107.552 31 108 30.5523 108 30C108 29.4477 107.552 29 107 29C106.448 29 106 29.4477 106 30C106 30.5523 106.448 31 107 31Z" fill="#8A8A96"/>
<path d="M100.5 47H17.5C16.1193 47 15 48.1193 15 49.5C15 50.8807 16.1193 52 17.5 52H100.5C101.881 52 103 50.8807 103 49.5C103 48.1193 101.881 47 100.5 47Z" fill="#14141E" fill-opacity="0.2"/>
<path d="M81.5 60H17.5C16.1193 60 15 61.1193 15 62.5C15 63.8807 16.1193 65 17.5 65H81.5C82.8807 65 84 63.8807 84 62.5C84 61.1193 82.8807 60 81.5 60Z" fill="#14141E" fill-opacity="0.2"/>
<path d="M55.5 73H17.5C16.1193 73 15 74.1193 15 75.5C15 76.8807 16.1193 78 17.5 78H55.5C56.8807 78 58 76.8807 58 75.5C58 74.1193 56.8807 73 55.5 73Z" fill="#14141E" fill-opacity="0.2"/>
<path d="M88.5 86H17.5C16.1193 86 15 87.1193 15 88.5C15 89.8807 16.1193 91 17.5 91H88.5C89.8807 91 91 89.8807 91 88.5C91 87.1193 89.8807 86 88.5 86Z" fill="#14141E" fill-opacity="0.2"/>
<path d="M25 221.123H16C15.4477 221.123 15 221.571 15 222.123V231.123C15 231.675 15.4477 232.123 16 232.123H25C25.5523 232.123 26 231.675 26 231.123V222.123C26 221.571 25.5523 221.123 25 221.123Z" fill="#14141E" fill-opacity="0.2"/>
<path d="M40 221.123H31C30.4477 221.123 30 221.571 30 222.123V231.123C30 231.675 30.4477 232.123 31 232.123H40C40.5523 232.123 41 231.675 41 231.123V222.123C41 221.571 40.5523 221.123 40 221.123Z" fill="#14141E" fill-opacity="0.2"/>
<path d="M55 221.123H46C45.4477 221.123 45 221.571 45 222.123V231.123C45 231.675 45.4477 232.123 46 232.123H55C55.5523 232.123 56 231.675 56 231.123V222.123C56 221.571 55.5523 221.123 55 221.123Z" fill="#14141E" fill-opacity="0.2"/>
<mask id="mask2_1235_291" style="mask-type:luminance" maskUnits="userSpaceOnUse" x="105" y="221" width="10" height="11">
<path d="M115 221.123H105V231.123H115V221.123Z" fill="white"/>
</mask>
<g mask="url(#mask2_1235_291)">
<path fill-rule="evenodd" clip-rule="evenodd" d="M110 231.123C107.238 231.123 105 228.885 105 226.123C105 223.362 107.238 221.123 110 221.123C112.762 221.123 115 223.362 115 226.123C115 228.885 112.762 231.123 110 231.123ZM109.411 227.193L108.029 225.81L107.5 226.339L109.06 227.899C109.153 227.993 109.28 228.045 109.413 228.045C109.546 228.045 109.673 227.993 109.766 227.899L112.743 224.924L112.212 224.393L109.411 227.193Z" fill="#8A8A96"/>
</g>
</g>
</g>
</g>
<defs>
<filter id="filter0_d_1235_291" x="-94" y="-94" width="318" height="434" filterUnits="userSpaceOnUse" color-interpolation-filters="sRGB">
<feFlood flood-opacity="0" result="BackgroundImageFix"/>
<feColorMatrix in="SourceAlpha" type="matrix" values="0 0 0 0 0 0 0 0 0 0 0 0 0 0 0 0 0 0 127 0" result="hardAlpha"/>
<feOffset/>
<feGaussianBlur stdDeviation="50"/>
<feComposite in2="hardAlpha" operator="out"/>
<feColorMatrix type="matrix" values="0 0 0 0 0 0 0 0 0 0 0 0 0 0 0 0 0 0 0.05 0"/>
<feBlend mode="normal" in2="BackgroundImageFix" result="effect1_dropShadow_1235_291"/>
<feBlend mode="normal" in="SourceGraphic" in2="effect1_dropShadow_1235_291" result="shape"/>
</filter>
<clipPath id="clip0_1235_291">
<rect width="130" height="246" fill="white"/>
</clipPath>
</defs>
</svg>
