<svg width="26" height="26" viewBox="0 0 26 26" fill="none" xmlns="http://www.w3.org/2000/svg">
<path fill-rule="evenodd" clip-rule="evenodd" d="M4.875 4.875C3.97754 4.875 3.25 5.60254 3.25 6.5V21.125C3.25 22.0225 3.97754 22.75 4.875 22.75H21.125C22.0225 22.75 22.75 22.0225 22.75 21.125V6.5C22.75 5.60254 22.0225 4.875 21.125 4.875H4.875ZM1.625 6.5C1.625 4.70507 3.08007 3.25 4.875 3.25H21.125C22.9199 3.25 24.375 4.70507 24.375 6.5V21.125C24.375 22.9199 22.9199 24.375 21.125 24.375H4.875C3.08007 24.375 1.625 22.9199 1.625 21.125V6.5Z" fill="#A4A4B2"/>
<path fill-rule="evenodd" clip-rule="evenodd" d="M6.5 1.625C6.94873 1.625 7.3125 1.98877 7.3125 2.4375V4.0625C7.3125 4.51123 6.94873 4.875 6.5 4.875C6.05127 4.875 5.6875 4.51123 5.6875 4.0625V2.4375C5.6875 1.98877 6.05127 1.625 6.5 1.625Z" fill="#A4A4B2"/>
<path fill-rule="evenodd" clip-rule="evenodd" d="M19.4961 1.625C19.9448 1.625 20.3086 1.98877 20.3086 2.4375V4.0625C20.3086 4.51123 19.9448 4.875 19.4961 4.875C19.0474 4.875 18.6836 4.51123 18.6836 4.0625V2.4375C18.6836 1.98877 19.0474 1.625 19.4961 1.625Z" fill="#A4A4B2"/>
<path d="M12.4922 16.5718V18H6.16992V16.7812L9.15967 13.5757C9.46012 13.2414 9.6971 12.9473 9.87061 12.6934C10.0441 12.4352 10.1689 12.2046 10.2451 12.0015C10.3255 11.7941 10.3657 11.5973 10.3657 11.4111C10.3657 11.1318 10.3192 10.8927 10.2261 10.6938C10.133 10.4907 9.99544 10.3341 9.81348 10.2241C9.63574 10.1141 9.41569 10.0591 9.15332 10.0591C8.87402 10.0591 8.63281 10.1268 8.42969 10.2622C8.23079 10.3976 8.07845 10.5859 7.97266 10.8271C7.87109 11.0684 7.82031 11.3413 7.82031 11.646H5.98584C5.98584 11.0959 6.11702 10.5923 6.37939 10.1353C6.64176 9.67399 7.01204 9.30794 7.49023 9.03711C7.96842 8.76204 8.53548 8.62451 9.19141 8.62451C9.83887 8.62451 10.3848 8.73031 10.8291 8.94189C11.2777 9.14925 11.6162 9.44971 11.8447 9.84326C12.0775 10.2326 12.1938 10.6981 12.1938 11.2397C12.1938 11.5444 12.1452 11.8428 12.0479 12.1348C11.9505 12.4225 11.8109 12.7103 11.6289 12.998C11.4512 13.2816 11.2354 13.5693 10.9814 13.8613C10.7275 14.1533 10.4461 14.4559 10.1372 14.769L8.53125 16.5718H12.4922ZM19.957 16.5718V18H13.6348V16.7812L16.6245 13.5757C16.925 13.2414 17.1619 12.9473 17.3354 12.6934C17.509 12.4352 17.6338 12.2046 17.71 12.0015C17.7904 11.7941 17.8306 11.5973 17.8306 11.4111C17.8306 11.1318 17.784 10.8927 17.6909 10.6938C17.5978 10.4907 17.4603 10.3341 17.2783 10.2241C17.1006 10.1141 16.8805 10.0591 16.6182 10.0591C16.3389 10.0591 16.0977 10.1268 15.8945 10.2622C15.6956 10.3976 15.5433 10.5859 15.4375 10.8271C15.3359 11.0684 15.2852 11.3413 15.2852 11.646H13.4507C13.4507 11.0959 13.5819 10.5923 13.8442 10.1353C14.1066 9.67399 14.4769 9.30794 14.9551 9.03711C15.4333 8.76204 16.0003 8.62451 16.6562 8.62451C17.3037 8.62451 17.8496 8.73031 18.2939 8.94189C18.7425 9.14925 19.0811 9.44971 19.3096 9.84326C19.5423 10.2326 19.6587 10.6981 19.6587 11.2397C19.6587 11.5444 19.61 11.8428 19.5127 12.1348C19.4154 12.4225 19.2757 12.7103 19.0938 12.998C18.916 13.2816 18.7002 13.5693 18.4463 13.8613C18.1924 14.1533 17.911 14.4559 17.6021 14.769L15.9961 16.5718H19.957Z" fill="#A4A4B2"/>
</svg>
