<svg width="26" height="26" viewBox="0 0 26 26" fill="none" xmlns="http://www.w3.org/2000/svg">
<path fill-rule="evenodd" clip-rule="evenodd" d="M1.625 6.5C1.625 4.70507 3.08007 3.25 4.875 3.25H21.125C22.9199 3.25 24.375 4.70507 24.375 6.5V21.125C24.375 22.9199 22.9199 24.375 21.125 24.375H4.875C3.08007 24.375 1.625 22.9199 1.625 21.125V6.5Z" fill="white"/>
<path fill-rule="evenodd" clip-rule="evenodd" d="M6.5 1.625C6.94873 1.625 7.3125 1.98877 7.3125 2.4375V4.0625C7.3125 4.51123 6.94873 4.875 6.5 4.875C6.05127 4.875 5.6875 4.51123 5.6875 4.0625V2.4375C5.6875 1.98877 6.05127 1.625 6.5 1.625Z" fill="white"/>
<path fill-rule="evenodd" clip-rule="evenodd" d="M19.4961 1.625C19.9448 1.625 20.3086 1.98877 20.3086 2.4375V4.0625C20.3086 4.51123 19.9448 4.875 19.4961 4.875C19.0474 4.875 18.6836 4.51123 18.6836 4.0625V2.4375C18.6836 1.98877 19.0474 1.625 19.4961 1.625Z" fill="white"/>
<path d="M11.1973 16.6099H11.3179C11.8257 16.6099 12.2616 16.5485 12.6255 16.4258C12.9937 16.2988 13.2962 16.1169 13.5332 15.8799C13.7702 15.6429 13.9458 15.353 14.0601 15.0103C14.1743 14.6632 14.2314 14.2697 14.2314 13.8296V12.0776C14.2314 11.7433 14.1976 11.4492 14.1299 11.1953C14.0664 10.9414 13.9733 10.7319 13.8506 10.5669C13.7321 10.3976 13.5924 10.2707 13.4316 10.186C13.2751 10.1014 13.1016 10.0591 12.9111 10.0591C12.708 10.0591 12.5282 10.1099 12.3716 10.2114C12.215 10.3088 12.0817 10.4421 11.9717 10.6113C11.8659 10.7806 11.7834 10.9753 11.7241 11.1953C11.6691 11.4111 11.6416 11.6375 11.6416 11.8745C11.6416 12.1115 11.6691 12.3379 11.7241 12.5537C11.7791 12.7653 11.8617 12.9536 11.9717 13.1187C12.0817 13.2795 12.2192 13.4085 12.3843 13.5059C12.5493 13.599 12.744 13.6455 12.9683 13.6455C13.1841 13.6455 13.3766 13.6053 13.5459 13.5249C13.7194 13.4403 13.8654 13.3302 13.9839 13.1948C14.1066 13.0594 14.1997 12.9092 14.2632 12.7441C14.3309 12.5791 14.3647 12.4119 14.3647 12.2427L14.9678 12.5728C14.9678 12.869 14.9043 13.161 14.7773 13.4487C14.6504 13.7365 14.4727 13.9989 14.2441 14.2358C14.0199 14.4686 13.7596 14.6548 13.4634 14.7944C13.1672 14.9341 12.8498 15.0039 12.5112 15.0039C12.0796 15.0039 11.6966 14.9256 11.3623 14.769C11.028 14.6082 10.7445 14.3882 10.5117 14.1089C10.2832 13.8254 10.1097 13.4953 9.99121 13.1187C9.87272 12.742 9.81348 12.3337 9.81348 11.8936C9.81348 11.445 9.88542 11.0239 10.0293 10.6304C10.1774 10.2368 10.3869 9.88981 10.6577 9.58936C10.9328 9.2889 11.2607 9.05404 11.6416 8.88477C12.0267 8.71126 12.4541 8.62451 12.9238 8.62451C13.3936 8.62451 13.821 8.71549 14.2061 8.89746C14.5911 9.07943 14.9212 9.33757 15.1963 9.67188C15.4714 10.002 15.6829 10.3976 15.8311 10.8589C15.9834 11.3201 16.0596 11.8322 16.0596 12.395V13.0298C16.0596 13.6307 15.994 14.1893 15.8628 14.7056C15.7358 15.2218 15.5433 15.6895 15.2852 16.1084C15.0312 16.5231 14.7139 16.8786 14.333 17.1748C13.9564 17.471 13.5184 17.6974 13.019 17.854C12.5197 18.0106 11.9611 18.0889 11.3433 18.0889H11.1973V16.6099Z" fill="#1C1C1E"/>
</svg>
