<svg width="28" height="28" viewBox="0 0 28 28" fill="none" xmlns="http://www.w3.org/2000/svg">
<path fill-rule="evenodd" clip-rule="evenodd" d="M2.17969 7.44177C2.17969 5.5768 3.69155 4.06494 5.55652 4.06494H22.4407C24.3056 4.06494 25.8175 5.5768 25.8175 7.44177V22.6375C25.8175 24.5025 24.3056 26.0143 22.4407 26.0143H5.55652C3.69155 26.0143 2.17969 24.5025 2.17969 22.6375V7.44177Z" fill="white"/>
<path fill-rule="evenodd" clip-rule="evenodd" d="M7.24655 2.37646C7.71279 2.37646 8.09076 2.75443 8.09076 3.22067V4.90909C8.09076 5.37533 7.71279 5.75329 7.24655 5.75329C6.78031 5.75329 6.40234 5.37533 6.40234 4.90909V3.22067C6.40234 2.75443 6.78031 2.37646 7.24655 2.37646Z" fill="white"/>
<path fill-rule="evenodd" clip-rule="evenodd" d="M20.7505 2.37646C21.2167 2.37646 21.5947 2.75443 21.5947 3.22067V4.90909C21.5947 5.37533 21.2167 5.75329 20.7505 5.75329C20.2842 5.75329 19.9062 5.37533 19.9062 4.90909V3.22067C19.9062 2.75443 20.2842 2.37646 20.7505 2.37646Z" fill="white"/>
<path d="M11.6182 10.4268V19.688H9.79004V12.5342L7.59375 13.2324V11.7915L11.4214 10.4268H11.6182ZM19.3433 10.3506H19.6099V11.8105H19.502C19.0195 11.8105 18.59 11.8825 18.2134 12.0264C17.8368 12.1702 17.5173 12.3755 17.2549 12.6421C16.9967 12.9045 16.7979 13.2218 16.6582 13.5942C16.5228 13.9666 16.4551 14.3835 16.4551 14.8447V16.3809C16.4551 16.7109 16.4868 17.0029 16.5503 17.2568C16.618 17.5065 16.7132 17.716 16.8359 17.8853C16.9629 18.0503 17.111 18.1751 17.2803 18.2598C17.4495 18.3402 17.64 18.3804 17.8516 18.3804C18.0505 18.3804 18.2303 18.3381 18.3911 18.2534C18.5562 18.1688 18.6958 18.0503 18.8101 17.8979C18.9285 17.7414 19.0174 17.5594 19.0767 17.3521C19.1401 17.1405 19.1719 16.9098 19.1719 16.6602C19.1719 16.4105 19.1401 16.1799 19.0767 15.9683C19.0174 15.7567 18.9285 15.5747 18.8101 15.4224C18.6916 15.2658 18.5477 15.1452 18.3784 15.0605C18.2091 14.9759 18.0187 14.9336 17.8071 14.9336C17.5194 14.9336 17.2655 15.0013 17.0454 15.1367C16.8296 15.2679 16.6603 15.4372 16.5376 15.6445C16.4149 15.8519 16.3493 16.0698 16.3408 16.2983L15.7886 15.9429C15.8013 15.617 15.869 15.3081 15.9917 15.0161C16.1187 14.7241 16.2922 14.466 16.5122 14.2417C16.7365 14.0132 17.0052 13.8354 17.3184 13.7085C17.6315 13.5773 17.9849 13.5117 18.3784 13.5117C18.8101 13.5117 19.1888 13.5942 19.5146 13.7593C19.8447 13.9243 20.1198 14.1507 20.3398 14.4385C20.5599 14.7262 20.7249 15.0584 20.835 15.4351C20.945 15.8117 21 16.2137 21 16.6411C21 17.0897 20.9259 17.5065 20.7778 17.8916C20.634 18.2767 20.4245 18.6131 20.1494 18.9009C19.8786 19.1886 19.5527 19.4129 19.1719 19.5737C18.791 19.7345 18.3636 19.8149 17.8896 19.8149C17.3988 19.8149 16.9523 19.7261 16.5503 19.5483C16.1525 19.3664 15.8097 19.1125 15.522 18.7866C15.2342 18.4608 15.012 18.0736 14.8555 17.625C14.7031 17.1764 14.627 16.6855 14.627 16.1523V15.4414C14.627 14.6966 14.7349 14.0153 14.9507 13.3975C15.1707 12.7754 15.486 12.238 15.8965 11.7852C16.307 11.3281 16.8021 10.9748 17.3818 10.7251C17.9616 10.4754 18.6154 10.3506 19.3433 10.3506Z" fill="#1C1C1E"/>
</svg>
