<svg width="24" height="24" viewBox="0 0 24 24" fill="none" xmlns="http://www.w3.org/2000/svg">
<path d="M14.7435 1.08301C14.842 1.08283 14.9396 1.10208 15.0308 1.13966C15.1219 1.17724 15.2047 1.23241 15.2745 1.30201L22.6995 8.72701C22.8401 8.86765 22.919 9.05839 22.919 9.25726C22.919 9.45613 22.8401 9.64686 22.6995 9.78751C21.9795 10.5075 21.0915 10.6695 20.445 10.6695C20.1795 10.6695 19.9425 10.6425 19.755 10.611L15.054 15.312C15.1777 15.8106 15.258 16.319 15.294 16.8315C15.363 17.8845 15.246 19.362 14.214 20.394C14.0733 20.5346 13.8826 20.6136 13.6837 20.6136C13.4848 20.6136 13.2941 20.5346 13.1535 20.394L8.90996 16.152L4.13696 20.925C3.84446 21.2175 2.52949 22.499 2.01596 21.9855C1.37761 21.3472 2.78396 20.1555 3.07646 19.8645L7.84946 15.0915L3.60746 10.848C3.46686 10.7074 3.38787 10.5166 3.38787 10.3178C3.38787 10.1189 3.46686 9.92815 3.60746 9.78751C4.63946 8.75551 6.11696 8.63701 7.16996 8.70751C7.68245 8.74342 8.19085 8.82372 8.68946 8.94751L13.3905 4.24801C13.3512 4.01958 13.3312 3.78828 13.3305 3.55651C13.3305 2.91151 13.4925 2.02351 14.214 1.30201C14.3545 1.16181 14.5449 1.08305 14.7435 1.08301Z" fill="#14141E"/>
<path d="M14.7435 1.08301C14.842 1.08283 14.9396 1.10208 15.0308 1.13966C15.1219 1.17724 15.2047 1.23241 15.2745 1.30201L22.6995 8.72701C22.8401 8.86765 22.919 9.05839 22.919 9.25726C22.919 9.45613 22.8401 9.64686 22.6995 9.78751C21.9795 10.5075 21.0915 10.6695 20.445 10.6695C20.1795 10.6695 19.9425 10.6425 19.755 10.611L15.054 15.312C15.1777 15.8106 15.258 16.319 15.294 16.8315C15.363 17.8845 15.246 19.362 14.214 20.394C14.0733 20.5346 13.8826 20.6136 13.6837 20.6136C13.4848 20.6136 13.2941 20.5346 13.1535 20.394L8.90996 16.152L4.13696 20.925C3.84446 21.2175 2.52949 22.499 2.01596 21.9855C1.37761 21.3472 2.78396 20.1555 3.07646 19.8645L7.84946 15.0915L3.60746 10.848C3.46686 10.7074 3.38787 10.5166 3.38787 10.3178C3.38787 10.1189 3.46686 9.92815 3.60746 9.78751C4.63946 8.75551 6.11696 8.63701 7.16996 8.70751C7.68245 8.74342 8.19085 8.82372 8.68946 8.94751L13.3905 4.24801C13.3512 4.01958 13.3312 3.78828 13.3305 3.55651C13.3305 2.91151 13.4925 2.02351 14.214 1.30201C14.3545 1.16181 14.5449 1.08305 14.7435 1.08301Z" fill="black" fill-opacity="0.2"/>
<path d="M14.7435 1.08301C14.842 1.08283 14.9396 1.10208 15.0308 1.13966C15.1219 1.17724 15.2047 1.23241 15.2745 1.30201L22.6995 8.72701C22.8401 8.86765 22.919 9.05839 22.919 9.25726C22.919 9.45613 22.8401 9.64686 22.6995 9.78751C21.9795 10.5075 21.0915 10.6695 20.445 10.6695C20.1795 10.6695 19.9425 10.6425 19.755 10.611L15.054 15.312C15.1777 15.8106 15.258 16.319 15.294 16.8315C15.363 17.8845 15.246 19.362 14.214 20.394C14.0733 20.5346 13.8826 20.6136 13.6837 20.6136C13.4848 20.6136 13.2941 20.5346 13.1535 20.394L8.90996 16.152L4.13696 20.925C3.84446 21.2175 2.52949 22.499 2.01596 21.9855C1.37761 21.3472 2.78396 20.1555 3.07646 19.8645L7.84946 15.0915L3.60746 10.848C3.46686 10.7074 3.38787 10.5166 3.38787 10.3178C3.38787 10.1189 3.46686 9.92815 3.60746 9.78751C4.63946 8.75551 6.11696 8.63701 7.16996 8.70751C7.68245 8.74342 8.19085 8.82372 8.68946 8.94751L13.3905 4.24801C13.3512 4.01958 13.3312 3.78828 13.3305 3.55651C13.3305 2.91151 13.4925 2.02351 14.214 1.30201C14.3545 1.16181 14.5449 1.08305 14.7435 1.08301Z" fill="black" fill-opacity="0.2"/>
</svg>
