<svg width="24" height="24" viewBox="0 0 24 24" fill="none" xmlns="http://www.w3.org/2000/svg">
<path d="M14.7435 1.08399C14.842 1.08381 14.9396 1.10306 15.0308 1.14064C15.1219 1.17822 15.2047 1.23339 15.2745 1.30299L22.6995 8.72799C22.8401 8.86863 22.919 9.05937 22.919 9.25824C22.919 9.45711 22.8401 9.64784 22.6995 9.78849C21.9795 10.5085 21.0915 10.6705 20.445 10.6705C20.1795 10.6705 19.9425 10.6435 19.755 10.612L15.054 15.313C15.1777 15.8116 15.258 16.32 15.294 16.8325C15.363 17.8855 15.246 19.363 14.214 20.395C14.0733 20.5356 13.8826 20.6146 13.6837 20.6146C13.4848 20.6146 13.2941 20.5356 13.1535 20.395L8.90996 16.153L4.13696 20.926C3.84446 21.2185 2.52949 22.5 2.01596 21.9865C1.37761 21.3482 2.78396 20.1565 3.07646 19.8655L7.84946 15.0925L3.60746 10.849C3.46686 10.7084 3.38787 10.5176 3.38787 10.3188C3.38787 10.1199 3.46686 9.92913 3.60746 9.78849C4.63946 8.75649 6.11696 8.63799 7.16996 8.70849C7.68245 8.7444 8.19085 8.8247 8.68946 8.94849L13.3905 4.24899C13.3512 4.02056 13.3312 3.78926 13.3305 3.55749C13.3305 2.91249 13.4925 2.02449 14.214 1.30299C14.3545 1.16279 14.5449 1.08403 14.7435 1.08399Z" fill="white"/>
</svg>
