<svg width="27" height="28" viewBox="0 0 27 28" fill="none" xmlns="http://www.w3.org/2000/svg">
<g clip-path="url(#clip0_2119_375)">
<mask id="mask0_2119_375" style="mask-type:luminance" maskUnits="userSpaceOnUse" x="0" y="0" width="24" height="24">
<path d="M24 0H0V24H24V0Z" fill="white"/>
</mask>
<g mask="url(#mask0_2119_375)">
<path fill-rule="evenodd" clip-rule="evenodd" d="M5.375 8.375C5.07663 8.375 4.79048 8.49353 4.5795 8.7045C4.36853 8.91548 4.25 9.20163 4.25 9.5V20.875C4.25 21.1734 4.36853 21.4595 4.5795 21.6705C4.79048 21.8815 5.07663 22 5.375 22H18.625C18.9234 22 19.2095 21.8815 19.4205 21.6705C19.6315 21.4595 19.75 21.1734 19.75 20.875V9.5C19.75 9.20163 19.6315 8.91548 19.4205 8.7045C19.2095 8.49353 18.9234 8.375 18.625 8.375H16.75C16.3358 8.375 16 8.03921 16 7.625C16 7.21079 16.3358 6.875 16.75 6.875H18.625C19.3212 6.875 19.9889 7.15156 20.4812 7.64384C20.9734 8.13613 21.25 8.80381 21.25 9.5V20.875C21.25 21.5712 20.9734 22.2389 20.4812 22.7312C19.9889 23.2234 19.3212 23.5 18.625 23.5H5.375C4.67881 23.5 4.01113 23.2234 3.51884 22.7312C3.02656 22.2389 2.75 21.5712 2.75 20.875V9.5C2.75 8.80381 3.02656 8.13613 3.51884 7.64384C4.01113 7.15156 4.67881 6.875 5.375 6.875H7.25C7.66421 6.875 8 7.21079 8 7.625C8 8.03921 7.66421 8.375 7.25 8.375H5.375Z" fill="white"/>
<path fill-rule="evenodd" clip-rule="evenodd" d="M7.71967 5.53033C8.01256 5.82322 8.48744 5.82322 8.78033 5.53033L12 2.31066L15.2197 5.53033C15.5126 5.82322 15.9874 5.82322 16.2803 5.53033C16.5732 5.23744 16.5732 4.76256 16.2803 4.46967L12.5303 0.71967C12.2374 0.426777 11.7626 0.426777 11.4697 0.71967L7.71967 4.46967C7.42678 4.76256 7.42678 5.23744 7.71967 5.53033Z" fill="white"/>
<path fill-rule="evenodd" clip-rule="evenodd" d="M12 14.75C12.4142 14.75 12.75 14.4142 12.75 14V2C12.75 1.58579 12.4142 1.25 12 1.25C11.5858 1.25 11.25 1.58579 11.25 2V14C11.25 14.4142 11.5858 14.75 12 14.75Z" fill="white"/>
</g>
<mask id="mask1_2119_375" style="mask-type:luminance" maskUnits="userSpaceOnUse" x="15" y="16" width="12" height="12">
<path d="M27 16H15V28H27V16Z" fill="white"/>
</mask>
<g mask="url(#mask1_2119_375)">
<path d="M21 28C24.3137 28 27 25.3137 27 22C27 18.6863 24.3137 16 21 16C17.6863 16 15 18.6863 15 22C15 25.3137 17.6863 28 21 28Z" fill="#FFE49C"/>
<mask id="mask2_2119_375" style="mask-type:luminance" maskUnits="userSpaceOnUse" x="17" y="19" width="8" height="6">
<path d="M25 19H17V25H25V19Z" fill="white"/>
</mask>
<g mask="url(#mask2_2119_375)">
<path fill-rule="evenodd" clip-rule="evenodd" d="M19.2572 21.8422C19.1662 21.8343 19.0947 21.7734 19.0135 21.7377C18.9198 21.6965 18.8605 21.6675 18.778 21.625L17.615 21.0461C17.4675 20.9696 17.449 20.9342 17.3019 20.9342C17.1248 20.9342 16.9806 21.0977 17.0021 21.2816L17.1213 21.8504C17.1579 22.0425 17.2034 22.2246 17.2398 22.3996C17.2812 22.599 17.3158 22.7771 17.3594 22.9671C17.4447 23.3384 17.5128 23.7047 17.597 24.0844C17.637 24.2652 17.717 24.7696 17.7991 24.8828C17.846 24.9476 17.9218 25 18.0304 25H23.9729C24.1024 25 24.2082 24.8605 24.2379 24.7597C24.3014 24.5435 24.4546 23.7423 24.5212 23.4725C24.5926 23.1829 24.6441 22.912 24.7088 22.6196C24.7753 22.3191 24.8342 22.0507 24.9005 21.7511C24.9337 21.6013 24.9613 21.4755 24.9916 21.3308C25.0413 21.093 24.8552 20.7955 24.4709 20.9931C23.9371 21.2677 23.2516 21.5865 22.746 21.8619L21.3357 19.2876C21.1916 19.0367 21.1891 19 20.9441 19C20.745 19 20.5931 19.3976 20.4538 19.64L19.2572 21.8422Z" fill="#14141E"/>
<path fill-rule="evenodd" clip-rule="evenodd" d="M19.2572 21.8422C19.1662 21.8343 19.0947 21.7734 19.0135 21.7377C18.9198 21.6965 18.8605 21.6675 18.778 21.625L17.615 21.0461C17.4675 20.9696 17.449 20.9342 17.3019 20.9342C17.1248 20.9342 16.9806 21.0977 17.0021 21.2816L17.1213 21.8504C17.1579 22.0425 17.2034 22.2246 17.2398 22.3996C17.2812 22.599 17.3158 22.7771 17.3594 22.9671C17.4447 23.3384 17.5128 23.7047 17.597 24.0844C17.637 24.2652 17.717 24.7696 17.7991 24.8828C17.846 24.9476 17.9218 25 18.0304 25H23.9729C24.1024 25 24.2082 24.8605 24.2379 24.7597C24.3014 24.5435 24.4546 23.7423 24.5212 23.4725C24.5926 23.1829 24.6441 22.912 24.7088 22.6196C24.7753 22.3191 24.8342 22.0507 24.9005 21.7511C24.9337 21.6013 24.9613 21.4755 24.9916 21.3308C25.0413 21.093 24.8552 20.7955 24.4709 20.9931C23.9371 21.2677 23.2516 21.5865 22.746 21.8619L21.3357 19.2876C21.1916 19.0367 21.1891 19 20.9441 19C20.745 19 20.5931 19.3976 20.4538 19.64L19.2572 21.8422Z" fill="black" fill-opacity="0.2"/>
<path fill-rule="evenodd" clip-rule="evenodd" d="M19.2572 21.8422C19.1662 21.8343 19.0947 21.7734 19.0135 21.7377C18.9198 21.6965 18.8605 21.6675 18.778 21.625L17.615 21.0461C17.4675 20.9696 17.449 20.9342 17.3019 20.9342C17.1248 20.9342 16.9806 21.0977 17.0021 21.2816L17.1213 21.8504C17.1579 22.0425 17.2034 22.2246 17.2398 22.3996C17.2812 22.599 17.3158 22.7771 17.3594 22.9671C17.4447 23.3384 17.5128 23.7047 17.597 24.0844C17.637 24.2652 17.717 24.7696 17.7991 24.8828C17.846 24.9476 17.9218 25 18.0304 25H23.9729C24.1024 25 24.2082 24.8605 24.2379 24.7597C24.3014 24.5435 24.4546 23.7423 24.5212 23.4725C24.5926 23.1829 24.6441 22.912 24.7088 22.6196C24.7753 22.3191 24.8342 22.0507 24.9005 21.7511C24.9337 21.6013 24.9613 21.4755 24.9916 21.3308C25.0413 21.093 24.8552 20.7955 24.4709 20.9931C23.9371 21.2677 23.2516 21.5865 22.746 21.8619L21.3357 19.2876C21.1916 19.0367 21.1891 19 20.9441 19C20.745 19 20.5931 19.3976 20.4538 19.64L19.2572 21.8422Z" fill="black" fill-opacity="0.2"/>
</g>
</g>
</g>
<defs>
<clipPath id="clip0_2119_375">
<rect width="27" height="28" fill="white"/>
</clipPath>
</defs>
</svg>
