<svg width="24" height="24" viewBox="0 0 24 24" fill="none" xmlns="http://www.w3.org/2000/svg">
<path d="M1 4C1 2.89543 1.89543 2 3 2H9.25L12 5.32343H21C22.1046 5.32343 23 6.21886 23 7.32343V19.8636C23 20.9682 22.1046 21.8636 21 21.8636H3C1.89543 21.8636 1 20.9682 1 19.8636L1 4Z" stroke="#14141E" stroke-width="1.5" stroke-linejoin="round"/>
<path d="M1 4C1 2.89543 1.89543 2 3 2H9.25L12 5.32343H21C22.1046 5.32343 23 6.21886 23 7.32343V19.8636C23 20.9682 22.1046 21.8636 21 21.8636H3C1.89543 21.8636 1 20.9682 1 19.8636L1 4Z" stroke="black" stroke-opacity="0.2" stroke-width="1.5" stroke-linejoin="round"/>
<path d="M1 4C1 2.89543 1.89543 2 3 2H9.25L12 5.32343H21C22.1046 5.32343 23 6.21886 23 7.32343V19.8636C23 20.9682 22.1046 21.8636 21 21.8636H3C1.89543 21.8636 1 20.9682 1 19.8636L1 4Z" stroke="black" stroke-opacity="0.2" stroke-width="1.5" stroke-linejoin="round"/>
<path d="M12.0078 10.1855L15.5078 13.8515L12.0156 17.5094" stroke="#14141E" stroke-width="1.5" stroke-linecap="round" stroke-linejoin="round"/>
<path d="M12.0078 10.1855L15.5078 13.8515L12.0156 17.5094" stroke="black" stroke-opacity="0.2" stroke-width="1.5" stroke-linecap="round" stroke-linejoin="round"/>
<path d="M12.0078 10.1855L15.5078 13.8515L12.0156 17.5094" stroke="black" stroke-opacity="0.2" stroke-width="1.5" stroke-linecap="round" stroke-linejoin="round"/>
<path d="M8.51562 13.8477L15.5156 13.8477" stroke="#14141E" stroke-width="1.5" stroke-linecap="round" stroke-linejoin="round"/>
<path d="M8.51562 13.8477L15.5156 13.8477" stroke="black" stroke-opacity="0.2" stroke-width="1.5" stroke-linecap="round" stroke-linejoin="round"/>
<path d="M8.51562 13.8477L15.5156 13.8477" stroke="black" stroke-opacity="0.2" stroke-width="1.5" stroke-linecap="round" stroke-linejoin="round"/>
</svg>
