<svg width="12" height="12" viewBox="0 0 12 12" fill="none" xmlns="http://www.w3.org/2000/svg">
<path d="M6 11C7.38071 11 8.63071 10.4404 9.53553 9.53553C10.4404 8.63071 11 7.38071 11 6C11 4.61929 10.4404 3.36929 9.53553 2.46447C8.63071 1.55964 7.38071 1 6 1C4.61929 1 3.36929 1.55964 2.46447 2.46447C1.55964 3.36929 1 4.61929 1 6C1 7.38071 1.55964 8.63071 2.46447 9.53553C3.36929 10.4404 4.61929 11 6 11Z" fill="#8E8E93" stroke="#8E8E93" stroke-linejoin="round"/>
<path fill-rule="evenodd" clip-rule="evenodd" d="M6 9.25C6.34518 9.25 6.625 8.97018 6.625 8.625C6.625 8.27982 6.34518 8 6 8C5.65482 8 5.375 8.27982 5.375 8.625C5.375 8.97018 5.65482 9.25 6 9.25Z" fill="white"/>
<path d="M6 3V7" stroke="white" stroke-linecap="round" stroke-linejoin="round"/>
</svg>
