<svg width="24" height="24" viewBox="0 0 24 24" fill="none" xmlns="http://www.w3.org/2000/svg">
<path d="M14.7438 1.24801L14.7435 1.24801C14.5887 1.24804 14.4403 1.30942 14.3306 1.41868C13.6512 2.09806 13.4955 2.93634 13.4955 3.55602C13.4961 3.77859 13.5154 4.00071 13.5531 4.22008L13.5675 4.30429L13.5071 4.3647L8.80611 9.0642L8.74018 9.13011L8.6497 9.10765C8.16042 8.98617 7.66152 8.90737 7.15863 8.87212C6.1187 8.80254 4.70392 8.9244 3.72413 9.90418C3.61447 10.0139 3.55287 10.1626 3.55287 10.3178C3.55287 10.4729 3.61448 10.6216 3.72415 10.7314L3.61627 10.8392L3.72415 10.7314L7.96615 14.9749L8.08278 15.0915L7.96613 15.2082L3.19313 19.9812L3.19283 19.9815C3.1606 20.0135 3.11789 20.0539 3.06778 20.1012C2.87318 20.2851 2.56695 20.5744 2.32948 20.8933C2.18038 21.0935 2.07126 21.2894 2.03215 21.4622C1.99503 21.6261 2.0218 21.758 2.13263 21.8688C2.20207 21.9383 2.3088 21.9632 2.481 21.918C2.654 21.8726 2.85727 21.7637 3.06641 21.6212C3.48223 21.3377 3.87489 20.9537 4.02029 20.8083L8.79329 16.0353L8.90994 15.9187L9.02661 16.0353L13.2701 20.2773L13.1612 20.3862L13.2701 20.2773C13.3798 20.387 13.5286 20.4486 13.6837 20.4486C13.8388 20.4486 13.9876 20.387 14.0973 20.2773C14.0973 20.2773 14.0973 20.2773 14.0973 20.2773M14.7438 1.24801L15.294 16.8315C15.363 17.8845 15.246 19.362 14.214 20.394L14.0973 20.2773M14.7438 1.24801C14.8206 1.24787 14.8968 1.26289 14.9678 1.2922M14.7438 1.24801L14.9678 1.2922M14.0973 20.2773C15.077 19.2976 15.1975 17.8829 15.1293 16.8426M14.0973 20.2773L15.1293 16.8426M15.1293 16.8426C15.094 16.3398 15.0152 15.841 14.8938 15.3518L14.8714 15.2613L14.9373 15.1953L19.6383 10.4943L19.6984 10.4342L19.7823 10.4483C19.9628 10.4786 20.1904 10.5045 20.445 10.5045C21.0663 10.5045 21.9048 10.3488 22.5828 9.67084C22.6924 9.56113 22.754 9.41237 22.754 9.25726C22.754 9.10215 22.6924 8.95338 22.5828 8.84368C22.5828 8.84368 22.5828 8.84367 22.5828 8.84366L15.1579 1.41883L15.1293 16.8426ZM8.2556 10.2162C8.40318 10.25 8.54962 10.2886 8.69467 10.332H8.70125L8.72667 10.3405C8.82954 10.3748 8.93993 10.3798 9.04551 10.355C9.15104 10.3303 9.24761 10.2766 9.32444 10.2002C9.32447 10.2001 9.3245 10.2001 9.32454 10.2001L14.6268 4.89932L14.627 4.89917C14.7037 4.82268 14.7576 4.72639 14.7828 4.62104C14.8055 4.52634 14.8041 4.42766 14.779 4.33393L14.7772 4.33209L14.7667 4.29349L14.7615 4.2774V4.27383C14.6995 4.03993 14.6677 3.79904 14.667 3.55703L14.667 3.55651C14.667 3.37674 14.6844 3.18696 14.7321 3.00099L14.804 2.7208L15.0086 2.92532L21.0761 8.99132L21.2807 9.1959L21.0005 9.26783C20.8146 9.31554 20.6263 9.33301 20.445 9.33301C20.2277 9.33301 20.0353 9.30591 19.8973 9.27895L19.8921 9.27792L19.8921 9.27784L19.7481 9.24484L19.737 9.2423L19.7264 9.23828C19.6208 9.19819 19.5058 9.18956 19.3953 9.21344C19.2848 9.23731 19.1837 9.29267 19.104 9.37283L19.1036 9.3732L13.7998 14.6755C13.7998 14.6755 13.7998 14.6755 13.7998 14.6755C13.7231 14.7525 13.6693 14.8493 13.6445 14.9551C13.6197 15.0609 13.6249 15.1731 13.6594 15.2761L13.6607 15.28L13.6607 15.28L13.6667 15.2995L13.6671 15.301C13.8237 15.8274 13.9225 16.3694 13.9615 16.9173L13.9616 16.9181C14.0045 17.5646 13.9508 18.2124 13.7259 18.7547L13.6313 18.9827L13.4568 18.8082L5.1918 10.5447L5.0179 10.3708L5.24471 10.2758C5.7859 10.0491 6.43547 9.99548 7.08188 10.0384L7.0828 10.0384C7.47779 10.0668 7.86994 10.1263 8.2556 10.2162ZM8.2556 10.2162C8.25572 10.2163 8.25583 10.2163 8.25594 10.2163L8.21846 10.377L8.25526 10.2162C8.25538 10.2162 8.25549 10.2162 8.2556 10.2162ZM14.9678 1.2922C15.0388 1.32148 15.1034 1.36446 15.1578 1.41868L14.9678 1.2922Z" fill="#14141E"/>
<path d="M14.7438 1.24801L14.7435 1.24801C14.5887 1.24804 14.4403 1.30942 14.3306 1.41868C13.6512 2.09806 13.4955 2.93634 13.4955 3.55602C13.4961 3.77859 13.5154 4.00071 13.5531 4.22008L13.5675 4.30429L13.5071 4.3647L8.80611 9.0642L8.74018 9.13011L8.6497 9.10765C8.16042 8.98617 7.66152 8.90737 7.15863 8.87212C6.1187 8.80254 4.70392 8.9244 3.72413 9.90418C3.61447 10.0139 3.55287 10.1626 3.55287 10.3178C3.55287 10.4729 3.61448 10.6216 3.72415 10.7314L3.61627 10.8392L3.72415 10.7314L7.96615 14.9749L8.08278 15.0915L7.96613 15.2082L3.19313 19.9812L3.19283 19.9815C3.1606 20.0135 3.11789 20.0539 3.06778 20.1012C2.87318 20.2851 2.56695 20.5744 2.32948 20.8933C2.18038 21.0935 2.07126 21.2894 2.03215 21.4622C1.99503 21.6261 2.0218 21.758 2.13263 21.8688C2.20207 21.9383 2.3088 21.9632 2.481 21.918C2.654 21.8726 2.85727 21.7637 3.06641 21.6212C3.48223 21.3377 3.87489 20.9537 4.02029 20.8083L8.79329 16.0353L8.90994 15.9187L9.02661 16.0353L13.2701 20.2773L13.1612 20.3862L13.2701 20.2773C13.3798 20.387 13.5286 20.4486 13.6837 20.4486C13.8388 20.4486 13.9876 20.387 14.0973 20.2773C14.0973 20.2773 14.0973 20.2773 14.0973 20.2773M14.7438 1.24801L15.294 16.8315C15.363 17.8845 15.246 19.362 14.214 20.394L14.0973 20.2773M14.7438 1.24801C14.8206 1.24787 14.8968 1.26289 14.9678 1.2922M14.7438 1.24801L14.9678 1.2922M14.0973 20.2773C15.077 19.2976 15.1975 17.8829 15.1293 16.8426M14.0973 20.2773L15.1293 16.8426M15.1293 16.8426C15.094 16.3398 15.0152 15.841 14.8938 15.3518L14.8714 15.2613L14.9373 15.1953L19.6383 10.4943L19.6984 10.4342L19.7823 10.4483C19.9628 10.4786 20.1904 10.5045 20.445 10.5045C21.0663 10.5045 21.9048 10.3488 22.5828 9.67084C22.6924 9.56113 22.754 9.41237 22.754 9.25726C22.754 9.10215 22.6924 8.95338 22.5828 8.84368C22.5828 8.84368 22.5828 8.84367 22.5828 8.84366L15.1579 1.41883L15.1293 16.8426ZM8.2556 10.2162C8.40318 10.25 8.54962 10.2886 8.69467 10.332H8.70125L8.72667 10.3405C8.82954 10.3748 8.93993 10.3798 9.04551 10.355C9.15104 10.3303 9.24761 10.2766 9.32444 10.2002C9.32447 10.2001 9.3245 10.2001 9.32454 10.2001L14.6268 4.89932L14.627 4.89917C14.7037 4.82268 14.7576 4.72639 14.7828 4.62104C14.8055 4.52634 14.8041 4.42766 14.779 4.33393L14.7772 4.33209L14.7667 4.29349L14.7615 4.2774V4.27383C14.6995 4.03993 14.6677 3.79904 14.667 3.55703L14.667 3.55651C14.667 3.37674 14.6844 3.18696 14.7321 3.00099L14.804 2.7208L15.0086 2.92532L21.0761 8.99132L21.2807 9.1959L21.0005 9.26783C20.8146 9.31554 20.6263 9.33301 20.445 9.33301C20.2277 9.33301 20.0353 9.30591 19.8973 9.27895L19.8921 9.27792L19.8921 9.27784L19.7481 9.24484L19.737 9.2423L19.7264 9.23828C19.6208 9.19819 19.5058 9.18956 19.3953 9.21344C19.2848 9.23731 19.1837 9.29267 19.104 9.37283L19.1036 9.3732L13.7998 14.6755C13.7998 14.6755 13.7998 14.6755 13.7998 14.6755C13.7231 14.7525 13.6693 14.8493 13.6445 14.9551C13.6197 15.0609 13.6249 15.1731 13.6594 15.2761L13.6607 15.28L13.6607 15.28L13.6667 15.2995L13.6671 15.301C13.8237 15.8274 13.9225 16.3694 13.9615 16.9173L13.9616 16.9181C14.0045 17.5646 13.9508 18.2124 13.7259 18.7547L13.6313 18.9827L13.4568 18.8082L5.1918 10.5447L5.0179 10.3708L5.24471 10.2758C5.7859 10.0491 6.43547 9.99548 7.08188 10.0384L7.0828 10.0384C7.47779 10.0668 7.86994 10.1263 8.2556 10.2162ZM8.2556 10.2162C8.25572 10.2163 8.25583 10.2163 8.25594 10.2163L8.21846 10.377L8.25526 10.2162C8.25538 10.2162 8.25549 10.2162 8.2556 10.2162ZM14.9678 1.2922C15.0388 1.32148 15.1034 1.36446 15.1578 1.41868L14.9678 1.2922Z" fill="black" fill-opacity="0.2"/>
<path d="M14.7438 1.24801L14.7435 1.24801C14.5887 1.24804 14.4403 1.30942 14.3306 1.41868C13.6512 2.09806 13.4955 2.93634 13.4955 3.55602C13.4961 3.77859 13.5154 4.00071 13.5531 4.22008L13.5675 4.30429L13.5071 4.3647L8.80611 9.0642L8.74018 9.13011L8.6497 9.10765C8.16042 8.98617 7.66152 8.90737 7.15863 8.87212C6.1187 8.80254 4.70392 8.9244 3.72413 9.90418C3.61447 10.0139 3.55287 10.1626 3.55287 10.3178C3.55287 10.4729 3.61448 10.6216 3.72415 10.7314L3.61627 10.8392L3.72415 10.7314L7.96615 14.9749L8.08278 15.0915L7.96613 15.2082L3.19313 19.9812L3.19283 19.9815C3.1606 20.0135 3.11789 20.0539 3.06778 20.1012C2.87318 20.2851 2.56695 20.5744 2.32948 20.8933C2.18038 21.0935 2.07126 21.2894 2.03215 21.4622C1.99503 21.6261 2.0218 21.758 2.13263 21.8688C2.20207 21.9383 2.3088 21.9632 2.481 21.918C2.654 21.8726 2.85727 21.7637 3.06641 21.6212C3.48223 21.3377 3.87489 20.9537 4.02029 20.8083L8.79329 16.0353L8.90994 15.9187L9.02661 16.0353L13.2701 20.2773L13.1612 20.3862L13.2701 20.2773C13.3798 20.387 13.5286 20.4486 13.6837 20.4486C13.8388 20.4486 13.9876 20.387 14.0973 20.2773C14.0973 20.2773 14.0973 20.2773 14.0973 20.2773M14.7438 1.24801L15.294 16.8315C15.363 17.8845 15.246 19.362 14.214 20.394L14.0973 20.2773M14.7438 1.24801C14.8206 1.24787 14.8968 1.26289 14.9678 1.2922M14.7438 1.24801L14.9678 1.2922M14.0973 20.2773C15.077 19.2976 15.1975 17.8829 15.1293 16.8426M14.0973 20.2773L15.1293 16.8426M15.1293 16.8426C15.094 16.3398 15.0152 15.841 14.8938 15.3518L14.8714 15.2613L14.9373 15.1953L19.6383 10.4943L19.6984 10.4342L19.7823 10.4483C19.9628 10.4786 20.1904 10.5045 20.445 10.5045C21.0663 10.5045 21.9048 10.3488 22.5828 9.67084C22.6924 9.56113 22.754 9.41237 22.754 9.25726C22.754 9.10215 22.6924 8.95338 22.5828 8.84368C22.5828 8.84368 22.5828 8.84367 22.5828 8.84366L15.1579 1.41883L15.1293 16.8426ZM8.2556 10.2162C8.40318 10.25 8.54962 10.2886 8.69467 10.332H8.70125L8.72667 10.3405C8.82954 10.3748 8.93993 10.3798 9.04551 10.355C9.15104 10.3303 9.24761 10.2766 9.32444 10.2002C9.32447 10.2001 9.3245 10.2001 9.32454 10.2001L14.6268 4.89932L14.627 4.89917C14.7037 4.82268 14.7576 4.72639 14.7828 4.62104C14.8055 4.52634 14.8041 4.42766 14.779 4.33393L14.7772 4.33209L14.7667 4.29349L14.7615 4.2774V4.27383C14.6995 4.03993 14.6677 3.79904 14.667 3.55703L14.667 3.55651C14.667 3.37674 14.6844 3.18696 14.7321 3.00099L14.804 2.7208L15.0086 2.92532L21.0761 8.99132L21.2807 9.1959L21.0005 9.26783C20.8146 9.31554 20.6263 9.33301 20.445 9.33301C20.2277 9.33301 20.0353 9.30591 19.8973 9.27895L19.8921 9.27792L19.8921 9.27784L19.7481 9.24484L19.737 9.2423L19.7264 9.23828C19.6208 9.19819 19.5058 9.18956 19.3953 9.21344C19.2848 9.23731 19.1837 9.29267 19.104 9.37283L19.1036 9.3732L13.7998 14.6755C13.7998 14.6755 13.7998 14.6755 13.7998 14.6755C13.7231 14.7525 13.6693 14.8493 13.6445 14.9551C13.6197 15.0609 13.6249 15.1731 13.6594 15.2761L13.6607 15.28L13.6607 15.28L13.6667 15.2995L13.6671 15.301C13.8237 15.8274 13.9225 16.3694 13.9615 16.9173L13.9616 16.9181C14.0045 17.5646 13.9508 18.2124 13.7259 18.7547L13.6313 18.9827L13.4568 18.8082L5.1918 10.5447L5.0179 10.3708L5.24471 10.2758C5.7859 10.0491 6.43547 9.99548 7.08188 10.0384L7.0828 10.0384C7.47779 10.0668 7.86994 10.1263 8.2556 10.2162ZM8.2556 10.2162C8.25572 10.2163 8.25583 10.2163 8.25594 10.2163L8.21846 10.377L8.25526 10.2162C8.25538 10.2162 8.25549 10.2162 8.2556 10.2162ZM14.9678 1.2922C15.0388 1.32148 15.1034 1.36446 15.1578 1.41868L14.9678 1.2922Z" fill="black" fill-opacity="0.2"/>
<path d="M14.7438 1.24801L14.7435 1.24801C14.5887 1.24804 14.4403 1.30942 14.3306 1.41868C13.6512 2.09806 13.4955 2.93634 13.4955 3.55602C13.4961 3.77859 13.5154 4.00071 13.5531 4.22008L13.5675 4.30429L13.5071 4.3647L8.80611 9.0642L8.74018 9.13011L8.6497 9.10765C8.16042 8.98617 7.66152 8.90737 7.15863 8.87212C6.1187 8.80254 4.70392 8.9244 3.72413 9.90418C3.61447 10.0139 3.55287 10.1626 3.55287 10.3178C3.55287 10.4729 3.61448 10.6216 3.72415 10.7314L3.61627 10.8392L3.72415 10.7314L7.96615 14.9749L8.08278 15.0915L7.96613 15.2082L3.19313 19.9812L3.19283 19.9815C3.1606 20.0135 3.11789 20.0539 3.06778 20.1012C2.87318 20.2851 2.56695 20.5744 2.32948 20.8933C2.18038 21.0935 2.07126 21.2894 2.03215 21.4622C1.99503 21.6261 2.0218 21.758 2.13263 21.8688C2.20207 21.9383 2.3088 21.9632 2.481 21.918C2.654 21.8726 2.85727 21.7637 3.06641 21.6212C3.48223 21.3377 3.87489 20.9537 4.02029 20.8083L8.79329 16.0353L8.90994 15.9187L9.02661 16.0353L13.2701 20.2773L13.1612 20.3862L13.2701 20.2773C13.3798 20.387 13.5286 20.4486 13.6837 20.4486C13.8388 20.4486 13.9876 20.387 14.0973 20.2773C14.0973 20.2773 14.0973 20.2773 14.0973 20.2773M14.7438 1.24801L15.294 16.8315C15.363 17.8845 15.246 19.362 14.214 20.394L14.0973 20.2773M14.7438 1.24801C14.8206 1.24787 14.8968 1.26289 14.9678 1.2922M14.7438 1.24801L14.9678 1.2922M14.0973 20.2773C15.077 19.2976 15.1975 17.8829 15.1293 16.8426M14.0973 20.2773L15.1293 16.8426M15.1293 16.8426C15.094 16.3398 15.0152 15.841 14.8938 15.3518L14.8714 15.2613L14.9373 15.1953L19.6383 10.4943L19.6984 10.4342L19.7823 10.4483C19.9628 10.4786 20.1904 10.5045 20.445 10.5045C21.0663 10.5045 21.9048 10.3488 22.5828 9.67084C22.6924 9.56113 22.754 9.41237 22.754 9.25726C22.754 9.10215 22.6924 8.95338 22.5828 8.84368C22.5828 8.84368 22.5828 8.84367 22.5828 8.84366L15.1579 1.41883L15.1293 16.8426ZM8.2556 10.2162C8.40318 10.25 8.54962 10.2886 8.69467 10.332H8.70125L8.72667 10.3405C8.82954 10.3748 8.93993 10.3798 9.04551 10.355C9.15104 10.3303 9.24761 10.2766 9.32444 10.2002C9.32447 10.2001 9.3245 10.2001 9.32454 10.2001L14.6268 4.89932L14.627 4.89917C14.7037 4.82268 14.7576 4.72639 14.7828 4.62104C14.8055 4.52634 14.8041 4.42766 14.779 4.33393L14.7772 4.33209L14.7667 4.29349L14.7615 4.2774V4.27383C14.6995 4.03993 14.6677 3.79904 14.667 3.55703L14.667 3.55651C14.667 3.37674 14.6844 3.18696 14.7321 3.00099L14.804 2.7208L15.0086 2.92532L21.0761 8.99132L21.2807 9.1959L21.0005 9.26783C20.8146 9.31554 20.6263 9.33301 20.445 9.33301C20.2277 9.33301 20.0353 9.30591 19.8973 9.27895L19.8921 9.27792L19.8921 9.27784L19.7481 9.24484L19.737 9.2423L19.7264 9.23828C19.6208 9.19819 19.5058 9.18956 19.3953 9.21344C19.2848 9.23731 19.1837 9.29267 19.104 9.37283L19.1036 9.3732L13.7998 14.6755C13.7998 14.6755 13.7998 14.6755 13.7998 14.6755C13.7231 14.7525 13.6693 14.8493 13.6445 14.9551C13.6197 15.0609 13.6249 15.1731 13.6594 15.2761L13.6607 15.28L13.6607 15.28L13.6667 15.2995L13.6671 15.301C13.8237 15.8274 13.9225 16.3694 13.9615 16.9173L13.9616 16.9181C14.0045 17.5646 13.9508 18.2124 13.7259 18.7547L13.6313 18.9827L13.4568 18.8082L5.1918 10.5447L5.0179 10.3708L5.24471 10.2758C5.7859 10.0491 6.43547 9.99548 7.08188 10.0384L7.0828 10.0384C7.47779 10.0668 7.86994 10.1263 8.2556 10.2162ZM8.2556 10.2162C8.25572 10.2163 8.25583 10.2163 8.25594 10.2163L8.21846 10.377L8.25526 10.2162C8.25538 10.2162 8.25549 10.2162 8.2556 10.2162ZM14.9678 1.2922C15.0388 1.32148 15.1034 1.36446 15.1578 1.41868L14.9678 1.2922Z" stroke="#14141E" stroke-width="0.33"/>
<path d="M14.7438 1.24801L14.7435 1.24801C14.5887 1.24804 14.4403 1.30942 14.3306 1.41868C13.6512 2.09806 13.4955 2.93634 13.4955 3.55602C13.4961 3.77859 13.5154 4.00071 13.5531 4.22008L13.5675 4.30429L13.5071 4.3647L8.80611 9.0642L8.74018 9.13011L8.6497 9.10765C8.16042 8.98617 7.66152 8.90737 7.15863 8.87212C6.1187 8.80254 4.70392 8.9244 3.72413 9.90418C3.61447 10.0139 3.55287 10.1626 3.55287 10.3178C3.55287 10.4729 3.61448 10.6216 3.72415 10.7314L3.61627 10.8392L3.72415 10.7314L7.96615 14.9749L8.08278 15.0915L7.96613 15.2082L3.19313 19.9812L3.19283 19.9815C3.1606 20.0135 3.11789 20.0539 3.06778 20.1012C2.87318 20.2851 2.56695 20.5744 2.32948 20.8933C2.18038 21.0935 2.07126 21.2894 2.03215 21.4622C1.99503 21.6261 2.0218 21.758 2.13263 21.8688C2.20207 21.9383 2.3088 21.9632 2.481 21.918C2.654 21.8726 2.85727 21.7637 3.06641 21.6212C3.48223 21.3377 3.87489 20.9537 4.02029 20.8083L8.79329 16.0353L8.90994 15.9187L9.02661 16.0353L13.2701 20.2773L13.1612 20.3862L13.2701 20.2773C13.3798 20.387 13.5286 20.4486 13.6837 20.4486C13.8388 20.4486 13.9876 20.387 14.0973 20.2773C14.0973 20.2773 14.0973 20.2773 14.0973 20.2773M14.7438 1.24801L15.294 16.8315C15.363 17.8845 15.246 19.362 14.214 20.394L14.0973 20.2773M14.7438 1.24801C14.8206 1.24787 14.8968 1.26289 14.9678 1.2922M14.7438 1.24801L14.9678 1.2922M14.0973 20.2773C15.077 19.2976 15.1975 17.8829 15.1293 16.8426M14.0973 20.2773L15.1293 16.8426M15.1293 16.8426C15.094 16.3398 15.0152 15.841 14.8938 15.3518L14.8714 15.2613L14.9373 15.1953L19.6383 10.4943L19.6984 10.4342L19.7823 10.4483C19.9628 10.4786 20.1904 10.5045 20.445 10.5045C21.0663 10.5045 21.9048 10.3488 22.5828 9.67084C22.6924 9.56113 22.754 9.41237 22.754 9.25726C22.754 9.10215 22.6924 8.95338 22.5828 8.84368C22.5828 8.84368 22.5828 8.84367 22.5828 8.84366L15.1579 1.41883L15.1293 16.8426ZM8.2556 10.2162C8.40318 10.25 8.54962 10.2886 8.69467 10.332H8.70125L8.72667 10.3405C8.82954 10.3748 8.93993 10.3798 9.04551 10.355C9.15104 10.3303 9.24761 10.2766 9.32444 10.2002C9.32447 10.2001 9.3245 10.2001 9.32454 10.2001L14.6268 4.89932L14.627 4.89917C14.7037 4.82268 14.7576 4.72639 14.7828 4.62104C14.8055 4.52634 14.8041 4.42766 14.779 4.33393L14.7772 4.33209L14.7667 4.29349L14.7615 4.2774V4.27383C14.6995 4.03993 14.6677 3.79904 14.667 3.55703L14.667 3.55651C14.667 3.37674 14.6844 3.18696 14.7321 3.00099L14.804 2.7208L15.0086 2.92532L21.0761 8.99132L21.2807 9.1959L21.0005 9.26783C20.8146 9.31554 20.6263 9.33301 20.445 9.33301C20.2277 9.33301 20.0353 9.30591 19.8973 9.27895L19.8921 9.27792L19.8921 9.27784L19.7481 9.24484L19.737 9.2423L19.7264 9.23828C19.6208 9.19819 19.5058 9.18956 19.3953 9.21344C19.2848 9.23731 19.1837 9.29267 19.104 9.37283L19.1036 9.3732L13.7998 14.6755C13.7998 14.6755 13.7998 14.6755 13.7998 14.6755C13.7231 14.7525 13.6693 14.8493 13.6445 14.9551C13.6197 15.0609 13.6249 15.1731 13.6594 15.2761L13.6607 15.28L13.6607 15.28L13.6667 15.2995L13.6671 15.301C13.8237 15.8274 13.9225 16.3694 13.9615 16.9173L13.9616 16.9181C14.0045 17.5646 13.9508 18.2124 13.7259 18.7547L13.6313 18.9827L13.4568 18.8082L5.1918 10.5447L5.0179 10.3708L5.24471 10.2758C5.7859 10.0491 6.43547 9.99548 7.08188 10.0384L7.0828 10.0384C7.47779 10.0668 7.86994 10.1263 8.2556 10.2162ZM8.2556 10.2162C8.25572 10.2163 8.25583 10.2163 8.25594 10.2163L8.21846 10.377L8.25526 10.2162C8.25538 10.2162 8.25549 10.2162 8.2556 10.2162ZM14.9678 1.2922C15.0388 1.32148 15.1034 1.36446 15.1578 1.41868L14.9678 1.2922Z" stroke="black" stroke-opacity="0.2" stroke-width="0.33"/>
<path d="M14.7438 1.24801L14.7435 1.24801C14.5887 1.24804 14.4403 1.30942 14.3306 1.41868C13.6512 2.09806 13.4955 2.93634 13.4955 3.55602C13.4961 3.77859 13.5154 4.00071 13.5531 4.22008L13.5675 4.30429L13.5071 4.3647L8.80611 9.0642L8.74018 9.13011L8.6497 9.10765C8.16042 8.98617 7.66152 8.90737 7.15863 8.87212C6.1187 8.80254 4.70392 8.9244 3.72413 9.90418C3.61447 10.0139 3.55287 10.1626 3.55287 10.3178C3.55287 10.4729 3.61448 10.6216 3.72415 10.7314L3.61627 10.8392L3.72415 10.7314L7.96615 14.9749L8.08278 15.0915L7.96613 15.2082L3.19313 19.9812L3.19283 19.9815C3.1606 20.0135 3.11789 20.0539 3.06778 20.1012C2.87318 20.2851 2.56695 20.5744 2.32948 20.8933C2.18038 21.0935 2.07126 21.2894 2.03215 21.4622C1.99503 21.6261 2.0218 21.758 2.13263 21.8688C2.20207 21.9383 2.3088 21.9632 2.481 21.918C2.654 21.8726 2.85727 21.7637 3.06641 21.6212C3.48223 21.3377 3.87489 20.9537 4.02029 20.8083L8.79329 16.0353L8.90994 15.9187L9.02661 16.0353L13.2701 20.2773L13.1612 20.3862L13.2701 20.2773C13.3798 20.387 13.5286 20.4486 13.6837 20.4486C13.8388 20.4486 13.9876 20.387 14.0973 20.2773C14.0973 20.2773 14.0973 20.2773 14.0973 20.2773M14.7438 1.24801L15.294 16.8315C15.363 17.8845 15.246 19.362 14.214 20.394L14.0973 20.2773M14.7438 1.24801C14.8206 1.24787 14.8968 1.26289 14.9678 1.2922M14.7438 1.24801L14.9678 1.2922M14.0973 20.2773C15.077 19.2976 15.1975 17.8829 15.1293 16.8426M14.0973 20.2773L15.1293 16.8426M15.1293 16.8426C15.094 16.3398 15.0152 15.841 14.8938 15.3518L14.8714 15.2613L14.9373 15.1953L19.6383 10.4943L19.6984 10.4342L19.7823 10.4483C19.9628 10.4786 20.1904 10.5045 20.445 10.5045C21.0663 10.5045 21.9048 10.3488 22.5828 9.67084C22.6924 9.56113 22.754 9.41237 22.754 9.25726C22.754 9.10215 22.6924 8.95338 22.5828 8.84368C22.5828 8.84368 22.5828 8.84367 22.5828 8.84366L15.1579 1.41883L15.1293 16.8426ZM8.2556 10.2162C8.40318 10.25 8.54962 10.2886 8.69467 10.332H8.70125L8.72667 10.3405C8.82954 10.3748 8.93993 10.3798 9.04551 10.355C9.15104 10.3303 9.24761 10.2766 9.32444 10.2002C9.32447 10.2001 9.3245 10.2001 9.32454 10.2001L14.6268 4.89932L14.627 4.89917C14.7037 4.82268 14.7576 4.72639 14.7828 4.62104C14.8055 4.52634 14.8041 4.42766 14.779 4.33393L14.7772 4.33209L14.7667 4.29349L14.7615 4.2774V4.27383C14.6995 4.03993 14.6677 3.79904 14.667 3.55703L14.667 3.55651C14.667 3.37674 14.6844 3.18696 14.7321 3.00099L14.804 2.7208L15.0086 2.92532L21.0761 8.99132L21.2807 9.1959L21.0005 9.26783C20.8146 9.31554 20.6263 9.33301 20.445 9.33301C20.2277 9.33301 20.0353 9.30591 19.8973 9.27895L19.8921 9.27792L19.8921 9.27784L19.7481 9.24484L19.737 9.2423L19.7264 9.23828C19.6208 9.19819 19.5058 9.18956 19.3953 9.21344C19.2848 9.23731 19.1837 9.29267 19.104 9.37283L19.1036 9.3732L13.7998 14.6755C13.7998 14.6755 13.7998 14.6755 13.7998 14.6755C13.7231 14.7525 13.6693 14.8493 13.6445 14.9551C13.6197 15.0609 13.6249 15.1731 13.6594 15.2761L13.6607 15.28L13.6607 15.28L13.6667 15.2995L13.6671 15.301C13.8237 15.8274 13.9225 16.3694 13.9615 16.9173L13.9616 16.9181C14.0045 17.5646 13.9508 18.2124 13.7259 18.7547L13.6313 18.9827L13.4568 18.8082L5.1918 10.5447L5.0179 10.3708L5.24471 10.2758C5.7859 10.0491 6.43547 9.99548 7.08188 10.0384L7.0828 10.0384C7.47779 10.0668 7.86994 10.1263 8.2556 10.2162ZM8.2556 10.2162C8.25572 10.2163 8.25583 10.2163 8.25594 10.2163L8.21846 10.377L8.25526 10.2162C8.25538 10.2162 8.25549 10.2162 8.2556 10.2162ZM14.9678 1.2922C15.0388 1.32148 15.1034 1.36446 15.1578 1.41868L14.9678 1.2922Z" stroke="black" stroke-opacity="0.2" stroke-width="0.33"/>
</svg>
