<svg width="12" height="12" viewBox="0 0 12 12" fill="none" xmlns="http://www.w3.org/2000/svg">
<g clip-path="url(#clip0_3240_303099)">
<circle cx="6" cy="6" r="6" fill="#FFE49C"/>
<g clip-path="url(#clip1_3240_303099)">
<path fill-rule="evenodd" clip-rule="evenodd" d="M4.25723 5.84215C4.1662 5.8343 4.09465 5.77338 4.01353 5.73775C3.91976 5.69654 3.86052 5.66752 3.77799 5.625L2.61497 5.04613C2.46752 4.96956 2.44898 4.93421 2.30193 4.93421C2.12476 4.93421 1.98059 5.09767 2.00214 5.28161L2.12135 5.85035C2.15789 6.04249 2.20341 6.22463 2.23975 6.3996C2.28118 6.59897 2.31579 6.77711 2.35943 6.96711C2.4447 7.33841 2.51277 7.70469 2.59697 8.08441C2.63699 8.26517 2.71705 8.76962 2.79911 8.88285C2.84596 8.94756 2.92179 9 3.03036 9H8.97289C9.1024 9 9.20822 8.86052 9.23788 8.7597C9.30139 8.54351 9.4546 7.74232 9.5212 7.47245C9.59255 7.18294 9.64409 6.91197 9.70881 6.61957C9.77534 6.31911 9.83418 6.05069 9.90051 5.75112C9.93371 5.6013 9.96135 5.47546 9.9916 5.33081C10.0413 5.09299 9.85519 4.79549 9.47093 4.99306C8.93708 5.26769 8.25156 5.58648 7.74602 5.86186L6.33568 3.28765C6.19158 3.03673 6.1891 3 5.94413 3C5.745 3 5.59313 3.39757 5.45385 3.64L4.25723 5.84215Z" fill="#14141E"/>
<path fill-rule="evenodd" clip-rule="evenodd" d="M4.25723 5.84215C4.1662 5.8343 4.09465 5.77338 4.01353 5.73775C3.91976 5.69654 3.86052 5.66752 3.77799 5.625L2.61497 5.04613C2.46752 4.96956 2.44898 4.93421 2.30193 4.93421C2.12476 4.93421 1.98059 5.09767 2.00214 5.28161L2.12135 5.85035C2.15789 6.04249 2.20341 6.22463 2.23975 6.3996C2.28118 6.59897 2.31579 6.77711 2.35943 6.96711C2.4447 7.33841 2.51277 7.70469 2.59697 8.08441C2.63699 8.26517 2.71705 8.76962 2.79911 8.88285C2.84596 8.94756 2.92179 9 3.03036 9H8.97289C9.1024 9 9.20822 8.86052 9.23788 8.7597C9.30139 8.54351 9.4546 7.74232 9.5212 7.47245C9.59255 7.18294 9.64409 6.91197 9.70881 6.61957C9.77534 6.31911 9.83418 6.05069 9.90051 5.75112C9.93371 5.6013 9.96135 5.47546 9.9916 5.33081C10.0413 5.09299 9.85519 4.79549 9.47093 4.99306C8.93708 5.26769 8.25156 5.58648 7.74602 5.86186L6.33568 3.28765C6.19158 3.03673 6.1891 3 5.94413 3C5.745 3 5.59313 3.39757 5.45385 3.64L4.25723 5.84215Z" fill="black" fill-opacity="0.2"/>
<path fill-rule="evenodd" clip-rule="evenodd" d="M4.25723 5.84215C4.1662 5.8343 4.09465 5.77338 4.01353 5.73775C3.91976 5.69654 3.86052 5.66752 3.77799 5.625L2.61497 5.04613C2.46752 4.96956 2.44898 4.93421 2.30193 4.93421C2.12476 4.93421 1.98059 5.09767 2.00214 5.28161L2.12135 5.85035C2.15789 6.04249 2.20341 6.22463 2.23975 6.3996C2.28118 6.59897 2.31579 6.77711 2.35943 6.96711C2.4447 7.33841 2.51277 7.70469 2.59697 8.08441C2.63699 8.26517 2.71705 8.76962 2.79911 8.88285C2.84596 8.94756 2.92179 9 3.03036 9H8.97289C9.1024 9 9.20822 8.86052 9.23788 8.7597C9.30139 8.54351 9.4546 7.74232 9.5212 7.47245C9.59255 7.18294 9.64409 6.91197 9.70881 6.61957C9.77534 6.31911 9.83418 6.05069 9.90051 5.75112C9.93371 5.6013 9.96135 5.47546 9.9916 5.33081C10.0413 5.09299 9.85519 4.79549 9.47093 4.99306C8.93708 5.26769 8.25156 5.58648 7.74602 5.86186L6.33568 3.28765C6.19158 3.03673 6.1891 3 5.94413 3C5.745 3 5.59313 3.39757 5.45385 3.64L4.25723 5.84215Z" fill="black" fill-opacity="0.2"/>
</g>
</g>
<defs>
<clipPath id="clip0_3240_303099">
<rect width="12" height="12" fill="white"/>
</clipPath>
<clipPath id="clip1_3240_303099">
<rect width="8" height="6" fill="white" transform="translate(2 3)"/>
</clipPath>
</defs>
</svg>
