<svg width="15" height="15" viewBox="0 0 15 15" fill="none" xmlns="http://www.w3.org/2000/svg">
<g clip-path="url(#clip0_1929_38857)">
<g filter="url(#filter0_d_1929_38857)">
<path d="M7.49957 1.5625L5.58926 5.46176L1.25 6.09096L4.3934 9.16409L3.64199 13.4375L7.49957 11.381L11.3579 13.4375L10.6121 9.16409L13.75 6.09096L9.43477 5.46176L7.49957 1.5625Z" fill="#14141E"/>
<path d="M7.49957 1.5625L5.58926 5.46176L1.25 6.09096L4.3934 9.16409L3.64199 13.4375L7.49957 11.381L11.3579 13.4375L10.6121 9.16409L13.75 6.09096L9.43477 5.46176L7.49957 1.5625Z" fill="black" fill-opacity="0.2"/>
<path d="M7.49957 1.5625L5.58926 5.46176L1.25 6.09096L4.3934 9.16409L3.64199 13.4375L7.49957 11.381L11.3579 13.4375L10.6121 9.16409L13.75 6.09096L9.43477 5.46176L7.49957 1.5625Z" fill="black" fill-opacity="0.2"/>
<path d="M7.49957 1.5625L5.58926 5.46176L1.25 6.09096L4.3934 9.16409L3.64199 13.4375L7.49957 11.381L11.3579 13.4375L10.6121 9.16409L13.75 6.09096L9.43477 5.46176L7.49957 1.5625Z" stroke="#14141E" stroke-linejoin="round"/>
<path d="M7.49957 1.5625L5.58926 5.46176L1.25 6.09096L4.3934 9.16409L3.64199 13.4375L7.49957 11.381L11.3579 13.4375L10.6121 9.16409L13.75 6.09096L9.43477 5.46176L7.49957 1.5625Z" stroke="black" stroke-opacity="0.2" stroke-linejoin="round"/>
<path d="M7.49957 1.5625L5.58926 5.46176L1.25 6.09096L4.3934 9.16409L3.64199 13.4375L7.49957 11.381L11.3579 13.4375L10.6121 9.16409L13.75 6.09096L9.43477 5.46176L7.49957 1.5625Z" stroke="black" stroke-opacity="0.2" stroke-linejoin="round"/>
</g>
</g>
<defs>
<filter id="filter0_d_1929_38857" x="-4.25" y="-3.9375" width="23.5" height="22.875" filterUnits="userSpaceOnUse" color-interpolation-filters="sRGB">
<feFlood flood-opacity="0" result="BackgroundImageFix"/>
<feColorMatrix in="SourceAlpha" type="matrix" values="0 0 0 0 0 0 0 0 0 0 0 0 0 0 0 0 0 0 127 0" result="hardAlpha"/>
<feOffset/>
<feGaussianBlur stdDeviation="2.5"/>
<feComposite in2="hardAlpha" operator="out"/>
<feColorMatrix type="matrix" values="0 0 0 0 0.0784314 0 0 0 0 0.0784314 0 0 0 0 0.117647 0 0 0 0.35 0"/>
<feBlend mode="normal" in2="BackgroundImageFix" result="effect1_dropShadow_1929_38857"/>
<feBlend mode="normal" in="SourceGraphic" in2="effect1_dropShadow_1929_38857" result="shape"/>
</filter>
<clipPath id="clip0_1929_38857">
<rect width="15" height="15" fill="white"/>
</clipPath>
</defs>
</svg>
