<svg width="26" height="26" viewBox="0 0 26 26" fill="none" xmlns="http://www.w3.org/2000/svg">
<path fill-rule="evenodd" clip-rule="evenodd" d="M6.5 1.625C6.94873 1.625 7.3125 1.98877 7.3125 2.4375V4.0625C7.3125 4.51123 6.94873 4.875 6.5 4.875C6.05127 4.875 5.6875 4.51123 5.6875 4.0625V2.4375C5.6875 1.98877 6.05127 1.625 6.5 1.625Z" fill="white"/>
<path fill-rule="evenodd" clip-rule="evenodd" d="M19.5 1.625C19.9487 1.625 20.3125 1.98877 20.3125 2.4375V4.0625C20.3125 4.51123 19.9487 4.875 19.5 4.875C19.0513 4.875 18.6875 4.51123 18.6875 4.0625V2.4375C18.6875 1.98877 19.0513 1.625 19.5 1.625Z" fill="white"/>
<path fill-rule="evenodd" clip-rule="evenodd" d="M1.625 6.5C1.625 4.70507 3.08007 3.25 4.875 3.25H21.125C22.9199 3.25 24.375 4.70507 24.375 6.5V7.3125H1.625V6.5ZM1.625 8.9375H24.375V21.125C24.375 22.9199 22.9199 24.375 21.125 24.375H4.875C3.08007 24.375 1.625 22.9199 1.625 21.125V8.9375ZM16.25 11.7812C16.25 12.4543 15.7043 13 15.0312 13C14.3582 13 13.8125 12.4543 13.8125 11.7812C13.8125 11.1082 14.3582 10.5625 15.0312 10.5625C15.7043 10.5625 16.25 11.1082 16.25 11.7812ZM19.0938 13C19.7668 13 20.3125 12.4543 20.3125 11.7812C20.3125 11.1082 19.7668 10.5625 19.0938 10.5625C18.4207 10.5625 17.875 11.1082 17.875 11.7812C17.875 12.4543 18.4207 13 19.0938 13ZM16.25 15.8438C16.25 16.5168 15.7043 17.0625 15.0312 17.0625C14.3582 17.0625 13.8125 16.5168 13.8125 15.8438C13.8125 15.1707 14.3582 14.625 15.0312 14.625C15.7043 14.625 16.25 15.1707 16.25 15.8438ZM19.0938 17.0625C19.7668 17.0625 20.3125 16.5168 20.3125 15.8438C20.3125 15.1707 19.7668 14.625 19.0938 14.625C18.4207 14.625 17.875 15.1707 17.875 15.8438C17.875 16.5168 18.4207 17.0625 19.0938 17.0625ZM8.125 15.8438C8.125 16.5168 7.57935 17.0625 6.90625 17.0625C6.23315 17.0625 5.6875 16.5168 5.6875 15.8438C5.6875 15.1707 6.23315 14.625 6.90625 14.625C7.57935 14.625 8.125 15.1707 8.125 15.8438ZM10.9688 17.0625C11.6418 17.0625 12.1875 16.5168 12.1875 15.8438C12.1875 15.1707 11.6418 14.625 10.9688 14.625C10.2957 14.625 9.75 15.1707 9.75 15.8438C9.75 16.5168 10.2957 17.0625 10.9688 17.0625ZM8.125 19.9062C8.125 20.5793 7.57935 21.125 6.90625 21.125C6.23315 21.125 5.6875 20.5793 5.6875 19.9062C5.6875 19.2332 6.23315 18.6875 6.90625 18.6875C7.57935 18.6875 8.125 19.2332 8.125 19.9062ZM10.9688 21.125C11.6418 21.125 12.1875 20.5793 12.1875 19.9062C12.1875 19.2332 11.6418 18.6875 10.9688 18.6875C10.2957 18.6875 9.75 19.2332 9.75 19.9062C9.75 20.5793 10.2957 21.125 10.9688 21.125ZM16.25 19.9062C16.25 20.5793 15.7043 21.125 15.0312 21.125C14.3582 21.125 13.8125 20.5793 13.8125 19.9062C13.8125 19.2332 14.3582 18.6875 15.0312 18.6875C15.7043 18.6875 16.25 19.2332 16.25 19.9062Z" fill="white"/>
</svg>
