<svg width="32" height="32" viewBox="0 0 32 32" fill="none" xmlns="http://www.w3.org/2000/svg">
<path d="M17.9999 13.334L23.3332 18.6673M23.3332 13.334L17.9999 18.6673M26.1265 24.6673H12.3972C11.7017 24.6672 11.0338 24.3955 10.5359 23.91L3.40253 16.9553C3.27513 16.8311 3.17388 16.6826 3.10475 16.5187C3.03562 16.3547 3 16.1786 3 16.0007C3 15.8227 3.03562 15.6466 3.10475 15.4826C3.17388 15.3187 3.27513 15.1702 3.40253 15.046L10.5359 8.09132C11.0338 7.60581 11.7017 7.33405 12.3972 7.33398H26.1265C27.3932 7.33398 29.0905 8.05532 29.0905 9.50065V22.5007C29.0905 23.946 27.3932 24.6673 26.1265 24.6673Z" stroke="white" stroke-width="1.5" stroke-linecap="round" stroke-linejoin="round"/>
</svg>
