<svg width="26" height="26" viewBox="0 0 26 26" fill="none" xmlns="http://www.w3.org/2000/svg">
<path fill-rule="evenodd" clip-rule="evenodd" d="M9.21779 23.6639H5.72802C3.07216 23.6639 2 22.5076 2 19.7466V9.71182C2 7.95993 2.88295 7.42035 4.3195 6.51637L10.339 2.72528C11.8737 1.75824 13.7937 1.75824 15.3284 2.72528L21.3479 6.51637C22.7844 7.42035 23.6674 7.95993 23.6674 9.71182V19.7466C23.6674 22.5076 22.5952 23.6639 19.9394 23.6639H16.4496H9.22479H9.21779Z" fill="white" stroke="white" stroke-width="1.49962" stroke-miterlimit="22.9256" stroke-linecap="round" stroke-linejoin="round"/>
<path d="M9.21875 23.6646V18.6612C9.21875 16.5869 10.8375 14.9121 12.8276 14.9121C14.8248 14.9121 16.4365 16.5939 16.4365 18.6612V23.6646" stroke="#1C1C1E" stroke-width="1.49962" stroke-miterlimit="22.9256" stroke-linecap="square" stroke-linejoin="round"/>
</svg>
